<svg width="500" height="537" viewBox="0 0 500 537" fill="none" xmlns="http://www.w3.org/2000/svg">
<path d="M500 410.929H0V411.197H500V410.929Z" fill="#EBEBEB"/>
<path d="M449.9 428.177H416.78V428.445H449.9V428.177Z" fill="#EBEBEB"/>
<path d="M331.22 431.093H322.53V431.361H331.22V431.093Z" fill="#EBEBEB"/>
<path d="M415.78 418.228H396.59V418.496H415.78V418.228Z" fill="#EBEBEB"/>
<path d="M95.65 420.029H52.46V420.297H95.65V420.029Z" fill="#EBEBEB"/>
<path d="M110.89 420.029H104.56V420.297H110.89V420.029Z" fill="#EBEBEB"/>
<path d="M225.15 424.554H131.47V424.822H225.15V424.554Z" fill="#EBEBEB"/>
<path d="M237 363.114H43.91C42.3974 363.111 40.9476 362.465 39.8789 361.318C38.8102 360.17 38.21 358.615 38.21 356.993V66.0094C38.2232 64.3971 38.8292 62.8554 39.8965 61.7193C40.9637 60.5832 42.406 59.9444 43.91 59.9417H237C238.515 59.9417 239.967 60.5866 241.038 61.7346C242.109 62.8825 242.71 64.4395 242.71 66.063V356.993C242.71 358.616 242.109 360.173 241.038 361.321C239.967 362.469 238.515 363.114 237 363.114ZM43.91 60.1561C42.4637 60.1589 41.0775 60.7768 40.0557 61.8742C39.0339 62.9716 38.46 64.4588 38.46 66.0094V356.993C38.46 358.543 39.0339 360.031 40.0557 361.128C41.0775 362.225 42.4637 362.843 43.91 362.846H237C238.447 362.843 239.835 362.226 240.858 361.129C241.881 360.032 242.457 358.544 242.46 356.993V66.0094C242.457 64.4579 241.881 62.9707 240.858 61.8736C239.835 60.7765 238.447 60.1589 237 60.1561H43.91Z" fill="#EBEBEB"/>
<path d="M453.31 363.114H260.21C258.696 363.111 257.245 362.466 256.175 361.318C255.105 360.171 254.503 358.616 254.5 356.993V66.0094C254.516 64.3961 255.124 62.8545 256.193 61.7187C257.262 60.5828 258.705 59.9444 260.21 59.9417H453.31C454.812 59.9472 456.252 60.5873 457.317 61.7231C458.382 62.8589 458.987 64.3989 459 66.0094V356.993C459 358.613 458.401 360.166 457.335 361.314C456.268 362.461 454.821 363.109 453.31 363.114ZM260.21 60.1561C258.763 60.1589 257.375 60.7765 256.352 61.8736C255.329 62.9707 254.753 64.4579 254.75 66.0094V356.993C254.753 358.544 255.329 360.032 256.352 361.129C257.375 362.226 258.763 362.843 260.21 362.846H453.31C454.757 362.843 456.144 362.226 457.168 361.129C458.191 360.032 458.767 358.544 458.77 356.993V66.0094C458.767 64.4579 458.191 62.9707 457.168 61.8736C456.144 60.7765 454.757 60.1589 453.31 60.1561H260.21Z" fill="#EBEBEB"/>
<path d="M445.42 126.601H203.14V376.965H445.42V126.601Z" fill="#E0E0E0"/>
<path d="M445.42 131.147H207.03V372.592H445.42V131.147Z" fill="#F5F5F5"/>
<path d="M208.79 314.123V241.492H215.82V231.897L231.66 223.964V214.144H234.3V241.492H236.94V314.123H240.46V276.387H248.38V256.586H251.02V314.123H257.17V292.425H261.57V286.764H271.25V266.964H276.53V253.756H282.69V233.945H285.33V253.756H291.49V266.964H296.76V286.764H306.44V292.425H310.84V314.123H316.12V286.764H325.8V226.408H328.44V219.804H349.55V226.408H353.95V269.794H371.55V274.5H377.7V277.33H371.55V294.311H390.02V237.718H393.54V226.408H402.34V183.023H404.98V226.408H411.14V237.718H445.42V372.592H207.03V314.123H208.79Z" fill="#E6E6E6"/>
<path d="M427.1 240.677H424.61V243.347H427.1V240.677Z" fill="#F0F0F0"/>
<path d="M427.1 245.158H424.61V247.828H427.1V245.158Z" fill="#F0F0F0"/>
<path d="M427.1 263.083H424.61V265.752H427.1V263.083Z" fill="#F0F0F0"/>
<path d="M427.1 267.553H424.61V270.223H427.1V267.553Z" fill="#F0F0F0"/>
<path d="M427.1 272.034H424.61V274.704H427.1V272.034Z" fill="#F0F0F0"/>
<path d="M427.1 285.478H424.61V288.147H427.1V285.478Z" fill="#F0F0F0"/>
<path d="M427.1 289.959H424.61V292.628H427.1V289.959Z" fill="#F0F0F0"/>
<path d="M423.14 258.602H420.65V261.271H423.14V258.602Z" fill="#F0F0F0"/>
<path d="M423.14 263.083H420.65V265.752H423.14V263.083Z" fill="#F0F0F0"/>
<path d="M423.14 267.553H420.65V270.223H423.14V267.553Z" fill="#F0F0F0"/>
<path d="M423.14 272.034H420.65V274.704H423.14V272.034Z" fill="#F0F0F0"/>
<path d="M423.14 276.515H420.65V279.185H423.14V276.515Z" fill="#F0F0F0"/>
<path d="M423.14 285.478H420.65V288.147H423.14V285.478Z" fill="#F0F0F0"/>
<path d="M423.14 289.959H420.65V292.628H423.14V289.959Z" fill="#F0F0F0"/>
<path d="M419.18 240.677H416.69V243.347H419.18V240.677Z" fill="#F0F0F0"/>
<path d="M419.18 245.158H416.69V247.828H419.18V245.158Z" fill="#F0F0F0"/>
<path d="M419.18 249.639H416.69V252.309H419.18V249.639Z" fill="#F0F0F0"/>
<path d="M419.18 254.12H416.69V256.79H419.18V254.12Z" fill="#F0F0F0"/>
<path d="M419.18 258.602H416.69V261.271H419.18V258.602Z" fill="#F0F0F0"/>
<path d="M419.18 263.083H416.69V265.752H419.18V263.083Z" fill="#F0F0F0"/>
<path d="M419.18 267.553H416.69V270.223H419.18V267.553Z" fill="#F0F0F0"/>
<path d="M419.18 272.034H416.69V274.704H419.18V272.034Z" fill="#F0F0F0"/>
<path d="M419.18 276.515H416.69V279.185H419.18V276.515Z" fill="#F0F0F0"/>
<path d="M419.18 280.997H416.69V283.666H419.18V280.997Z" fill="#F0F0F0"/>
<path d="M419.18 289.959H416.69V292.628H419.18V289.959Z" fill="#F0F0F0"/>
<path d="M415.22 240.677H412.73V243.347H415.22V240.677Z" fill="#F0F0F0"/>
<path d="M415.22 245.158H412.73V247.828H415.22V245.158Z" fill="#F0F0F0"/>
<path d="M415.22 249.639H412.73V252.309H415.22V249.639Z" fill="#F0F0F0"/>
<path d="M415.22 254.12H412.73V256.79H415.22V254.12Z" fill="#F0F0F0"/>
<path d="M415.22 258.602H412.73V261.271H415.22V258.602Z" fill="#F0F0F0"/>
<path d="M415.22 263.083H412.73V265.752H415.22V263.083Z" fill="#F0F0F0"/>
<path d="M415.22 267.553H412.73V270.223H415.22V267.553Z" fill="#F0F0F0"/>
<path d="M415.22 307.883H412.73V310.553H415.22V307.883Z" fill="#F0F0F0"/>
<path d="M411.26 240.677H408.77V243.347H411.26V240.677Z" fill="#F0F0F0"/>
<path d="M411.26 245.158H408.77V247.828H411.26V245.158Z" fill="#F0F0F0"/>
<path d="M411.26 249.639H408.77V252.309H411.26V249.639Z" fill="#F0F0F0"/>
<path d="M411.26 254.12H408.77V256.79H411.26V254.12Z" fill="#F0F0F0"/>
<path d="M411.26 258.602H408.77V261.271H411.26V258.602Z" fill="#F0F0F0"/>
<path d="M411.26 263.083H408.77V265.752H411.26V263.083Z" fill="#F0F0F0"/>
<path d="M411.26 267.553H408.77V270.223H411.26V267.553Z" fill="#F0F0F0"/>
<path d="M411.26 272.034H408.77V274.704H411.26V272.034Z" fill="#F0F0F0"/>
<path d="M411.26 298.921H408.77V301.59H411.26V298.921Z" fill="#F0F0F0"/>
<path d="M411.26 303.402H408.77V306.072H411.26V303.402Z" fill="#F0F0F0"/>
<path d="M411.26 307.883H408.77V310.553H411.26V307.883Z" fill="#F0F0F0"/>
<path d="M411.26 312.354H408.77V315.023H411.26V312.354Z" fill="#F0F0F0"/>
<path d="M411.26 330.279H408.77V332.948H411.26V330.279Z" fill="#F0F0F0"/>
<path d="M407.3 240.677H404.81V243.347H407.3V240.677Z" fill="#F0F0F0"/>
<path d="M407.3 245.158H404.81V247.828H407.3V245.158Z" fill="#F0F0F0"/>
<path d="M407.3 249.639H404.81V252.309H407.3V249.639Z" fill="#F0F0F0"/>
<path d="M407.3 254.12H404.81V256.79H407.3V254.12Z" fill="#F0F0F0"/>
<path d="M407.3 258.602H404.81V261.271H407.3V258.602Z" fill="#F0F0F0"/>
<path d="M407.3 263.083H404.81V265.752H407.3V263.083Z" fill="#F0F0F0"/>
<path d="M407.3 267.553H404.81V270.223H407.3V267.553Z" fill="#F0F0F0"/>
<path d="M407.3 272.034H404.81V274.704H407.3V272.034Z" fill="#F0F0F0"/>
<path d="M407.3 276.515H404.81V279.185H407.3V276.515Z" fill="#F0F0F0"/>
<path d="M407.3 280.997H404.81V283.666H407.3V280.997Z" fill="#F0F0F0"/>
<path d="M407.3 294.44H404.81V297.109H407.3V294.44Z" fill="#F0F0F0"/>
<path d="M407.3 298.921H404.81V301.59H407.3V298.921Z" fill="#F0F0F0"/>
<path d="M407.3 303.402H404.81V306.072H407.3V303.402Z" fill="#F0F0F0"/>
<path d="M407.3 307.883H404.81V310.553H407.3V307.883Z" fill="#F0F0F0"/>
<path d="M407.3 312.354H404.81V315.023H407.3V312.354Z" fill="#F0F0F0"/>
<path d="M407.3 330.279H404.81V332.948H407.3V330.279Z" fill="#F0F0F0"/>
<path d="M403.34 240.677H400.85V243.347H403.34V240.677Z" fill="#F0F0F0"/>
<path d="M403.34 245.158H400.85V247.828H403.34V245.158Z" fill="#F0F0F0"/>
<path d="M403.34 249.639H400.85V252.309H403.34V249.639Z" fill="#F0F0F0"/>
<path d="M403.34 254.12H400.85V256.79H403.34V254.12Z" fill="#F0F0F0"/>
<path d="M403.34 258.602H400.85V261.271H403.34V258.602Z" fill="#F0F0F0"/>
<path d="M403.34 263.083H400.85V265.752H403.34V263.083Z" fill="#F0F0F0"/>
<path d="M403.34 267.553H400.85V270.223H403.34V267.553Z" fill="#F0F0F0"/>
<path d="M403.34 272.034H400.85V274.704H403.34V272.034Z" fill="#F0F0F0"/>
<path d="M403.34 276.515H400.85V279.185H403.34V276.515Z" fill="#F0F0F0"/>
<path d="M403.34 280.997H400.85V283.666H403.34V280.997Z" fill="#F0F0F0"/>
<path d="M403.34 285.478H400.85V288.147H403.34V285.478Z" fill="#F0F0F0"/>
<path d="M403.34 289.959H400.85V292.628H403.34V289.959Z" fill="#F0F0F0"/>
<path d="M403.34 294.44H400.85V297.109H403.34V294.44Z" fill="#F0F0F0"/>
<path d="M403.34 298.921H400.85V301.59H403.34V298.921Z" fill="#F0F0F0"/>
<path d="M403.34 303.402H400.85V306.072H403.34V303.402Z" fill="#F0F0F0"/>
<path d="M403.34 307.883H400.85V310.553H403.34V307.883Z" fill="#F0F0F0"/>
<path d="M403.34 312.354H400.85V315.023H403.34V312.354Z" fill="#F0F0F0"/>
<path d="M403.34 316.835H400.85V319.504H403.34V316.835Z" fill="#F0F0F0"/>
<path d="M399.38 240.677H396.89V243.347H399.38V240.677Z" fill="#F0F0F0"/>
<path d="M399.38 245.158H396.89V247.828H399.38V245.158Z" fill="#F0F0F0"/>
<path d="M399.38 249.639H396.89V252.309H399.38V249.639Z" fill="#F0F0F0"/>
<path d="M399.38 254.12H396.89V256.79H399.38V254.12Z" fill="#F0F0F0"/>
<path d="M399.38 258.602H396.89V261.271H399.38V258.602Z" fill="#F0F0F0"/>
<path d="M399.38 263.083H396.89V265.752H399.38V263.083Z" fill="#F0F0F0"/>
<path d="M399.38 267.553H396.89V270.223H399.38V267.553Z" fill="#F0F0F0"/>
<path d="M399.38 272.034H396.89V274.704H399.38V272.034Z" fill="#F0F0F0"/>
<path d="M399.38 276.515H396.89V279.185H399.38V276.515Z" fill="#F0F0F0"/>
<path d="M399.38 280.997H396.89V283.666H399.38V280.997Z" fill="#F0F0F0"/>
<path d="M399.38 294.44H396.89V297.109H399.38V294.44Z" fill="#F0F0F0"/>
<path d="M399.38 298.921H396.89V301.59H399.38V298.921Z" fill="#F0F0F0"/>
<path d="M399.38 303.402H396.89V306.072H399.38V303.402Z" fill="#F0F0F0"/>
<path d="M399.38 307.883H396.89V310.553H399.38V307.883Z" fill="#F0F0F0"/>
<path d="M395.43 240.677H392.94V243.347H395.43V240.677Z" fill="#F0F0F0"/>
<path d="M395.43 245.158H392.94V247.828H395.43V245.158Z" fill="#F0F0F0"/>
<path d="M395.43 249.639H392.94V252.309H395.43V249.639Z" fill="#F0F0F0"/>
<path d="M395.43 254.12H392.94V256.79H395.43V254.12Z" fill="#F0F0F0"/>
<path d="M395.43 258.602H392.94V261.271H395.43V258.602Z" fill="#F0F0F0"/>
<path d="M395.43 263.083H392.94V265.752H395.43V263.083Z" fill="#F0F0F0"/>
<path d="M395.43 267.553H392.94V270.223H395.43V267.553Z" fill="#F0F0F0"/>
<path d="M395.43 272.034H392.94V274.704H395.43V272.034Z" fill="#F0F0F0"/>
<path d="M395.43 276.515H392.94V279.185H395.43V276.515Z" fill="#F0F0F0"/>
<path d="M395.43 280.997H392.94V283.666H395.43V280.997Z" fill="#F0F0F0"/>
<path d="M395.43 294.44H392.94V297.109H395.43V294.44Z" fill="#F0F0F0"/>
<path d="M395.43 298.921H392.94V301.59H395.43V298.921Z" fill="#F0F0F0"/>
<path d="M395.43 303.402H392.94V306.072H395.43V303.402Z" fill="#F0F0F0"/>
<path d="M350.85 229.046H348.36V231.715H350.85V229.046Z" fill="#F0F0F0"/>
<path d="M350.85 233.527H348.36V236.196H350.85V233.527Z" fill="#F0F0F0"/>
<path d="M350.85 238.008H348.36V240.677H350.85V238.008Z" fill="#F0F0F0"/>
<path d="M350.85 242.489H348.36V245.158H350.85V242.489Z" fill="#F0F0F0"/>
<path d="M350.85 246.97H348.36V249.639H350.85V246.97Z" fill="#F0F0F0"/>
<path d="M350.85 251.451H348.36V254.12H350.85V251.451Z" fill="#F0F0F0"/>
<path d="M350.85 255.922H348.36V258.591H350.85V255.922Z" fill="#F0F0F0"/>
<path d="M350.85 260.403H348.36V263.072H350.85V260.403Z" fill="#F0F0F0"/>
<path d="M350.85 273.846H348.36V276.515H350.85V273.846Z" fill="#F0F0F0"/>
<path d="M350.85 278.327H348.36V280.996H350.85V278.327Z" fill="#F0F0F0"/>
<path d="M346.89 229.046H344.4V231.715H346.89V229.046Z" fill="#F0F0F0"/>
<path d="M346.89 233.527H344.4V236.196H346.89V233.527Z" fill="#F0F0F0"/>
<path d="M346.89 238.008H344.4V240.677H346.89V238.008Z" fill="#F0F0F0"/>
<path d="M346.89 242.489H344.4V245.158H346.89V242.489Z" fill="#F0F0F0"/>
<path d="M346.89 246.97H344.4V249.639H346.89V246.97Z" fill="#F0F0F0"/>
<path d="M346.89 251.451H344.4V254.12H346.89V251.451Z" fill="#F0F0F0"/>
<path d="M346.89 255.922H344.4V258.591H346.89V255.922Z" fill="#F0F0F0"/>
<path d="M346.89 260.403H344.4V263.072H346.89V260.403Z" fill="#F0F0F0"/>
<path d="M346.89 278.327H344.4V280.996H346.89V278.327Z" fill="#F0F0F0"/>
<path d="M342.93 229.046H340.44V231.715H342.93V229.046Z" fill="#F0F0F0"/>
<path d="M342.93 233.527H340.44V236.196H342.93V233.527Z" fill="#F0F0F0"/>
<path d="M342.93 238.008H340.44V240.677H342.93V238.008Z" fill="#F0F0F0"/>
<path d="M342.93 242.489H340.44V245.158H342.93V242.489Z" fill="#F0F0F0"/>
<path d="M342.93 246.97H340.44V249.639H342.93V246.97Z" fill="#F0F0F0"/>
<path d="M342.93 251.451H340.44V254.12H342.93V251.451Z" fill="#F0F0F0"/>
<path d="M342.93 255.922H340.44V258.591H342.93V255.922Z" fill="#F0F0F0"/>
<path d="M342.93 260.403H340.44V263.072H342.93V260.403Z" fill="#F0F0F0"/>
<path d="M338.97 229.046H336.48V231.715H338.97V229.046Z" fill="#F0F0F0"/>
<path d="M338.97 233.527H336.48V236.196H338.97V233.527Z" fill="#F0F0F0"/>
<path d="M338.97 238.008H336.48V240.677H338.97V238.008Z" fill="#F0F0F0"/>
<path d="M338.97 242.489H336.48V245.158H338.97V242.489Z" fill="#F0F0F0"/>
<path d="M338.97 246.97H336.48V249.639H338.97V246.97Z" fill="#F0F0F0"/>
<path d="M338.97 251.451H336.48V254.12H338.97V251.451Z" fill="#F0F0F0"/>
<path d="M338.97 260.403H336.48V263.072H338.97V260.403Z" fill="#F0F0F0"/>
<path d="M338.97 264.884H336.48V267.553H338.97V264.884Z" fill="#F0F0F0"/>
<path d="M338.97 278.327H336.48V280.996H338.97V278.327Z" fill="#F0F0F0"/>
<path d="M338.97 282.808H336.48V285.478H338.97V282.808Z" fill="#F0F0F0"/>
<path d="M338.97 287.29H336.48V289.959H338.97V287.29Z" fill="#F0F0F0"/>
<path d="M338.97 291.771H336.48V294.44H338.97V291.771Z" fill="#F0F0F0"/>
<path d="M338.97 296.252H336.48V298.921H338.97V296.252Z" fill="#F0F0F0"/>
<path d="M338.97 300.722H336.48V303.391H338.97V300.722Z" fill="#F0F0F0"/>
<path d="M338.97 305.203H336.48V307.872H338.97V305.203Z" fill="#F0F0F0"/>
<path d="M335.01 229.046H332.52V231.715H335.01V229.046Z" fill="#F0F0F0"/>
<path d="M335.01 233.527H332.52V236.196H335.01V233.527Z" fill="#F0F0F0"/>
<path d="M335.01 238.008H332.52V240.677H335.01V238.008Z" fill="#F0F0F0"/>
<path d="M335.01 242.489H332.52V245.158H335.01V242.489Z" fill="#F0F0F0"/>
<path d="M335.01 246.97H332.52V249.639H335.01V246.97Z" fill="#F0F0F0"/>
<path d="M335.01 251.451H332.52V254.12H335.01V251.451Z" fill="#F0F0F0"/>
<path d="M335.01 264.884H332.52V267.553H335.01V264.884Z" fill="#F0F0F0"/>
<path d="M335.01 269.365H332.52V272.034H335.01V269.365Z" fill="#F0F0F0"/>
<path d="M335.01 273.846H332.52V276.515H335.01V273.846Z" fill="#F0F0F0"/>
<path d="M335.01 278.327H332.52V280.996H335.01V278.327Z" fill="#F0F0F0"/>
<path d="M335.01 282.808H332.52V285.478H335.01V282.808Z" fill="#F0F0F0"/>
<path d="M335.01 287.29H332.52V289.959H335.01V287.29Z" fill="#F0F0F0"/>
<path d="M335.01 291.771H332.52V294.44H335.01V291.771Z" fill="#F0F0F0"/>
<path d="M335.01 296.252H332.52V298.921H335.01V296.252Z" fill="#F0F0F0"/>
<path d="M335.01 300.722H332.52V303.391H335.01V300.722Z" fill="#F0F0F0"/>
<path d="M335.01 305.203H332.52V307.872H335.01V305.203Z" fill="#F0F0F0"/>
<path d="M335.01 309.685H332.52V312.354H335.01V309.685Z" fill="#F0F0F0"/>
<path d="M335.01 318.647H332.52V321.316H335.01V318.647Z" fill="#F0F0F0"/>
<path d="M331.05 229.046H328.56V231.715H331.05V229.046Z" fill="#F0F0F0"/>
<path d="M331.05 233.527H328.56V236.196H331.05V233.527Z" fill="#F0F0F0"/>
<path d="M331.05 238.008H328.56V240.677H331.05V238.008Z" fill="#F0F0F0"/>
<path d="M331.05 242.489H328.56V245.158H331.05V242.489Z" fill="#F0F0F0"/>
<path d="M331.05 246.97H328.56V249.639H331.05V246.97Z" fill="#F0F0F0"/>
<path d="M331.05 251.451H328.56V254.12H331.05V251.451Z" fill="#F0F0F0"/>
<path d="M331.05 264.884H328.56V267.553H331.05V264.884Z" fill="#F0F0F0"/>
<path d="M331.05 269.365H328.56V272.034H331.05V269.365Z" fill="#F0F0F0"/>
<path d="M331.05 273.846H328.56V276.515H331.05V273.846Z" fill="#F0F0F0"/>
<path d="M331.05 278.327H328.56V280.996H331.05V278.327Z" fill="#F0F0F0"/>
<path d="M331.05 291.771H328.56V294.44H331.05V291.771Z" fill="#F0F0F0"/>
<path d="M331.05 296.252H328.56V298.921H331.05V296.252Z" fill="#F0F0F0"/>
<path d="M331.05 300.722H328.56V303.391H331.05V300.722Z" fill="#F0F0F0"/>
<path d="M331.05 305.203H328.56V307.872H331.05V305.203Z" fill="#F0F0F0"/>
<path d="M331.05 309.685H328.56V312.354H331.05V309.685Z" fill="#F0F0F0"/>
<path d="M331.05 318.647H328.56V321.316H331.05V318.647Z" fill="#F0F0F0"/>
<path d="M331.05 323.128H328.56V325.797H331.05V323.128Z" fill="#F0F0F0"/>
<path d="M295.131 270.705H292.641V273.374H295.131V270.705Z" fill="#F0F0F0"/>
<path d="M295.131 275.186H292.641V277.855H295.131V275.186Z" fill="#F0F0F0"/>
<path d="M295.131 279.668H292.641V282.337H295.131V279.668Z" fill="#F0F0F0"/>
<path d="M295.131 284.138H292.641V286.807H295.131V284.138Z" fill="#F0F0F0"/>
<path d="M295.131 288.619H292.641V291.288H295.131V288.619Z" fill="#F0F0F0"/>
<path d="M295.131 293.1H292.641V295.769H295.131V293.1Z" fill="#F0F0F0"/>
<path d="M295.131 297.581H292.641V300.25H295.131V297.581Z" fill="#F0F0F0"/>
<path d="M295.131 311.025H292.641V313.694H295.131V311.025Z" fill="#F0F0F0"/>
<path d="M295.131 315.506H292.641V318.175H295.131V315.506Z" fill="#F0F0F0"/>
<path d="M295.131 319.987H292.641V322.656H295.131V319.987Z" fill="#F0F0F0"/>
<path d="M291.17 270.705H288.68V273.374H291.17V270.705Z" fill="#F0F0F0"/>
<path d="M291.17 275.186H288.68V277.855H291.17V275.186Z" fill="#F0F0F0"/>
<path d="M291.17 279.668H288.68V282.337H291.17V279.668Z" fill="#F0F0F0"/>
<path d="M291.17 284.138H288.68V286.807H291.17V284.138Z" fill="#F0F0F0"/>
<path d="M291.17 288.619H288.68V291.288H291.17V288.619Z" fill="#F0F0F0"/>
<path d="M291.17 293.1H288.68V295.769H291.17V293.1Z" fill="#F0F0F0"/>
<path d="M291.17 297.581H288.68V300.25H291.17V297.581Z" fill="#F0F0F0"/>
<path d="M287.211 270.705H284.721V273.374H287.211V270.705Z" fill="#F0F0F0"/>
<path d="M287.211 275.186H284.721V277.855H287.211V275.186Z" fill="#F0F0F0"/>
<path d="M287.211 279.668H284.721V282.337H287.211V279.668Z" fill="#F0F0F0"/>
<path d="M287.211 284.138H284.721V286.807H287.211V284.138Z" fill="#F0F0F0"/>
<path d="M287.211 288.619H284.721V291.288H287.211V288.619Z" fill="#F0F0F0"/>
<path d="M287.211 293.1H284.721V295.769H287.211V293.1Z" fill="#F0F0F0"/>
<path d="M287.211 297.581H284.721V300.25H287.211V297.581Z" fill="#F0F0F0"/>
<path d="M283.25 270.705H280.76V273.374H283.25V270.705Z" fill="#F0F0F0"/>
<path d="M283.25 275.186H280.76V277.855H283.25V275.186Z" fill="#F0F0F0"/>
<path d="M283.25 279.668H280.76V282.337H283.25V279.668Z" fill="#F0F0F0"/>
<path d="M283.25 284.138H280.76V286.807H283.25V284.138Z" fill="#F0F0F0"/>
<path d="M283.25 288.619H280.76V291.288H283.25V288.619Z" fill="#F0F0F0"/>
<path d="M283.25 293.1H280.76V295.769H283.25V293.1Z" fill="#F0F0F0"/>
<path d="M283.25 297.581H280.76V300.25H283.25V297.581Z" fill="#F0F0F0"/>
<path d="M283.25 302.062H280.76V304.731H283.25V302.062Z" fill="#F0F0F0"/>
<path d="M283.25 306.544H280.76V309.213H283.25V306.544Z" fill="#F0F0F0"/>
<path d="M283.25 311.025H280.76V313.694H283.25V311.025Z" fill="#F0F0F0"/>
<path d="M283.25 315.506H280.76V318.175H283.25V315.506Z" fill="#F0F0F0"/>
<path d="M279.29 270.705H276.8V273.374H279.29V270.705Z" fill="#F0F0F0"/>
<path d="M279.29 275.186H276.8V277.855H279.29V275.186Z" fill="#F0F0F0"/>
<path d="M279.29 279.668H276.8V282.337H279.29V279.668Z" fill="#F0F0F0"/>
<path d="M279.29 284.138H276.8V286.807H279.29V284.138Z" fill="#F0F0F0"/>
<path d="M279.29 288.619H276.8V291.288H279.29V288.619Z" fill="#F0F0F0"/>
<path d="M279.29 293.1H276.8V295.769H279.29V293.1Z" fill="#F0F0F0"/>
<path d="M279.29 297.581H276.8V300.25H279.29V297.581Z" fill="#F0F0F0"/>
<path d="M279.29 302.062H276.8V304.731H279.29V302.062Z" fill="#F0F0F0"/>
<path d="M279.29 306.544H276.8V309.213H279.29V306.544Z" fill="#F0F0F0"/>
<path d="M279.29 311.025H276.8V313.694H279.29V311.025Z" fill="#F0F0F0"/>
<path d="M279.29 315.506H276.8V318.175H279.29V315.506Z" fill="#F0F0F0"/>
<path d="M279.29 319.987H276.8V322.656H279.29V319.987Z" fill="#F0F0F0"/>
<path d="M279.29 333.42H276.8V336.089H279.29V333.42Z" fill="#F0F0F0"/>
<path d="M279.29 337.901H276.8V340.57H279.29V337.901Z" fill="#F0F0F0"/>
<path d="M275.33 270.705H272.84V273.374H275.33V270.705Z" fill="#F0F0F0"/>
<path d="M275.33 275.186H272.84V277.855H275.33V275.186Z" fill="#F0F0F0"/>
<path d="M275.33 279.668H272.84V282.337H275.33V279.668Z" fill="#F0F0F0"/>
<path d="M275.33 293.1H272.84V295.769H275.33V293.1Z" fill="#F0F0F0"/>
<path d="M275.33 297.581H272.84V300.25H275.33V297.581Z" fill="#F0F0F0"/>
<path d="M275.33 302.062H272.84V304.731H275.33V302.062Z" fill="#F0F0F0"/>
<path d="M275.33 306.544H272.84V309.213H275.33V306.544Z" fill="#F0F0F0"/>
<path d="M275.33 311.025H272.84V313.694H275.33V311.025Z" fill="#F0F0F0"/>
<path d="M275.33 315.506H272.84V318.175H275.33V315.506Z" fill="#F0F0F0"/>
<path d="M275.33 319.987H272.84V322.656H275.33V319.987Z" fill="#F0F0F0"/>
<path d="M275.33 333.42H272.84V336.089H275.33V333.42Z" fill="#F0F0F0"/>
<path d="M275.33 337.901H272.84V340.57H275.33V337.901Z" fill="#F0F0F0"/>
<path d="M275.33 342.382H272.84V345.051H275.33V342.382Z" fill="#F0F0F0"/>
<path d="M233.84 243.818H231.35V246.488H233.84V243.818Z" fill="#F0F0F0"/>
<path d="M233.84 248.299H231.35V250.969H233.84V248.299Z" fill="#F0F0F0"/>
<path d="M233.84 252.781H231.35V255.45H233.84V252.781Z" fill="#F0F0F0"/>
<path d="M233.84 257.262H231.35V259.931H233.84V257.262Z" fill="#F0F0F0"/>
<path d="M233.84 261.743H231.35V264.412H233.84V261.743Z" fill="#F0F0F0"/>
<path d="M233.84 266.224H231.35V268.893H233.84V266.224Z" fill="#F0F0F0"/>
<path d="M233.84 270.705H231.35V273.374H233.84V270.705Z" fill="#F0F0F0"/>
<path d="M233.84 275.186H231.35V277.855H233.84V275.186Z" fill="#F0F0F0"/>
<path d="M233.84 279.668H231.35V282.337H233.84V279.668Z" fill="#F0F0F0"/>
<path d="M233.84 284.138H231.35V286.807H233.84V284.138Z" fill="#F0F0F0"/>
<path d="M233.84 288.619H231.35V291.288H233.84V288.619Z" fill="#F0F0F0"/>
<path d="M233.84 293.1H231.35V295.769H233.84V293.1Z" fill="#F0F0F0"/>
<path d="M233.84 297.581H231.35V300.25H233.84V297.581Z" fill="#F0F0F0"/>
<path d="M233.84 302.062H231.35V304.731H233.84V302.062Z" fill="#F0F0F0"/>
<path d="M233.84 306.544H231.35V309.213H233.84V306.544Z" fill="#F0F0F0"/>
<path d="M233.84 311.025H231.35V313.694H233.84V311.025Z" fill="#F0F0F0"/>
<path d="M233.84 315.506H231.35V318.175H233.84V315.506Z" fill="#F0F0F0"/>
<path d="M233.84 319.987H231.35V322.656H233.84V319.987Z" fill="#F0F0F0"/>
<path d="M233.84 324.468H231.35V327.137H233.84V324.468Z" fill="#F0F0F0"/>
<path d="M233.84 328.938H231.35V331.607H233.84V328.938Z" fill="#F0F0F0"/>
<path d="M233.84 333.42H231.35V336.089H233.84V333.42Z" fill="#F0F0F0"/>
<path d="M233.84 337.901H231.35V340.57H233.84V337.901Z" fill="#F0F0F0"/>
<path d="M233.84 342.382H231.35V345.051H233.84V342.382Z" fill="#F0F0F0"/>
<path d="M229.88 243.818H227.39V246.488H229.88V243.818Z" fill="#F0F0F0"/>
<path d="M229.88 248.299H227.39V250.969H229.88V248.299Z" fill="#F0F0F0"/>
<path d="M229.88 252.781H227.39V255.45H229.88V252.781Z" fill="#F0F0F0"/>
<path d="M229.88 257.262H227.39V259.931H229.88V257.262Z" fill="#F0F0F0"/>
<path d="M229.88 261.743H227.39V264.412H229.88V261.743Z" fill="#F0F0F0"/>
<path d="M229.88 266.224H227.39V268.893H229.88V266.224Z" fill="#F0F0F0"/>
<path d="M229.88 270.705H227.39V273.374H229.88V270.705Z" fill="#F0F0F0"/>
<path d="M229.88 275.186H227.39V277.855H229.88V275.186Z" fill="#F0F0F0"/>
<path d="M229.88 279.668H227.39V282.337H229.88V279.668Z" fill="#F0F0F0"/>
<path d="M229.88 284.138H227.39V286.807H229.88V284.138Z" fill="#F0F0F0"/>
<path d="M229.88 288.619H227.39V291.288H229.88V288.619Z" fill="#F0F0F0"/>
<path d="M229.88 293.1H227.39V295.769H229.88V293.1Z" fill="#F0F0F0"/>
<path d="M229.88 297.581H227.39V300.25H229.88V297.581Z" fill="#F0F0F0"/>
<path d="M229.88 302.062H227.39V304.731H229.88V302.062Z" fill="#F0F0F0"/>
<path d="M229.88 306.544H227.39V309.213H229.88V306.544Z" fill="#F0F0F0"/>
<path d="M229.88 311.025H227.39V313.694H229.88V311.025Z" fill="#F0F0F0"/>
<path d="M229.88 315.506H227.39V318.175H229.88V315.506Z" fill="#F0F0F0"/>
<path d="M229.88 319.987H227.39V322.656H229.88V319.987Z" fill="#F0F0F0"/>
<path d="M229.88 324.468H227.39V327.137H229.88V324.468Z" fill="#F0F0F0"/>
<path d="M225.92 243.818H223.43V246.488H225.92V243.818Z" fill="#F0F0F0"/>
<path d="M225.92 248.299H223.43V250.969H225.92V248.299Z" fill="#F0F0F0"/>
<path d="M225.92 252.781H223.43V255.45H225.92V252.781Z" fill="#F0F0F0"/>
<path d="M225.92 257.262H223.43V259.931H225.92V257.262Z" fill="#F0F0F0"/>
<path d="M225.92 261.743H223.43V264.412H225.92V261.743Z" fill="#F0F0F0"/>
<path d="M225.92 266.224H223.43V268.893H225.92V266.224Z" fill="#F0F0F0"/>
<path d="M225.92 270.705H223.43V273.374H225.92V270.705Z" fill="#F0F0F0"/>
<path d="M225.92 275.186H223.43V277.855H225.92V275.186Z" fill="#F0F0F0"/>
<path d="M225.92 279.668H223.43V282.337H225.92V279.668Z" fill="#F0F0F0"/>
<path d="M225.92 284.138H223.43V286.807H225.92V284.138Z" fill="#F0F0F0"/>
<path d="M225.92 288.619H223.43V291.288H225.92V288.619Z" fill="#F0F0F0"/>
<path d="M225.92 293.1H223.43V295.769H225.92V293.1Z" fill="#F0F0F0"/>
<path d="M225.92 297.581H223.43V300.25H225.92V297.581Z" fill="#F0F0F0"/>
<path d="M225.92 302.062H223.43V304.731H225.92V302.062Z" fill="#F0F0F0"/>
<path d="M225.92 306.544H223.43V309.213H225.92V306.544Z" fill="#F0F0F0"/>
<path d="M225.92 311.025H223.43V313.694H225.92V311.025Z" fill="#F0F0F0"/>
<path d="M225.92 315.506H223.43V318.175H225.92V315.506Z" fill="#F0F0F0"/>
<path d="M225.92 319.987H223.43V322.656H225.92V319.987Z" fill="#F0F0F0"/>
<path d="M225.92 324.468H223.43V327.137H225.92V324.468Z" fill="#F0F0F0"/>
<path d="M221.96 243.818H219.47V246.488H221.96V243.818Z" fill="#F0F0F0"/>
<path d="M221.96 248.299H219.47V250.969H221.96V248.299Z" fill="#F0F0F0"/>
<path d="M221.96 252.781H219.47V255.45H221.96V252.781Z" fill="#F0F0F0"/>
<path d="M221.96 257.262H219.47V259.931H221.96V257.262Z" fill="#F0F0F0"/>
<path d="M221.96 261.743H219.47V264.412H221.96V261.743Z" fill="#F0F0F0"/>
<path d="M221.96 266.224H219.47V268.893H221.96V266.224Z" fill="#F0F0F0"/>
<path d="M221.96 270.705H219.47V273.374H221.96V270.705Z" fill="#F0F0F0"/>
<path d="M221.96 275.186H219.47V277.855H221.96V275.186Z" fill="#F0F0F0"/>
<path d="M221.96 279.668H219.47V282.337H221.96V279.668Z" fill="#F0F0F0"/>
<path d="M221.96 284.138H219.47V286.807H221.96V284.138Z" fill="#F0F0F0"/>
<path d="M221.96 288.619H219.47V291.288H221.96V288.619Z" fill="#F0F0F0"/>
<path d="M221.96 293.1H219.47V295.769H221.96V293.1Z" fill="#F0F0F0"/>
<path d="M221.96 297.581H219.47V300.25H221.96V297.581Z" fill="#F0F0F0"/>
<path d="M221.96 302.062H219.47V304.731H221.96V302.062Z" fill="#F0F0F0"/>
<path d="M221.96 306.544H219.47V309.213H221.96V306.544Z" fill="#F0F0F0"/>
<path d="M218 243.818H215.51V246.488H218V243.818Z" fill="#F0F0F0"/>
<path d="M218 248.299H215.51V250.969H218V248.299Z" fill="#F0F0F0"/>
<path d="M218 252.781H215.51V255.45H218V252.781Z" fill="#F0F0F0"/>
<path d="M218 257.262H215.51V259.931H218V257.262Z" fill="#F0F0F0"/>
<path d="M218 261.743H215.51V264.412H218V261.743Z" fill="#F0F0F0"/>
<path d="M218 266.224H215.51V268.893H218V266.224Z" fill="#F0F0F0"/>
<path d="M218 270.705H215.51V273.374H218V270.705Z" fill="#F0F0F0"/>
<path d="M218 275.186H215.51V277.855H218V275.186Z" fill="#F0F0F0"/>
<path d="M218 279.668H215.51V282.337H218V279.668Z" fill="#F0F0F0"/>
<path d="M218 284.138H215.51V286.807H218V284.138Z" fill="#F0F0F0"/>
<path d="M218 288.619H215.51V291.288H218V288.619Z" fill="#F0F0F0"/>
<path d="M218 293.1H215.51V295.769H218V293.1Z" fill="#F0F0F0"/>
<path d="M218 297.581H215.51V300.25H218V297.581Z" fill="#F0F0F0"/>
<path d="M214.04 243.818H211.55V246.488H214.04V243.818Z" fill="#F0F0F0"/>
<path d="M214.04 248.299H211.55V250.969H214.04V248.299Z" fill="#F0F0F0"/>
<path d="M214.04 252.781H211.55V255.45H214.04V252.781Z" fill="#F0F0F0"/>
<path d="M214.04 257.262H211.55V259.931H214.04V257.262Z" fill="#F0F0F0"/>
<path d="M214.04 261.743H211.55V264.412H214.04V261.743Z" fill="#F0F0F0"/>
<path d="M214.04 266.224H211.55V268.893H214.04V266.224Z" fill="#F0F0F0"/>
<path d="M214.04 270.705H211.55V273.374H214.04V270.705Z" fill="#F0F0F0"/>
<path d="M214.04 275.186H211.55V277.855H214.04V275.186Z" fill="#F0F0F0"/>
<path d="M214.04 279.668H211.55V282.337H214.04V279.668Z" fill="#F0F0F0"/>
<path d="M214.04 284.138H211.55V286.807H214.04V284.138Z" fill="#F0F0F0"/>
<path d="M214.04 288.619H211.55V291.288H214.04V288.619Z" fill="#F0F0F0"/>
<path d="M214.04 293.1H211.55V295.769H214.04V293.1Z" fill="#F0F0F0"/>
<path d="M445.13 242.489H442.64V245.158H445.13V242.489Z" fill="#F0F0F0"/>
<path d="M445.13 246.97H442.64V249.639H445.13V246.97Z" fill="#F0F0F0"/>
<path d="M445.13 251.451H442.64V254.12H445.13V251.451Z" fill="#F0F0F0"/>
<path d="M445.13 255.922H442.64V258.591H445.13V255.922Z" fill="#F0F0F0"/>
<path d="M445.13 260.403H442.64V263.072H445.13V260.403Z" fill="#F0F0F0"/>
<path d="M445.13 264.884H442.64V267.553H445.13V264.884Z" fill="#F0F0F0"/>
<path d="M445.13 269.365H442.64V272.034H445.13V269.365Z" fill="#F0F0F0"/>
<path d="M445.13 273.846H442.64V276.515H445.13V273.846Z" fill="#F0F0F0"/>
<path d="M445.13 278.327H442.64V280.996H445.13V278.327Z" fill="#F0F0F0"/>
<path d="M445.13 282.808H442.64V285.478H445.13V282.808Z" fill="#F0F0F0"/>
<path d="M445.13 287.29H442.64V289.959H445.13V287.29Z" fill="#F0F0F0"/>
<path d="M445.13 291.771H442.64V294.44H445.13V291.771Z" fill="#F0F0F0"/>
<path d="M445.13 296.252H442.64V298.921H445.13V296.252Z" fill="#F0F0F0"/>
<path d="M445.13 300.722H442.64V303.391H445.13V300.722Z" fill="#F0F0F0"/>
<path d="M445.13 305.203H442.64V307.872H445.13V305.203Z" fill="#F0F0F0"/>
<path d="M445.13 309.685H442.64V312.354H445.13V309.685Z" fill="#F0F0F0"/>
<path d="M445.13 314.166H442.64V316.835H445.13V314.166Z" fill="#F0F0F0"/>
<path d="M445.13 323.128H442.64V325.797H445.13V323.128Z" fill="#F0F0F0"/>
<path d="M445.13 327.609H442.64V330.278H445.13V327.609Z" fill="#F0F0F0"/>
<path d="M445.13 332.09H442.64V334.759H445.13V332.09Z" fill="#F0F0F0"/>
<path d="M445.13 336.571H442.64V339.24H445.13V336.571Z" fill="#F0F0F0"/>
<path d="M445.13 341.042H442.64V343.711H445.13V341.042Z" fill="#F0F0F0"/>
<path d="M441.17 242.489H438.68V245.158H441.17V242.489Z" fill="#F0F0F0"/>
<path d="M441.17 246.97H438.68V249.639H441.17V246.97Z" fill="#F0F0F0"/>
<path d="M441.17 251.451H438.68V254.12H441.17V251.451Z" fill="#F0F0F0"/>
<path d="M441.17 255.922H438.68V258.591H441.17V255.922Z" fill="#F0F0F0"/>
<path d="M441.17 260.403H438.68V263.072H441.17V260.403Z" fill="#F0F0F0"/>
<path d="M441.17 264.884H438.68V267.553H441.17V264.884Z" fill="#F0F0F0"/>
<path d="M441.17 269.365H438.68V272.034H441.17V269.365Z" fill="#F0F0F0"/>
<path d="M441.17 273.846H438.68V276.515H441.17V273.846Z" fill="#F0F0F0"/>
<path d="M441.17 278.327H438.68V280.996H441.17V278.327Z" fill="#F0F0F0"/>
<path d="M441.17 282.808H438.68V285.478H441.17V282.808Z" fill="#F0F0F0"/>
<path d="M441.17 287.29H438.68V289.959H441.17V287.29Z" fill="#F0F0F0"/>
<path d="M441.17 291.771H438.68V294.44H441.17V291.771Z" fill="#F0F0F0"/>
<path d="M441.17 296.252H438.68V298.921H441.17V296.252Z" fill="#F0F0F0"/>
<path d="M441.17 300.722H438.68V303.391H441.17V300.722Z" fill="#F0F0F0"/>
<path d="M441.17 305.203H438.68V307.872H441.17V305.203Z" fill="#F0F0F0"/>
<path d="M441.17 309.685H438.68V312.354H441.17V309.685Z" fill="#F0F0F0"/>
<path d="M441.17 336.571H438.68V339.24H441.17V336.571Z" fill="#F0F0F0"/>
<path d="M441.17 341.042H438.68V343.711H441.17V341.042Z" fill="#F0F0F0"/>
<path d="M437.22 242.489H434.73V245.158H437.22V242.489Z" fill="#F0F0F0"/>
<path d="M437.22 246.97H434.73V249.639H437.22V246.97Z" fill="#F0F0F0"/>
<path d="M437.22 251.451H434.73V254.12H437.22V251.451Z" fill="#F0F0F0"/>
<path d="M437.22 255.922H434.73V258.591H437.22V255.922Z" fill="#F0F0F0"/>
<path d="M437.22 260.403H434.73V263.072H437.22V260.403Z" fill="#F0F0F0"/>
<path d="M437.22 264.884H434.73V267.553H437.22V264.884Z" fill="#F0F0F0"/>
<path d="M437.22 269.365H434.73V272.034H437.22V269.365Z" fill="#F0F0F0"/>
<path d="M437.22 273.846H434.73V276.515H437.22V273.846Z" fill="#F0F0F0"/>
<path d="M437.22 278.327H434.73V280.996H437.22V278.327Z" fill="#F0F0F0"/>
<path d="M437.22 282.808H434.73V285.478H437.22V282.808Z" fill="#F0F0F0"/>
<path d="M437.22 287.29H434.73V289.959H437.22V287.29Z" fill="#F0F0F0"/>
<path d="M437.22 291.771H434.73V294.44H437.22V291.771Z" fill="#F0F0F0"/>
<path d="M437.22 296.252H434.73V298.921H437.22V296.252Z" fill="#F0F0F0"/>
<path d="M437.22 300.722H434.73V303.391H437.22V300.722Z" fill="#F0F0F0"/>
<path d="M437.22 305.203H434.73V307.872H437.22V305.203Z" fill="#F0F0F0"/>
<path d="M437.22 309.685H434.73V312.354H437.22V309.685Z" fill="#F0F0F0"/>
<path d="M437.22 318.647H434.73V321.316H437.22V318.647Z" fill="#F0F0F0"/>
<path d="M437.22 323.128H434.73V325.797H437.22V323.128Z" fill="#F0F0F0"/>
<path d="M437.22 327.609H434.73V330.278H437.22V327.609Z" fill="#F0F0F0"/>
<path d="M437.22 332.09H434.73V334.759H437.22V332.09Z" fill="#F0F0F0"/>
<path d="M437.22 341.042H434.73V343.711H437.22V341.042Z" fill="#F0F0F0"/>
<path d="M368.15 273.846H365.66V276.515H368.15V273.846Z" fill="#F0F0F0"/>
<path d="M368.15 278.327H365.66V280.996H368.15V278.327Z" fill="#F0F0F0"/>
<path d="M368.15 282.808H365.66V285.478H368.15V282.808Z" fill="#F0F0F0"/>
<path d="M368.15 287.29H365.66V289.959H368.15V287.29Z" fill="#F0F0F0"/>
<path d="M368.15 291.771H365.66V294.44H368.15V291.771Z" fill="#F0F0F0"/>
<path d="M368.15 296.252H365.66V298.921H368.15V296.252Z" fill="#F0F0F0"/>
<path d="M368.15 300.722H365.66V303.391H368.15V300.722Z" fill="#F0F0F0"/>
<path d="M368.15 305.203H365.66V307.872H368.15V305.203Z" fill="#F0F0F0"/>
<path d="M368.15 309.685H365.66V312.354H368.15V309.685Z" fill="#F0F0F0"/>
<path d="M368.15 314.166H365.66V316.835H368.15V314.166Z" fill="#F0F0F0"/>
<path d="M368.15 318.647H365.66V321.316H368.15V318.647Z" fill="#F0F0F0"/>
<path d="M368.15 323.128H365.66V325.797H368.15V323.128Z" fill="#F0F0F0"/>
<path d="M368.15 327.609H365.66V330.278H368.15V327.609Z" fill="#F0F0F0"/>
<path d="M368.15 336.571H365.66V339.24H368.15V336.571Z" fill="#F0F0F0"/>
<path d="M368.15 341.042H365.66V343.711H368.15V341.042Z" fill="#F0F0F0"/>
<path d="M368.15 345.523H365.66V348.192H368.15V345.523Z" fill="#F0F0F0"/>
<path d="M368.15 350.004H365.66V352.673H368.15V350.004Z" fill="#F0F0F0"/>
<path d="M368.15 358.966H365.66V361.635H368.15V358.966Z" fill="#F0F0F0"/>
<path d="M368.15 363.447H365.66V366.117H368.15V363.447Z" fill="#F0F0F0"/>
<path d="M368.15 367.928H365.66V370.598H368.15V367.928Z" fill="#F0F0F0"/>
<path d="M364.19 273.846H361.7V276.515H364.19V273.846Z" fill="#F0F0F0"/>
<path d="M364.19 278.327H361.7V280.996H364.19V278.327Z" fill="#F0F0F0"/>
<path d="M364.19 282.808H361.7V285.478H364.19V282.808Z" fill="#F0F0F0"/>
<path d="M364.19 287.29H361.7V289.959H364.19V287.29Z" fill="#F0F0F0"/>
<path d="M364.19 291.771H361.7V294.44H364.19V291.771Z" fill="#F0F0F0"/>
<path d="M364.19 296.252H361.7V298.921H364.19V296.252Z" fill="#F0F0F0"/>
<path d="M364.19 300.722H361.7V303.391H364.19V300.722Z" fill="#F0F0F0"/>
<path d="M364.19 305.203H361.7V307.872H364.19V305.203Z" fill="#F0F0F0"/>
<path d="M364.19 309.685H361.7V312.354H364.19V309.685Z" fill="#F0F0F0"/>
<path d="M364.19 314.166H361.7V316.835H364.19V314.166Z" fill="#F0F0F0"/>
<path d="M364.19 318.647H361.7V321.316H364.19V318.647Z" fill="#F0F0F0"/>
<path d="M364.19 323.128H361.7V325.797H364.19V323.128Z" fill="#F0F0F0"/>
<path d="M364.19 327.609H361.7V330.278H364.19V327.609Z" fill="#F0F0F0"/>
<path d="M364.19 341.042H361.7V343.711H364.19V341.042Z" fill="#F0F0F0"/>
<path d="M364.19 345.523H361.7V348.192H364.19V345.523Z" fill="#F0F0F0"/>
<path d="M364.19 354.485H361.7V357.154H364.19V354.485Z" fill="#F0F0F0"/>
<path d="M364.19 358.966H361.7V361.635H364.19V358.966Z" fill="#F0F0F0"/>
<path d="M364.19 363.447H361.7V366.117H364.19V363.447Z" fill="#F0F0F0"/>
<path d="M364.19 367.928H361.7V370.598H364.19V367.928Z" fill="#F0F0F0"/>
<path d="M360.23 273.846H357.74V276.515H360.23V273.846Z" fill="#F0F0F0"/>
<path d="M360.23 278.327H357.74V280.996H360.23V278.327Z" fill="#F0F0F0"/>
<path d="M360.23 282.808H357.74V285.478H360.23V282.808Z" fill="#F0F0F0"/>
<path d="M360.23 287.29H357.74V289.959H360.23V287.29Z" fill="#F0F0F0"/>
<path d="M360.23 291.771H357.74V294.44H360.23V291.771Z" fill="#F0F0F0"/>
<path d="M360.23 296.252H357.74V298.921H360.23V296.252Z" fill="#F0F0F0"/>
<path d="M360.23 300.722H357.74V303.391H360.23V300.722Z" fill="#F0F0F0"/>
<path d="M360.23 305.203H357.74V307.872H360.23V305.203Z" fill="#F0F0F0"/>
<path d="M360.23 309.685H357.74V312.354H360.23V309.685Z" fill="#F0F0F0"/>
<path d="M360.23 314.166H357.74V316.835H360.23V314.166Z" fill="#F0F0F0"/>
<path d="M360.23 318.647H357.74V321.316H360.23V318.647Z" fill="#F0F0F0"/>
<path d="M360.23 323.128H357.74V325.797H360.23V323.128Z" fill="#F0F0F0"/>
<path d="M360.23 327.609H357.74V330.278H360.23V327.609Z" fill="#F0F0F0"/>
<path d="M360.23 332.09H357.74V334.759H360.23V332.09Z" fill="#F0F0F0"/>
<path d="M360.23 341.042H357.74V343.711H360.23V341.042Z" fill="#F0F0F0"/>
<path d="M360.23 350.004H357.74V352.673H360.23V350.004Z" fill="#F0F0F0"/>
<path d="M360.23 354.485H357.74V357.154H360.23V354.485Z" fill="#F0F0F0"/>
<path d="M360.23 358.966H357.74V361.635H360.23V358.966Z" fill="#F0F0F0"/>
<path d="M360.23 363.447H357.74V366.117H360.23V363.447Z" fill="#F0F0F0"/>
<path d="M360.23 367.928H357.74V370.598H360.23V367.928Z" fill="#F0F0F0"/>
<path d="M384.28 299.393H381.79V302.062H384.28V299.393Z" fill="#F0F0F0"/>
<path d="M384.28 303.874H381.79V306.543H384.28V303.874Z" fill="#F0F0F0"/>
<path d="M384.28 308.355H381.79V311.024H384.28V308.355Z" fill="#F0F0F0"/>
<path d="M384.28 312.825H381.79V315.495H384.28V312.825Z" fill="#F0F0F0"/>
<path d="M384.28 317.307H381.79V319.976H384.28V317.307Z" fill="#F0F0F0"/>
<path d="M384.28 321.788H381.79V324.457H384.28V321.788Z" fill="#F0F0F0"/>
<path d="M384.28 335.231H381.79V337.9H384.28V335.231Z" fill="#F0F0F0"/>
<path d="M384.28 339.712H381.79V342.382H384.28V339.712Z" fill="#F0F0F0"/>
<path d="M384.28 344.193H381.79V346.863H384.28V344.193Z" fill="#F0F0F0"/>
<path d="M384.28 348.674H381.79V351.344H384.28V348.674Z" fill="#F0F0F0"/>
<path d="M384.28 353.155H381.79V355.825H384.28V353.155Z" fill="#F0F0F0"/>
<path d="M384.28 357.626H381.79V360.296H384.28V357.626Z" fill="#F0F0F0"/>
<path d="M384.28 362.107H381.79V364.777H384.28V362.107Z" fill="#F0F0F0"/>
<path d="M380.321 299.393H377.831V302.062H380.321V299.393Z" fill="#F0F0F0"/>
<path d="M380.321 303.874H377.831V306.543H380.321V303.874Z" fill="#F0F0F0"/>
<path d="M380.321 308.355H377.831V311.024H380.321V308.355Z" fill="#F0F0F0"/>
<path d="M380.321 312.825H377.831V315.495H380.321V312.825Z" fill="#F0F0F0"/>
<path d="M380.321 317.307H377.831V319.976H380.321V317.307Z" fill="#F0F0F0"/>
<path d="M380.321 321.788H377.831V324.457H380.321V321.788Z" fill="#F0F0F0"/>
<path d="M380.321 335.231H377.831V337.9H380.321V335.231Z" fill="#F0F0F0"/>
<path d="M380.321 339.712H377.831V342.382H380.321V339.712Z" fill="#F0F0F0"/>
<path d="M380.321 344.193H377.831V346.863H380.321V344.193Z" fill="#F0F0F0"/>
<path d="M380.321 348.674H377.831V351.344H380.321V348.674Z" fill="#F0F0F0"/>
<path d="M380.321 353.155H377.831V355.825H380.321V353.155Z" fill="#F0F0F0"/>
<path d="M380.321 357.626H377.831V360.296H380.321V357.626Z" fill="#F0F0F0"/>
<path d="M380.321 366.588H377.831V369.258H380.321V366.588Z" fill="#F0F0F0"/>
<path d="M248.79 279.668H246.3V282.337H248.79V279.668Z" fill="#F0F0F0"/>
<path d="M248.79 284.138H246.3V286.807H248.79V284.138Z" fill="#F0F0F0"/>
<path d="M248.79 288.619H246.3V291.288H248.79V288.619Z" fill="#F0F0F0"/>
<path d="M248.79 293.1H246.3V295.769H248.79V293.1Z" fill="#F0F0F0"/>
<path d="M248.79 297.581H246.3V300.25H248.79V297.581Z" fill="#F0F0F0"/>
<path d="M248.79 302.062H246.3V304.731H248.79V302.062Z" fill="#F0F0F0"/>
<path d="M248.79 306.544H246.3V309.213H248.79V306.544Z" fill="#F0F0F0"/>
<path d="M248.79 311.025H246.3V313.694H248.79V311.025Z" fill="#F0F0F0"/>
<path d="M248.79 315.506H246.3V318.175H248.79V315.506Z" fill="#F0F0F0"/>
<path d="M248.79 319.987H246.3V322.656H248.79V319.987Z" fill="#F0F0F0"/>
<path d="M248.79 324.468H246.3V327.137H248.79V324.468Z" fill="#F0F0F0"/>
<path d="M248.79 333.42H246.3V336.089H248.79V333.42Z" fill="#F0F0F0"/>
<path d="M248.79 337.901H246.3V340.57H248.79V337.901Z" fill="#F0F0F0"/>
<path d="M248.79 342.382H246.3V345.051H248.79V342.382Z" fill="#F0F0F0"/>
<path d="M248.79 346.863H246.3V349.532H248.79V346.863Z" fill="#F0F0F0"/>
<path d="M248.79 351.344H246.3V354.013H248.79V351.344Z" fill="#F0F0F0"/>
<path d="M248.79 355.825H246.3V358.494H248.79V355.825Z" fill="#F0F0F0"/>
<path d="M248.79 360.306H246.3V362.975H248.79V360.306Z" fill="#F0F0F0"/>
<path d="M248.79 364.787H246.3V367.457H248.79V364.787Z" fill="#F0F0F0"/>
<path d="M244.84 279.668H242.35V282.337H244.84V279.668Z" fill="#F0F0F0"/>
<path d="M244.84 284.138H242.35V286.807H244.84V284.138Z" fill="#F0F0F0"/>
<path d="M244.84 288.619H242.35V291.288H244.84V288.619Z" fill="#F0F0F0"/>
<path d="M244.84 293.1H242.35V295.769H244.84V293.1Z" fill="#F0F0F0"/>
<path d="M244.84 297.581H242.35V300.25H244.84V297.581Z" fill="#F0F0F0"/>
<path d="M244.84 302.062H242.35V304.731H244.84V302.062Z" fill="#F0F0F0"/>
<path d="M244.84 306.544H242.35V309.213H244.84V306.544Z" fill="#F0F0F0"/>
<path d="M244.84 311.025H242.35V313.694H244.84V311.025Z" fill="#F0F0F0"/>
<path d="M244.84 315.506H242.35V318.175H244.84V315.506Z" fill="#F0F0F0"/>
<path d="M244.84 319.987H242.35V322.656H244.84V319.987Z" fill="#F0F0F0"/>
<path d="M244.84 324.468H242.35V327.137H244.84V324.468Z" fill="#F0F0F0"/>
<path d="M244.84 328.938H242.35V331.607H244.84V328.938Z" fill="#F0F0F0"/>
<path d="M244.84 333.42H242.35V336.089H244.84V333.42Z" fill="#F0F0F0"/>
<path d="M244.84 337.901H242.35V340.57H244.84V337.901Z" fill="#F0F0F0"/>
<path d="M244.84 342.382H242.35V345.051H244.84V342.382Z" fill="#F0F0F0"/>
<path d="M244.84 346.863H242.35V349.532H244.84V346.863Z" fill="#F0F0F0"/>
<path d="M244.84 351.344H242.35V354.013H244.84V351.344Z" fill="#F0F0F0"/>
<path d="M244.84 355.825H242.35V358.494H244.84V355.825Z" fill="#F0F0F0"/>
<path d="M244.84 360.306H242.35V362.975H244.84V360.306Z" fill="#F0F0F0"/>
<path d="M244.84 364.787H242.35V367.457H244.84V364.787Z" fill="#F0F0F0"/>
<path d="M268.3 297.109H265.81V299.779H268.3V297.109Z" fill="#F0F0F0"/>
<path d="M268.3 301.59H265.81V304.26H268.3V301.59Z" fill="#F0F0F0"/>
<path d="M268.3 306.071H265.81V308.741H268.3V306.071Z" fill="#F0F0F0"/>
<path d="M268.3 310.553H265.81V313.222H268.3V310.553Z" fill="#F0F0F0"/>
<path d="M268.3 315.034H265.81V317.703H268.3V315.034Z" fill="#F0F0F0"/>
<path d="M268.3 319.515H265.81V322.185H268.3V319.515Z" fill="#F0F0F0"/>
<path d="M268.3 323.996H265.81V326.666H268.3V323.996Z" fill="#F0F0F0"/>
<path d="M268.3 328.467H265.81V331.136H268.3V328.467Z" fill="#F0F0F0"/>
<path d="M268.3 332.948H265.81V335.617H268.3V332.948Z" fill="#F0F0F0"/>
<path d="M268.3 337.429H265.81V340.098H268.3V337.429Z" fill="#F0F0F0"/>
<path d="M264.34 297.109H261.85V299.779H264.34V297.109Z" fill="#F0F0F0"/>
<path d="M264.34 301.59H261.85V304.26H264.34V301.59Z" fill="#F0F0F0"/>
<path d="M264.34 306.071H261.85V308.741H264.34V306.071Z" fill="#F0F0F0"/>
<path d="M264.34 310.553H261.85V313.222H264.34V310.553Z" fill="#F0F0F0"/>
<path d="M264.34 315.034H261.85V317.703H264.34V315.034Z" fill="#F0F0F0"/>
<path d="M264.34 319.515H261.85V322.185H264.34V319.515Z" fill="#F0F0F0"/>
<path d="M264.34 323.996H261.85V326.666H264.34V323.996Z" fill="#F0F0F0"/>
<path d="M264.34 328.467H261.85V331.136H264.34V328.467Z" fill="#F0F0F0"/>
<path d="M264.34 332.948H261.85V335.617H264.34V332.948Z" fill="#F0F0F0"/>
<path d="M287.89 127.094H283.71V376.966H287.89V127.094Z" fill="#E0E0E0"/>
<path d="M366.6 127.094H362.42V376.966H366.6V127.094Z" fill="#E0E0E0"/>
<path d="M445.3 127.094H441.12V376.966H445.3V127.094Z" fill="#E0E0E0"/>
<path d="M147.82 352.609H173.6C174.77 352.609 175.892 353.107 176.719 353.994C177.546 354.881 178.01 356.083 178.01 357.337V410.757H143.42V357.38C143.415 356.756 143.525 356.138 143.743 355.56C143.962 354.982 144.285 354.456 144.694 354.013C145.103 353.569 145.59 353.217 146.126 352.976C146.663 352.735 147.239 352.611 147.82 352.609Z" fill="#F0F0F0"/>
<path d="M178.01 360.521H143.42V364.691H178.01V360.521Z" fill="#E6E6E6"/>
<path d="M163.09 403.756H171.71C172.338 403.756 172.941 404.024 173.386 404.5C173.83 404.977 174.08 405.623 174.08 406.297V410.799H160.71V406.297C160.71 405.962 160.771 405.631 160.891 405.322C161.011 405.013 161.186 404.732 161.408 404.496C161.629 404.26 161.891 404.073 162.18 403.946C162.468 403.819 162.778 403.755 163.09 403.756Z" fill="#E0E0E0"/>
<path d="M174.12 410.8H164.54C164.131 410.8 163.74 410.626 163.451 410.316C163.162 410.007 163 409.587 163 409.149C163.003 408.713 163.166 408.296 163.454 407.988C163.743 407.681 164.133 407.509 164.54 407.509H174.12C174.527 407.509 174.917 407.681 175.205 407.988C175.494 408.296 175.657 408.713 175.66 409.149C175.66 409.587 175.498 410.007 175.209 410.316C174.92 410.626 174.528 410.8 174.12 410.8Z" fill="#E6E6E6"/>
<path d="M327.714 115.371C340.372 112.168 348.212 98.5708 345.224 85.0003C342.237 71.4299 329.553 63.0253 316.894 66.2283C304.236 69.4312 296.396 83.0287 299.384 96.5991C302.372 110.17 315.055 118.574 327.714 115.371Z" fill="#E0E0E0"/>
<path d="M325.507 111.966C336.427 110.066 343.842 99.0358 342.069 87.3298C340.297 75.6238 330.008 67.6746 319.089 69.5748C308.17 71.4749 300.754 82.5049 302.527 94.2109C304.299 105.917 314.588 113.866 325.507 111.966Z" fill="#F0F0F0"/>
<path d="M323.25 76.0544V91.063L332.52 85.4348" fill="#F0F0F0"/>
<path d="M323.25 92.1029C323.071 92.1029 322.894 92.051 322.74 91.9529C322.591 91.858 322.467 91.7231 322.381 91.5614C322.295 91.3998 322.25 91.2169 322.25 91.0309V76.0223C322.25 75.738 322.355 75.4653 322.543 75.2642C322.73 75.0632 322.985 74.9503 323.25 74.9503C323.515 74.9503 323.77 75.0632 323.957 75.2642C324.145 75.4653 324.25 75.738 324.25 76.0223V89.2191L332.03 84.5022C332.261 84.3633 332.534 84.3282 332.789 84.4045C333.043 84.4809 333.26 84.6625 333.39 84.9095C333.52 85.1557 333.555 85.4471 333.485 85.7203C333.416 85.9934 333.249 86.2261 333.02 86.3675L323.74 91.9957C323.587 92.0717 323.419 92.1084 323.25 92.1029Z" fill="#E0E0E0"/>
<path d="M96.93 337.215C95.13 333.998 92.17 336.796 92.17 336.796C92.59 330.707 87.37 326.548 87.37 326.548C87.37 326.548 93.44 326.548 94.28 320.341C95.12 314.133 92.17 317.017 89.39 316.974C86.61 316.932 83.7 325.636 87.39 330.536C91.08 335.435 90.07 343.797 81.6 351.837C79.5746 353.869 78.0552 356.412 77.18 359.234C77.82 351.848 78.18 341.438 76.18 334.492C72.74 322.699 79.3 319.483 81.18 313.608C83.06 307.733 76.18 302.716 76.18 302.716C76.18 302.716 82.69 299.5 79.51 295.909C76.33 292.317 69.77 292.768 69.77 297.517C69.77 302.266 74.22 304.078 74.22 304.078C74.22 304.078 79.3 309.749 79.3 312.654C79.3 315.559 74.22 321.959 74.22 321.959C74.22 321.959 76.55 316.524 71.89 316.299C67.23 316.074 65.75 322.645 67.66 325.594C69.57 328.542 72.74 326.055 72.74 326.055C72.9389 329.496 73.4242 332.912 74.19 336.26C74.67 337.965 74.45 344.622 74.05 351.548C73.1657 349.048 71.7519 346.802 69.92 344.987C61.45 336.947 60.47 328.585 64.14 323.685C67.81 318.786 64.9 310.081 62.14 310.124C59.38 310.167 56.39 307.272 57.24 313.48C58.09 319.687 64.16 319.697 64.16 319.697C64.16 319.697 58.93 323.857 59.35 329.946C59.35 329.946 56.35 327.18 54.59 330.364C51.38 336.035 58.83 339.552 60.08 336.796C60.08 336.796 75.87 348.782 72.08 366.031L72.96 367.435C72.85 368.829 72.78 369.665 72.78 369.665L74.01 369.097L75.42 371.316C75.3707 373.824 75.4911 376.332 75.78 378.82L79.55 372.838C75.74 355.589 91.55 343.604 91.55 343.604C92.7 346.413 100.14 342.886 96.93 337.215Z" fill="#E0E0E0"/>
<path opacity="0.2" d="M96.93 337.215C95.13 333.998 92.17 336.796 92.17 336.796C92.59 330.707 87.37 326.548 87.37 326.548C87.37 326.548 93.44 326.548 94.28 320.341C95.12 314.133 92.17 317.017 89.39 316.974C86.61 316.932 83.7 325.636 87.39 330.536C91.08 335.435 90.07 343.797 81.6 351.837C79.5746 353.869 78.0552 356.412 77.18 359.234C77.82 351.848 78.18 341.438 76.18 334.492C72.74 322.699 79.3 319.483 81.18 313.608C83.06 307.733 76.18 302.716 76.18 302.716C76.18 302.716 82.69 299.5 79.51 295.909C76.33 292.317 69.77 292.768 69.77 297.517C69.77 302.266 74.22 304.078 74.22 304.078C74.22 304.078 79.3 309.749 79.3 312.654C79.3 315.559 74.22 321.959 74.22 321.959C74.22 321.959 76.55 316.524 71.89 316.299C67.23 316.074 65.75 322.645 67.66 325.594C69.57 328.542 72.74 326.055 72.74 326.055C72.9389 329.496 73.4242 332.912 74.19 336.26C74.67 337.965 74.45 344.622 74.05 351.548C73.1657 349.048 71.7519 346.802 69.92 344.987C61.45 336.947 60.47 328.585 64.14 323.685C67.81 318.786 64.9 310.081 62.14 310.124C59.38 310.167 56.39 307.272 57.24 313.48C58.09 319.687 64.16 319.697 64.16 319.697C64.16 319.697 58.93 323.857 59.35 329.946C59.35 329.946 56.35 327.18 54.59 330.364C51.38 336.035 58.83 339.552 60.08 336.796C60.08 336.796 75.87 348.782 72.08 366.031L72.96 367.435C72.85 368.829 72.78 369.665 72.78 369.665L74.01 369.097L75.42 371.316C75.3707 373.824 75.4911 376.332 75.78 378.82L79.55 372.838C75.74 355.589 91.55 343.604 91.55 343.604C92.7 346.413 100.14 342.886 96.93 337.215Z" fill="#E0E0E0"/>
<path d="M93.84 410.8H57.67L53.77 368.347H97.75L93.84 410.8Z" fill="#E6E6E6"/>
<path d="M99.6699 363.662H51.83V373.031H99.6699V363.662Z" fill="#F0F0F0"/>
<path d="M250 459.341C357.082 459.341 443.89 453.908 443.89 447.206C443.89 440.503 357.082 435.07 250 435.07C142.917 435.07 56.11 440.503 56.11 447.206C56.11 453.908 142.917 459.341 250 459.341Z" fill="#F5F5F5"/>
<path d="M410.45 413.415C410.6 412.343 414.1 386.432 407.09 377.491C406.392 376.549 405.508 375.784 404.502 375.252C403.495 374.72 402.391 374.434 401.27 374.414C387.11 374.061 385.18 386.207 385.16 386.368L386.83 386.646C386.89 386.207 388.57 375.926 401.23 376.226C402.112 376.239 402.98 376.464 403.77 376.883C404.561 377.302 405.254 377.906 405.8 378.649C412.32 386.979 408.8 412.879 408.8 413.147L410.45 413.415Z" fill="#407BFF"/>
<path d="M411.299 412.236L412.989 412.172C412.989 411.936 412.429 388.319 423.279 383.441C433.919 378.67 438.709 388.49 438.899 388.908L440.409 388.094C440.359 387.976 434.739 376.301 422.629 381.779C410.709 387.129 411.269 411.207 411.299 412.236Z" fill="#407BFF"/>
<path d="M411.25 414.091C411.25 413.715 411.36 376.365 418.15 365.441C424.67 354.946 435.15 359.888 435.64 360.081L436.329 358.43C436.209 358.377 424.069 352.63 416.74 364.412C409.67 375.787 409.57 412.504 409.57 414.069L411.25 414.091Z" fill="#407BFF"/>
<path d="M399.24 375.315C399.24 375.315 405.42 377.759 403.58 383.516C401.74 389.273 382.21 398.771 382.21 398.771C382.21 398.771 374.02 390.731 381.54 377.652C389.06 364.573 399.07 371.187 399.24 375.315Z" fill="#407BFF"/>
<path d="M418.449 363.469C418.449 363.469 414.069 362.965 414.449 360.103C414.829 357.24 431.509 349.865 441.359 361.786C441.359 361.786 435.049 373.407 425.929 373.578C416.809 373.75 418.449 363.469 418.449 363.469Z" fill="#407BFF"/>
<path d="M422.999 382.626C422.999 382.626 419.999 380.01 423.239 378.735C426.479 377.459 442.54 377.813 442.7 394.815C442.7 394.815 424.03 398.149 421.7 391.663C419.37 385.178 422.999 382.626 422.999 382.626Z" fill="#407BFF"/>
<path opacity="0.2" d="M399.24 375.315C399.24 375.315 405.42 377.759 403.58 383.516C401.74 389.273 382.21 398.771 382.21 398.771C382.21 398.771 374.02 390.731 381.54 377.652C389.06 364.573 399.07 371.187 399.24 375.315Z" fill="black"/>
<path opacity="0.2" d="M418.449 363.469C418.449 363.469 414.069 362.965 414.449 360.103C414.829 357.24 431.509 349.865 441.359 361.786C441.359 361.786 435.049 373.407 425.929 373.578C416.809 373.75 418.449 363.469 418.449 363.469Z" fill="black"/>
<path opacity="0.2" d="M422.999 382.626C422.999 382.626 419.999 380.01 423.239 378.735C426.479 377.459 442.54 377.813 442.7 394.815C442.7 394.815 424.03 398.149 421.7 391.663C419.37 385.178 422.999 382.626 422.999 382.626Z" fill="black"/>
<path d="M395.92 448.096H424.9L428.02 414.091H392.799L395.92 448.096Z" fill="#407BFF"/>
<path opacity="0.5" d="M395.92 448.096H424.9L428.02 414.091H392.799L395.92 448.096Z" fill="white"/>
<path d="M391.25 417.832H429.57V410.328H391.25V417.832Z" fill="#407BFF"/>
<path opacity="0.2" d="M391.25 417.832H429.57V410.328H391.25V417.832Z" fill="white"/>
<path d="M363.121 423.717L334.311 420.683V377.266H322.891V420.662L294.001 423.717C292.616 423.863 291.331 424.557 290.396 425.662C289.461 426.768 288.942 428.207 288.941 429.699V434.341H368.221V429.699C368.222 428.199 367.699 426.754 366.755 425.646C365.811 424.539 364.515 423.851 363.121 423.717Z" fill="#263238"/>
<path opacity="0.2" d="M363.121 423.717L334.311 420.683V377.266H322.891V420.662L294.001 423.717C292.616 423.863 291.331 424.557 290.396 425.662C289.461 426.768 288.942 428.207 288.941 429.699V434.341H368.221V429.699C368.222 428.199 367.699 426.754 366.755 425.646C365.811 424.539 364.515 423.851 363.121 423.717Z" fill="white"/>
<path d="M291.952 448.106C296.077 448.106 299.422 444.521 299.422 440.098C299.422 435.676 296.077 432.09 291.952 432.09C287.826 432.09 284.482 435.676 284.482 440.098C284.482 444.521 287.826 448.106 291.952 448.106Z" fill="#263238"/>
<path d="M365.141 448.106C369.267 448.106 372.611 444.521 372.611 440.098C372.611 435.676 369.267 432.09 365.141 432.09C361.016 432.09 357.671 435.676 357.671 440.098C357.671 444.521 361.016 448.106 365.141 448.106Z" fill="#263238"/>
<path d="M320.931 347.935H336.281V382.165C336.281 383.339 335.846 384.465 335.072 385.296C334.297 386.126 333.247 386.593 332.151 386.593H325.061C323.966 386.593 322.916 386.126 322.141 385.296C321.367 384.465 320.931 383.339 320.931 382.165V347.935Z" fill="#263238"/>
<path opacity="0.3" d="M320.931 347.935H336.281V382.165C336.281 383.339 335.846 384.465 335.072 385.296C334.297 386.126 333.247 386.593 332.151 386.593H325.061C323.966 386.593 322.916 386.126 322.141 385.296C321.367 384.465 320.931 383.339 320.931 382.165V347.935Z" fill="white"/>
<path d="M355.901 280.085C355.901 280.085 358.081 337.976 343.041 347.935H360.211C360.211 347.935 373.511 328.22 369.751 280.085H355.901Z" fill="#263238"/>
<path opacity="0.3" d="M355.901 280.085C355.901 280.085 358.081 337.976 343.041 347.935H360.211C360.211 347.935 373.511 328.22 369.751 280.085H355.901Z" fill="white"/>
<path d="M366.051 352.373H289.131V345.201C289.131 343.779 289.658 342.416 290.596 341.411C291.533 340.406 292.805 339.841 294.131 339.841H361.051C362.377 339.841 363.649 340.406 364.587 341.411C365.524 342.416 366.051 343.779 366.051 345.201V352.373Z" fill="#263238"/>
<path d="M287.931 352.373H367.241C368.351 352.373 369.251 351.408 369.251 350.218V348.267C369.251 347.077 368.351 346.112 367.241 346.112H287.931C286.821 346.112 285.921 347.077 285.921 348.267V350.218C285.921 351.408 286.821 352.373 287.931 352.373Z" fill="#263238"/>
<path opacity="0.6" d="M287.931 352.373H367.241C368.351 352.373 369.251 351.408 369.251 350.218V348.267C369.251 347.077 368.351 346.112 367.241 346.112H287.931C286.821 346.112 285.921 347.077 285.921 348.267V350.218C285.921 351.408 286.821 352.373 287.931 352.373Z" fill="white"/>
<path d="M373.961 249.05H346.461C338.409 249.05 331.881 256.048 331.881 264.68V276.215C331.881 284.848 338.409 291.846 346.461 291.846H373.961C382.014 291.846 388.541 284.848 388.541 276.215V264.68C388.541 256.048 382.014 249.05 373.961 249.05Z" fill="#263238"/>
<path d="M263.05 201.751L257.56 186.239C257.56 186.239 259.92 183.902 258.3 181.533C256.68 179.163 246.56 172.506 244.72 173.675C242.88 174.843 238.77 179.26 240.99 181.715C243.21 184.17 252.99 188.254 252.99 188.254L257.85 208.623L263.05 201.751Z" fill="#E4897B"/>
<path d="M301.38 231.243C301.38 231.243 276.38 225.744 273.71 224.425C271.04 223.106 261 191.556 261 191.556L253.29 195.416C253.29 195.416 259.49 227.084 265.83 234.609C272.17 242.135 299.23 248.546 299.23 248.546L301.38 231.243Z" fill="#407BFF"/>
<path opacity="0.2" d="M299.17 248.514L298.71 248.396C297.35 248.064 293.08 246.992 288.01 245.394C279.78 242.832 269.4 238.962 265.78 234.62C259.45 227.116 253.24 195.416 253.24 195.416L260.94 191.556C260.94 191.556 270.99 223.117 273.71 224.425C276.43 225.733 301.38 231.243 301.38 231.243L299.17 248.514Z" fill="black"/>
<path d="M261.07 190.934L262.66 194.226L252.76 197.881L253.14 193.861L261.07 190.934Z" fill="#407BFF"/>
<path opacity="0.2" d="M299.36 248.074C297.98 247.86 293.65 247.142 288.47 245.93C291.42 240.463 300.06 237.654 300.06 237.654L299.36 248.074Z" fill="black"/>
<path d="M336.58 209.395C336.58 209.395 338.05 224.221 332.93 227.866C327.81 231.511 302.6 227.244 299.74 221.273C296.88 215.302 307.64 199.114 307.64 199.114L336.58 209.395Z" fill="#263238"/>
<path d="M234.59 404.485L241.17 406.189L244.5 396.455L247.52 387.6L240.03 384.18L237.15 394.922L234.59 404.485Z" fill="#E4897B"/>
<path opacity="0.2" d="M237.15 394.922L244.5 396.455L247.52 387.6L240.03 384.18L237.15 394.922Z" fill="black"/>
<path d="M237.81 389.787L246.93 393.422C246.93 393.422 271.26 328.209 276.26 328.027C281.26 327.845 332.17 352.888 344.93 338.973C357.69 325.058 339.24 291.503 339.24 291.503C339.24 291.503 308.55 286.807 306.24 294.236C305.671 296.426 305.237 298.654 304.94 300.904C304.59 303.177 304.35 305.085 304.35 305.085C303.4 304.828 272.59 296.305 260.45 305.085C248.1 314.016 237.81 389.787 237.81 389.787Z" fill="#407BFF"/>
<path opacity="0.6" d="M237.81 389.787L246.93 393.422C246.93 393.422 271.26 328.209 276.26 328.027C281.26 327.845 332.17 352.888 344.93 338.973C357.69 325.058 339.24 291.503 339.24 291.503C339.24 291.503 308.55 286.807 306.24 294.236C305.671 296.426 305.237 298.654 304.94 300.904C304.59 303.177 304.35 305.085 304.35 305.085C303.4 304.828 272.59 296.305 260.45 305.085C248.1 314.016 237.81 389.787 237.81 389.787Z" fill="white"/>
<path d="M290.27 432.305L296.82 430.514L295.56 420.426L294.39 411.185L286.29 411.968L288.39 422.742L290.27 432.305Z" fill="#E4897B"/>
<path opacity="0.2" d="M288.44 422.956L295.6 420.619L294.41 411.282L286.3 412.022L288.44 422.956Z" fill="black"/>
<path d="M250.7 389.798L237.41 384.963L236.84 390.795L246.92 394.612L250.7 389.798Z" fill="#407BFF"/>
<path d="M322.89 342.274C322.89 342.274 320.81 342.328 288.62 340.72C288.62 340.72 293.43 383.859 296.06 416.16L286.43 417.918C286.43 417.918 263.43 348.76 263.68 337.772C263.93 326.783 275.68 323.567 275.68 323.567C275.68 323.567 298.61 337.772 322.89 342.274Z" fill="#407BFF"/>
<path opacity="0.6" d="M322.89 342.274C322.89 342.274 320.81 342.328 288.62 340.72C288.62 340.72 293.43 383.859 296.06 416.16L286.43 417.918C286.43 417.918 263.43 348.76 263.68 337.772C263.93 326.783 275.68 323.567 275.68 323.567C275.68 323.567 298.61 337.772 322.89 342.274Z" fill="white"/>
<path opacity="0.1" d="M322.89 342.274C322.89 342.274 320.81 342.328 288.62 340.72C288.62 340.72 293.43 383.859 296.06 416.16L286.43 417.918C286.43 417.918 263.43 348.76 263.68 337.772C263.93 326.783 275.68 323.567 275.68 323.567C275.68 323.567 298.61 337.772 322.89 342.274Z" fill="black"/>
<path d="M297.46 413.029L284.23 414.648L286.79 420.201L297.5 418.732L297.46 413.029Z" fill="#407BFF"/>
<path opacity="0.1" d="M304.35 305.085L322.3 309.095C322.3 309.095 312.38 303.22 304.94 300.904C304.59 303.177 304.35 305.085 304.35 305.085Z" fill="black"/>
<path d="M338.5 286.389L339.24 291.502L306.24 294.236L305.37 288.179L338.5 286.389Z" fill="#263238"/>
<path opacity="0.2" d="M338.5 286.389L339.24 291.502L306.24 294.236L305.37 288.179L338.5 286.389Z" fill="black"/>
<path d="M328.092 294.956L329.723 294.777L328.869 285.872L327.238 286.052L328.092 294.956Z" fill="#407BFF"/>
<path d="M313.431 294.067L320.656 293.569L320.304 287.696L313.079 288.194L313.431 294.067Z" fill="white"/>
<path d="M307.845 295.892L309.476 295.712L308.622 286.808L306.991 286.988L307.845 295.892Z" fill="#407BFF"/>
<path opacity="0.6" d="M328.092 294.956L329.723 294.777L328.869 285.872L327.238 286.052L328.092 294.956Z" fill="white"/>
<path opacity="0.6" d="M307.845 295.892L309.476 295.712L308.622 286.808L306.991 286.988L307.845 295.892Z" fill="white"/>
<path d="M300.78 230.761C306.961 232.591 313.376 233.348 319.78 233.001C330.38 232.422 343 237.901 343 237.901L338.46 286.357L305.32 288.147C305.32 288.147 294.23 247.72 300.78 230.761Z" fill="#407BFF"/>
<path d="M306.11 203.392C306.11 203.392 307.97 179.871 326.31 188.383C349.31 199.103 331.03 227.77 319.78 221.895C308.53 216.02 306.11 203.392 306.11 203.392Z" fill="#263238"/>
<path opacity="0.2" d="M311.25 234.32L311.78 247.613L315.89 241.363C315.89 241.363 314.42 256.061 315.28 264.069C315.28 264.069 316.07 249.714 317.93 241.363L322.3 247.613L328.57 234.406C328.57 234.406 318.42 230.493 311.25 234.32Z" fill="black"/>
<path d="M316.93 236.828L326.42 233.955C320.57 229.667 323.52 220.019 323.52 220.019L314.12 223.557C314.552 224.957 314.887 226.391 315.12 227.845C316.12 234.127 313.46 234.631 313.46 234.631L316.93 236.828Z" fill="#E4897B"/>
<path opacity="0.2" d="M314.12 223.503C314.552 224.904 314.886 226.337 315.12 227.791C319.62 225.851 323.51 219.944 323.51 219.944L314.12 223.503Z" fill="black"/>
<path d="M320.26 193.357C311.93 191.385 308.26 195.501 305.76 204.571C302.63 215.881 303.32 224.607 314.23 224.629C329.05 224.65 334.08 196.638 320.26 193.357Z" fill="#E4897B"/>
<path d="M311.24 205.353C310.302 206.528 309.234 207.576 308.06 208.473C308.228 208.902 308.504 209.273 308.857 209.544C309.21 209.815 309.627 209.975 310.06 210.006L311.24 205.353Z" fill="#DE5753"/>
<path d="M316.49 205.825C316.32 206.554 316.55 207.251 317.01 207.369C317.47 207.487 317.96 206.994 318.13 206.297C318.3 205.6 318.07 204.882 317.61 204.753C317.15 204.624 316.66 205.096 316.49 205.825Z" fill="#263238"/>
<path d="M317.79 204.807L316.46 203.799C316.46 203.799 316.89 205.332 317.79 204.807Z" fill="#263238"/>
<path d="M308.07 203.445C307.9 204.174 308.13 204.871 308.59 204.989C309.05 205.107 309.59 204.614 309.71 203.917C309.83 203.22 309.65 202.502 309.19 202.373C308.73 202.244 308.24 202.716 308.07 203.445Z" fill="#263238"/>
<path d="M309.37 202.427L308 201.451C308 201.451 308.47 202.941 309.37 202.427Z" fill="#263238"/>
<path d="M321.18 202.277C321.113 202.278 321.047 202.26 320.989 202.224C320.93 202.188 320.883 202.136 320.85 202.073C320.521 201.521 320.08 201.056 319.561 200.711C319.042 200.366 318.457 200.15 317.85 200.079C317.755 200.065 317.667 200.014 317.606 199.934C317.545 199.855 317.514 199.753 317.52 199.65C317.53 199.547 317.578 199.452 317.652 199.385C317.727 199.319 317.823 199.287 317.92 199.296C318.657 199.373 319.367 199.631 319.996 200.052C320.624 200.472 321.152 201.043 321.54 201.719C321.562 201.765 321.576 201.815 321.58 201.866C321.584 201.917 321.578 201.969 321.563 202.018C321.548 202.067 321.524 202.112 321.493 202.151C321.461 202.19 321.423 202.222 321.38 202.244C321.316 202.271 321.248 202.282 321.18 202.277Z" fill="#263238"/>
<path d="M311.87 198.235C311.802 198.234 311.736 198.211 311.68 198.171C311.188 197.918 310.65 197.786 310.105 197.786C309.56 197.786 309.021 197.918 308.53 198.171C308.487 198.19 308.44 198.199 308.394 198.199C308.347 198.198 308.301 198.188 308.258 198.168C308.215 198.148 308.176 198.119 308.144 198.082C308.112 198.046 308.086 198.003 308.07 197.956C308.052 197.909 308.043 197.859 308.043 197.808C308.044 197.757 308.054 197.707 308.072 197.66C308.091 197.613 308.118 197.57 308.152 197.535C308.186 197.499 308.226 197.471 308.27 197.452C308.867 197.154 309.52 197.007 310.179 197.022C310.838 197.037 311.485 197.213 312.07 197.538C312.11 197.565 312.145 197.601 312.172 197.643C312.2 197.685 312.219 197.732 312.229 197.782C312.24 197.831 312.24 197.883 312.232 197.933C312.223 197.983 312.206 198.031 312.18 198.074C312.144 198.126 312.097 198.168 312.043 198.196C311.989 198.224 311.93 198.237 311.87 198.235Z" fill="#263238"/>
<path d="M326.25 210.553C326.25 210.553 323.87 202.298 325.63 196.777C325.63 196.777 310.63 185.638 306.11 203.391C306.11 203.391 307.78 187.075 322.17 190.12C336.56 193.164 331.85 215.581 323.08 220.512C323.08 220.512 327.71 215.709 326.25 210.553Z" fill="#263238"/>
<path d="M324.5 212.172C324.793 211.157 325.449 210.309 326.324 209.812C327.2 209.316 328.223 209.212 329.17 209.524C331.69 210.435 331.74 216.406 325.05 216.245C324.08 216.17 323.76 215.088 324.5 212.172Z" fill="#E4897B"/>
<path d="M308.55 213.394C308.772 214.488 308.919 215.599 308.99 216.717H309.53C312.02 216.942 313.24 216.16 313.84 215.238C314.127 214.779 314.305 214.253 314.36 213.705C314.402 213.395 314.402 213.081 314.36 212.772C312.755 213.365 311.049 213.58 309.36 213.404C308.88 213.437 308.55 213.394 308.55 213.394Z" fill="#263238"/>
<path d="M309.4 213.458L309.55 214.433C311.89 214.637 313.55 214.433 314.36 213.758C314.402 213.449 314.402 213.135 314.36 212.825C312.767 213.412 311.077 213.628 309.4 213.458Z" fill="white"/>
<path d="M309.53 216.771C312.02 216.996 313.24 216.213 313.84 215.291C312.896 215.225 311.948 215.338 311.04 215.624C310.437 215.826 309.908 216.227 309.53 216.771Z" fill="#DE5753"/>
<path d="M320.29 194.076C320.29 194.076 320.61 209.545 329.29 211.41C337.97 213.276 328.49 191.513 328.49 191.513C328.49 191.513 315.59 182.487 306.99 188.855C298.39 195.223 306.13 203.392 306.13 203.392C306.13 203.392 307.92 191.899 320.29 194.076Z" fill="#263238"/>
<path d="M323.6 208.237C323.541 208.237 323.485 208.214 323.44 208.173C317.28 202.984 320.32 193.057 320.35 192.961C320.373 192.894 320.419 192.838 320.478 192.806C320.538 192.775 320.606 192.768 320.67 192.789C320.732 192.813 320.783 192.863 320.811 192.927C320.839 192.992 320.843 193.065 320.82 193.132C320.82 193.229 317.87 202.781 323.75 207.755C323.774 207.779 323.793 207.808 323.806 207.84C323.819 207.872 323.826 207.907 323.826 207.942C323.826 207.978 323.819 208.012 323.806 208.045C323.793 208.077 323.774 208.106 323.75 208.13C323.734 208.158 323.712 208.182 323.686 208.201C323.66 208.219 323.631 208.232 323.6 208.237Z" fill="#263238"/>
<path d="M331.8 214.584C330.7 217.735 327.87 219.504 325.48 218.55C323.09 217.596 322.05 214.262 323.15 211.11C324.25 207.958 327.08 206.19 329.47 207.154C331.86 208.119 332.9 211.443 331.8 214.584Z" fill="#407BFF"/>
<path opacity="0.4" d="M331.8 214.584C330.7 217.735 327.87 219.504 325.48 218.55C323.09 217.596 322.05 214.262 323.15 211.11C324.25 207.958 327.08 206.19 329.47 207.154C331.86 208.119 332.9 211.443 331.8 214.584Z" fill="black"/>
<path d="M329 209.427C329 209.427 332.59 192.199 324.54 187.686C325.457 187.815 326.365 188.004 327.26 188.254C328.26 188.576 334.73 195.566 331.48 211.046L329 209.427Z" fill="#407BFF"/>
<path opacity="0.2" d="M329 209.427C329 209.427 332.59 192.199 324.54 187.686C325.457 187.815 326.365 188.004 327.26 188.254C328.26 188.576 334.73 195.566 331.48 211.046L329 209.427Z" fill="black"/>
<path d="M314 219.29L313.4 219.193L313.56 218.121C317.976 218.85 322.489 217.824 326.25 215.238L326.84 216.095C323.058 218.782 318.499 219.916 314 219.29Z" fill="#407BFF"/>
<g opacity="0.2">
<path d="M314 219.29L313.4 219.193L313.56 218.121C317.976 218.85 322.489 217.824 326.25 215.238L326.84 216.095C323.058 218.782 318.499 219.916 314 219.29Z" fill="black"/>
</g>
<path d="M331.46 214.155C330.74 216.235 328.86 217.371 327.29 216.771C325.72 216.17 325.02 213.94 325.75 211.861C326.48 209.781 328.35 208.645 329.92 209.245C331.49 209.845 332.19 212.075 331.46 214.155Z" fill="#407BFF"/>
<path d="M313.06 219.676L312.25 219.558C312.109 219.538 311.972 219.489 311.849 219.412C311.725 219.335 311.617 219.233 311.531 219.112C311.444 218.99 311.381 218.851 311.345 218.704C311.309 218.556 311.3 218.402 311.32 218.25C311.337 218.097 311.383 217.95 311.453 217.817C311.524 217.683 311.619 217.566 311.733 217.472C311.847 217.378 311.976 217.31 312.115 217.27C312.253 217.231 312.398 217.221 312.54 217.242L313.34 217.36C313.625 217.403 313.883 217.564 314.059 217.808C314.235 218.053 314.314 218.362 314.28 218.668C314.24 218.974 314.09 219.251 313.862 219.439C313.634 219.628 313.346 219.713 313.06 219.676Z" fill="#407BFF"/>
<path opacity="0.4" d="M313.06 219.676L312.25 219.558C312.109 219.538 311.972 219.489 311.849 219.412C311.725 219.335 311.617 219.233 311.531 219.112C311.444 218.99 311.381 218.851 311.345 218.704C311.309 218.556 311.3 218.402 311.32 218.25C311.337 218.097 311.383 217.95 311.453 217.817C311.524 217.683 311.619 217.566 311.733 217.472C311.847 217.378 311.976 217.31 312.115 217.27C312.253 217.231 312.398 217.221 312.54 217.242L313.34 217.36C313.625 217.403 313.883 217.564 314.059 217.808C314.235 218.053 314.314 218.362 314.28 218.668C314.24 218.974 314.09 219.251 313.862 219.439C313.634 219.628 313.346 219.713 313.06 219.676Z" fill="black"/>
<path d="M323.87 230.235L317.93 236.485L320.31 244.161L328.57 234.406L323.87 230.235Z" fill="#407BFF"/>
<path d="M315.28 231.543L316.24 236.357L313.17 243.164L311.25 234.32L315.28 231.543Z" fill="#407BFF"/>
<path d="M322.6 235.66L326.05 222.12C326.05 222.12 324.38 218.754 324.74 218.046C325.1 217.339 326.9 208.248 328.18 207.262C329.46 206.275 334.73 207.958 335.26 208.88C335.79 209.802 330.21 222.12 330.21 222.12L328.21 236.796L322.6 235.66Z" fill="#E4897B"/>
<path d="M343 237.901C352.5 248.321 333.47 271.927 322.56 270.919C311.65 269.912 322.84 227.116 322.84 227.116L329.84 228.349C329.84 228.349 327.39 246.874 328.16 248.321C328.93 249.768 339.85 234.438 343 237.901Z" fill="#407BFF"/>
<path opacity="0.2" d="M343 237.901C352.5 248.321 333.47 271.927 322.56 270.919C311.65 269.912 322.84 227.116 322.84 227.116L329.84 228.349C329.84 228.349 327.39 246.874 328.16 248.321C328.93 249.768 339.85 234.438 343 237.901Z" fill="black"/>
<path d="M322.3 225.776L321.27 229.313L331 230.235V227.148L322.3 225.776Z" fill="#407BFF"/>
<path opacity="0.6" d="M307.55 253.767H303.61C303.174 253.767 302.82 254.146 302.82 254.614V262.59C302.82 263.057 303.174 263.436 303.61 263.436H307.55C307.986 263.436 308.34 263.057 308.34 262.59V254.614C308.34 254.146 307.986 253.767 307.55 253.767Z" fill="white"/>
<path opacity="0.2" d="M307.63 254.41H303.15V260.982H307.63V254.41Z" fill="black"/>
<path d="M305.99 251.44H305V255.31H305.99V251.44Z" fill="#263238"/>
<path d="M223.71 418.186C224.707 417.688 225.782 417.394 226.88 417.317C226.88 417.317 230.68 414.927 234.44 405.611H238.67C239.387 405.616 240.085 405.859 240.669 406.306C241.253 406.753 241.693 407.383 241.93 408.108C242.001 408.308 242.041 408.517 242.05 408.73C242 409.826 241.89 410.918 241.72 412C241.101 415.624 240.276 419.204 239.25 422.72L238.53 422.527L239.83 415.752C240.27 413.458 238.01 415.677 236.97 417.993C235.93 420.308 234.32 422.656 229.64 421.509C224.19 420.072 222 419.236 223.71 418.186Z" fill="#407BFF"/>
<path d="M235.21 403.177C235.21 403.177 229.92 415.034 226.88 417.317C226.88 417.317 230.96 419.922 235.21 414.101C240.7 406.597 242.05 408.687 242.05 408.687C241.935 407.393 241.711 406.112 241.38 404.86C240.56 402.459 235.21 403.177 235.21 403.177Z" fill="#E4897B"/>
<path d="M281.93 446.434C282.794 445.704 283.773 445.145 284.82 444.783C284.82 444.783 287.98 441.492 289.57 431.49L293.68 430.418C294.378 430.246 295.108 430.308 295.771 430.595C296.435 430.883 297 431.382 297.39 432.026C297.502 432.204 297.59 432.399 297.65 432.605C297.85 433.666 297.987 434.741 298.06 435.821C298.252 439.485 298.235 443.158 298.01 446.82H297.27L297.04 439.916C296.95 437.568 295.26 440.302 294.75 442.821C294.24 445.341 293.21 448.01 288.41 448.085C282.82 448.149 280.5 447.892 281.93 446.434Z" fill="#407BFF"/>
<path d="M289.78 428.927C289.78 428.927 287.27 441.792 284.78 444.783C284.78 444.783 289.32 446.284 292.16 439.562C295.84 430.879 297.61 432.572 297.61 432.572C297.215 431.344 296.716 430.156 296.12 429.024C294.82 426.88 289.78 428.927 289.78 428.927Z" fill="#E4897B"/>
<path d="M382.76 169.451H347.85C345.05 169.451 342.78 171.884 342.78 174.886V190.891C342.78 193.893 345.05 196.327 347.85 196.327H382.76C385.561 196.327 387.83 193.893 387.83 190.891V174.886C387.83 171.884 385.561 169.451 382.76 169.451Z" fill="#407BFF"/>
<path d="M354.85 193.261L344.33 208.591L361.3 194.29L354.85 193.261Z" fill="#407BFF"/>
<path d="M355.24 182.883C355.242 183.198 355.157 183.506 354.995 183.769C354.833 184.031 354.602 184.236 354.331 184.358C354.06 184.479 353.762 184.512 353.474 184.451C353.186 184.39 352.921 184.238 352.714 184.016C352.506 183.793 352.365 183.51 352.308 183.201C352.251 182.892 352.281 182.572 352.395 182.282C352.508 181.992 352.699 181.744 352.944 181.57C353.189 181.397 353.476 181.305 353.77 181.307C354.16 181.307 354.534 181.473 354.809 181.769C355.085 182.065 355.24 182.465 355.24 182.883Z" fill="white"/>
<path d="M362.93 182.883C362.932 183.198 362.847 183.506 362.685 183.769C362.523 184.031 362.292 184.236 362.021 184.358C361.75 184.479 361.452 184.512 361.164 184.451C360.876 184.39 360.611 184.238 360.404 184.016C360.196 183.793 360.055 183.51 359.998 183.201C359.941 182.892 359.971 182.572 360.085 182.282C360.198 181.992 360.389 181.744 360.634 181.57C360.879 181.397 361.166 181.305 361.46 181.307C361.85 181.307 362.224 181.473 362.499 181.769C362.775 182.065 362.93 182.465 362.93 182.883Z" fill="white"/>
<path d="M370.62 182.883C370.622 183.198 370.537 183.506 370.375 183.769C370.213 184.031 369.982 184.236 369.711 184.358C369.44 184.479 369.142 184.512 368.854 184.451C368.566 184.39 368.301 184.238 368.094 184.016C367.886 183.793 367.745 183.51 367.688 183.201C367.631 182.892 367.661 182.572 367.775 182.282C367.888 181.992 368.079 181.744 368.324 181.57C368.569 181.397 368.856 181.305 369.15 181.307C369.54 181.307 369.914 181.473 370.189 181.769C370.465 182.065 370.62 182.465 370.62 182.883Z" fill="white"/>
<path d="M378.31 182.883C378.312 183.198 378.227 183.506 378.065 183.769C377.903 184.031 377.672 184.236 377.401 184.358C377.13 184.479 376.832 184.512 376.544 184.451C376.256 184.39 375.991 184.238 375.784 184.016C375.576 183.793 375.435 183.51 375.378 183.201C375.321 182.892 375.351 182.572 375.465 182.282C375.578 181.992 375.769 181.744 376.014 181.57C376.259 181.397 376.546 181.305 376.84 181.307C377.23 181.307 377.604 181.473 377.879 181.769C378.155 182.065 378.31 182.465 378.31 182.883Z" fill="white"/>
<path d="M251.674 156.777L226.767 142.394C226.096 142.007 225.259 142.276 224.898 142.995L216.95 158.813C216.588 159.533 216.839 160.43 217.51 160.817L242.417 175.2C243.088 175.588 243.925 175.319 244.286 174.599L252.234 158.781C252.596 158.062 252.345 157.164 251.674 156.777Z" fill="#407BFF"/>
<path opacity="0.7" d="M251.674 156.777L226.767 142.394C226.096 142.007 225.259 142.276 224.898 142.995L216.95 158.813C216.588 159.533 216.839 160.43 217.51 160.817L242.417 175.2C243.088 175.588 243.925 175.319 244.286 174.599L252.234 158.781C252.596 158.062 252.345 157.164 251.674 156.777Z" fill="white"/>
<path opacity="0.2" d="M224.25 144.301L232 159.899C232.297 160.493 232.753 160.979 233.308 161.296C233.863 161.613 234.494 161.746 235.12 161.678L251.33 159.963L234.83 162.568C234.109 162.682 233.373 162.544 232.731 162.173C232.089 161.802 231.577 161.219 231.27 160.51L224.25 144.301Z" fill="black"/>
<path d="M205.34 141.417C205.61 135.456 209.73 123.439 214.74 119.762C219.75 116.084 216.45 121.177 216.45 121.177C216.45 121.177 221.2 116.224 223.7 116.374C226.2 116.524 223.7 119.59 223.7 119.59C223.7 119.59 228.85 116.192 231.22 116.374C233.59 116.556 231.22 119.494 231.22 119.494C231.22 119.494 235.44 116.277 237.15 117.789C238.86 119.301 215.26 136.014 212.63 142.81C210 149.607 205.07 147.431 205.34 141.417Z" fill="#407BFF"/>
<path opacity="0.4" d="M205.34 141.417C205.61 135.456 209.73 123.439 214.74 119.762C219.75 116.084 216.45 121.177 216.45 121.177C216.45 121.177 221.2 116.224 223.7 116.374C226.2 116.524 223.7 119.59 223.7 119.59C223.7 119.59 228.85 116.192 231.22 116.374C233.59 116.556 231.22 119.494 231.22 119.494C231.22 119.494 235.44 116.277 237.15 117.789C238.86 119.301 215.26 136.014 212.63 142.81C210 149.607 205.07 147.431 205.34 141.417Z" fill="white"/>
<path d="M225.62 140.516L228.77 142.66C228.82 142.693 228.858 142.743 228.878 142.802C228.898 142.861 228.898 142.926 228.88 142.985C228.861 143.045 228.825 143.096 228.776 143.13C228.727 143.165 228.668 143.18 228.61 143.175L225.3 142.896L225.58 145.619C225.588 145.683 225.577 145.749 225.548 145.805C225.518 145.862 225.473 145.907 225.417 145.933C225.362 145.96 225.301 145.967 225.242 145.953C225.183 145.938 225.13 145.904 225.09 145.855L223.18 143.561L225.62 140.516Z" fill="#407BFF"/>
<path opacity="0.3" d="M225.62 140.516L228.77 142.66C228.82 142.693 228.858 142.743 228.878 142.802C228.898 142.861 228.898 142.926 228.88 142.985C228.861 143.045 228.825 143.096 228.776 143.13C228.727 143.165 228.668 143.18 228.61 143.175L225.3 142.896L225.58 145.619C225.588 145.683 225.577 145.749 225.548 145.805C225.518 145.862 225.473 145.907 225.417 145.933C225.362 145.96 225.301 145.967 225.242 145.953C225.183 145.938 225.13 145.904 225.09 145.855L223.18 143.561L225.62 140.516Z" fill="white"/>
<path d="M181.37 127.094C181.37 127.094 185.73 123.878 192.32 125.958C192.32 125.958 194.21 135.295 199.4 138.404C202.25 140.109 209.22 139.959 214.74 138.051C221.29 135.778 224.49 135.778 225.68 138.404C226.87 141.031 225.55 143.765 220.54 145.04C215.53 146.316 211.54 155.643 202.47 155.761C193.4 155.879 188.58 146.112 190.87 137.536C188.702 133.152 185.404 129.527 181.37 127.094Z" fill="#407BFF"/>
<path opacity="0.5" d="M181.37 127.094C181.37 127.094 185.73 123.878 192.32 125.958C192.32 125.958 194.21 135.295 199.4 138.404C202.25 140.109 209.22 139.959 214.74 138.051C221.29 135.778 224.49 135.778 225.68 138.404C226.87 141.031 225.55 143.765 220.54 145.04C215.53 146.316 211.54 155.643 202.47 155.761C193.4 155.879 188.58 146.112 190.87 137.536C188.702 133.152 185.404 129.527 181.37 127.094Z" fill="white"/>
<path d="M223.18 140.173C223.18 140.269 223.154 140.362 223.104 140.441C223.055 140.521 222.985 140.582 222.902 140.619C222.82 140.655 222.73 140.665 222.642 140.646C222.555 140.628 222.475 140.582 222.412 140.514C222.349 140.447 222.306 140.361 222.289 140.267C222.271 140.174 222.28 140.077 222.314 139.989C222.349 139.9 222.406 139.825 222.48 139.772C222.554 139.719 222.641 139.691 222.73 139.691C222.85 139.691 222.964 139.742 223.048 139.832C223.133 139.923 223.18 140.045 223.18 140.173Z" fill="#263238"/>
<path d="M200.36 148.021C194.99 149.586 183.05 149.093 178.25 145.126C173.45 141.16 178.97 142.982 178.97 142.982C178.97 142.982 173.12 139.669 172.47 137.075C171.82 134.481 175.35 136.067 175.35 136.067C175.35 136.067 170.75 131.876 170.15 129.41C169.55 126.944 172.91 128.445 172.91 128.445C172.91 128.445 168.72 125.143 169.57 122.924C170.42 120.705 192.51 139.616 199.34 140.205C206.17 140.795 205.8 146.434 200.36 148.021Z" fill="#407BFF"/>
<path opacity="0.4" d="M200.36 148.021C194.99 149.586 183.05 149.093 178.25 145.126C173.45 141.16 178.97 142.982 178.97 142.982C178.97 142.982 173.12 139.669 172.47 137.075C171.82 134.481 175.35 136.067 175.35 136.067C175.35 136.067 170.75 131.876 170.15 129.41C169.55 126.944 172.91 128.445 172.91 128.445C172.91 128.445 168.72 125.143 169.57 122.924C170.42 120.705 192.51 139.616 199.34 140.205C206.17 140.795 205.8 146.434 200.36 148.021Z" fill="white"/>
<path d="M165.16 121.938C165.121 121.948 165.079 121.948 165.04 121.938C164.11 121.584 163.16 121.252 162.2 120.941C162.105 120.909 162.026 120.838 161.979 120.744C161.932 120.649 161.922 120.539 161.95 120.437C161.98 120.335 162.046 120.25 162.134 120.2C162.222 120.15 162.324 120.139 162.42 120.169C163.42 120.48 164.35 120.823 165.29 121.241C165.374 121.272 165.444 121.333 165.489 121.415C165.534 121.497 165.55 121.593 165.535 121.687C165.519 121.78 165.472 121.864 165.404 121.924C165.335 121.984 165.248 122.015 165.16 122.013V121.938Z" fill="#407BFF"/>
<path d="M104.72 208.955C104.621 208.955 104.526 208.914 104.455 208.84C104.384 208.766 104.343 208.665 104.34 208.559C104.34 208.452 104.379 208.35 104.448 208.274C104.517 208.198 104.611 208.154 104.71 208.151C106.699 208.121 108.683 207.913 110.64 207.529C110.738 207.511 110.839 207.534 110.921 207.594C111.004 207.654 111.061 207.746 111.08 207.851C111.09 207.903 111.09 207.957 111.081 208.009C111.071 208.062 111.052 208.111 111.024 208.155C110.996 208.199 110.96 208.237 110.918 208.266C110.876 208.294 110.829 208.314 110.78 208.323C108.78 208.715 106.753 208.927 104.72 208.955ZM98.7201 208.612C96.7022 208.381 94.6987 208.024 92.7201 207.54C92.6221 207.517 92.5367 207.453 92.4824 207.363C92.428 207.273 92.4092 207.163 92.4301 207.058C92.4538 206.955 92.5142 206.866 92.5982 206.81C92.6822 206.754 92.7834 206.735 92.8801 206.758C94.8274 207.228 96.7969 207.586 98.7801 207.83C98.869 207.845 98.9499 207.894 99.0082 207.968C99.0666 208.042 99.0986 208.135 99.0986 208.232C99.0986 208.328 99.0666 208.422 99.0082 208.495C98.9499 208.569 98.869 208.618 98.7801 208.634L98.7201 208.612ZM116.49 206.468C116.418 206.469 116.348 206.446 116.287 206.405C116.227 206.363 116.179 206.303 116.15 206.232C116.129 206.184 116.116 206.131 116.114 206.078C116.112 206.024 116.12 205.971 116.138 205.921C116.156 205.871 116.183 205.825 116.218 205.786C116.252 205.748 116.294 205.717 116.34 205.696C118.156 204.857 119.842 203.725 121.34 202.341C121.417 202.278 121.513 202.249 121.608 202.259C121.704 202.27 121.793 202.318 121.856 202.396C121.92 202.474 121.953 202.574 121.95 202.677C121.947 202.781 121.908 202.879 121.84 202.952C120.282 204.385 118.533 205.559 116.65 206.436C116.595 206.469 116.533 206.487 116.47 206.49L116.49 206.468ZM87.0001 205.739C86.9607 205.75 86.9195 205.75 86.8801 205.739C84.9801 205.064 83.0701 204.271 81.2201 203.402C81.1381 203.352 81.0765 203.271 81.0472 203.175C81.018 203.078 81.0233 202.974 81.0619 202.881C81.1006 202.789 81.17 202.716 81.2566 202.675C81.3431 202.635 81.4406 202.63 81.5301 202.662C83.3501 203.52 85.2301 204.303 87.1201 204.978C87.2136 205.014 87.2901 205.089 87.3331 205.185C87.3761 205.281 87.3822 205.392 87.3501 205.493C87.3218 205.567 87.2732 205.63 87.2107 205.674C87.1483 205.718 87.0748 205.741 87.0001 205.739ZM76.0001 200.529C75.9414 200.548 75.8787 200.548 75.8201 200.529C74.0301 199.457 72.2901 198.299 70.6701 197.088C70.63 197.058 70.5959 197.019 70.5697 196.975C70.5435 196.93 70.5257 196.881 70.5174 196.829C70.509 196.777 70.5102 196.724 70.521 196.673C70.5318 196.622 70.5518 196.573 70.5801 196.53C70.6083 196.487 70.6441 196.451 70.6855 196.423C70.727 196.395 70.7731 196.376 70.8214 196.367C70.8697 196.358 70.9192 196.359 70.967 196.371C71.0148 196.382 71.06 196.404 71.1001 196.434C72.7001 197.624 74.4101 198.771 76.1901 199.832C76.2331 199.858 76.271 199.892 76.3014 199.934C76.3319 199.976 76.3543 200.023 76.3673 200.074C76.3803 200.125 76.3838 200.178 76.3774 200.231C76.371 200.283 76.3549 200.333 76.3301 200.379C76.2878 200.448 76.2272 200.503 76.1559 200.535C76.0847 200.568 76.0061 200.577 75.9301 200.561L76.0001 200.529ZM125.44 198.074C125.381 198.093 125.319 198.093 125.26 198.074C125.217 198.048 125.179 198.014 125.149 197.972C125.118 197.931 125.096 197.883 125.083 197.832C125.07 197.781 125.066 197.728 125.073 197.676C125.079 197.623 125.095 197.573 125.12 197.527C125.43 196.948 125.72 196.348 125.98 195.726C126.537 194.414 126.972 193.046 127.28 191.642C127.306 191.538 127.368 191.449 127.454 191.393C127.54 191.337 127.642 191.319 127.74 191.342C127.836 191.369 127.919 191.437 127.969 191.529C128.02 191.621 128.034 191.731 128.01 191.835C127.684 193.285 127.232 194.699 126.66 196.059C126.39 196.702 126.09 197.334 125.77 197.935C125.727 198.003 125.666 198.057 125.595 198.087C125.524 198.118 125.445 198.124 125.37 198.106L125.44 198.074ZM66.1401 193.121C66.052 193.12 65.9672 193.086 65.9001 193.025C64.3771 191.583 62.9503 190.028 61.6301 188.372C61.561 188.296 61.5224 188.194 61.5224 188.088C61.5224 187.982 61.561 187.88 61.6301 187.804C61.6993 187.731 61.7927 187.69 61.89 187.69C61.9874 187.69 62.0808 187.731 62.1501 187.804C63.4464 189.425 64.8465 190.947 66.34 192.36C66.4091 192.436 66.4477 192.538 66.4477 192.644C66.4477 192.75 66.4091 192.852 66.34 192.928C66.3153 192.986 66.2778 193.037 66.2308 193.076C66.1838 193.116 66.1286 193.142 66.0701 193.153L66.1401 193.121ZM128.32 185.681C128.271 185.681 128.222 185.671 128.176 185.65C128.131 185.63 128.089 185.599 128.055 185.561C128.02 185.523 127.993 185.478 127.975 185.429C127.957 185.38 127.949 185.327 127.95 185.274C127.936 183.142 127.752 181.015 127.4 178.917C127.382 178.812 127.404 178.703 127.46 178.615C127.516 178.527 127.602 178.466 127.7 178.445C127.799 178.429 127.9 178.455 127.982 178.517C128.064 178.579 128.121 178.672 128.14 178.777C128.5 180.922 128.687 183.095 128.7 185.274C128.7 185.382 128.66 185.486 128.589 185.562C128.518 185.638 128.421 185.681 128.32 185.681ZM126.32 172.967C126.239 172.966 126.161 172.938 126.096 172.885C126.031 172.833 125.984 172.761 125.96 172.677C125.45 170.801 124.82 168.807 124.05 166.578C124.031 166.528 124.022 166.474 124.022 166.42C124.023 166.366 124.034 166.313 124.055 166.264C124.075 166.215 124.105 166.171 124.142 166.134C124.179 166.098 124.223 166.07 124.27 166.052C124.363 166.017 124.465 166.022 124.555 166.066C124.644 166.11 124.714 166.19 124.75 166.288C125.53 168.539 126.16 170.576 126.68 172.442C126.708 172.544 126.698 172.654 126.651 172.748C126.604 172.843 126.525 172.913 126.43 172.945L126.32 172.967ZM122.18 160.799C122.111 160.8 122.043 160.779 121.984 160.739C121.926 160.699 121.879 160.642 121.85 160.574C121.21 158.859 120.34 156.886 119.43 154.796V154.689C119.404 154.595 119.41 154.495 119.447 154.406C119.484 154.317 119.55 154.245 119.632 154.203C119.715 154.162 119.808 154.153 119.896 154.179C119.983 154.206 120.06 154.264 120.11 154.346V154.453C121.03 156.597 121.89 158.537 122.53 160.22C122.57 160.321 122.572 160.435 122.535 160.538C122.497 160.64 122.424 160.722 122.33 160.767L122.18 160.799ZM117.18 149.007C117.106 149.009 117.034 148.988 116.971 148.946C116.909 148.904 116.86 148.843 116.83 148.771C115.93 146.53 115.21 144.547 114.64 142.714C114.608 142.613 114.614 142.502 114.657 142.406C114.7 142.31 114.777 142.236 114.87 142.199C114.966 142.165 115.07 142.173 115.16 142.222C115.25 142.27 115.318 142.354 115.35 142.457C115.91 144.268 116.62 146.23 117.52 148.449C117.54 148.498 117.55 148.55 117.551 148.603C117.551 148.656 117.542 148.708 117.523 148.757C117.505 148.806 117.477 148.851 117.442 148.888C117.407 148.925 117.366 148.955 117.32 148.975C117.287 149.013 117.246 149.042 117.2 149.06L117.18 149.007ZM113.52 136.721C113.431 136.72 113.344 136.685 113.277 136.622C113.209 136.559 113.164 136.473 113.15 136.378C112.978 135.229 112.892 134.068 112.89 132.905C112.882 131.865 112.969 130.828 113.15 129.807C113.179 129.711 113.239 129.631 113.32 129.581C113.4 129.53 113.496 129.513 113.587 129.533C113.678 129.553 113.76 129.608 113.816 129.688C113.872 129.768 113.898 129.868 113.89 129.967C113.717 130.935 113.633 131.919 113.64 132.905C113.643 134.028 113.727 135.15 113.89 136.26C113.902 136.365 113.877 136.47 113.819 136.556C113.762 136.641 113.676 136.7 113.58 136.721H113.52ZM116.13 124.543C116.043 124.545 115.958 124.515 115.89 124.457C115.821 124.381 115.782 124.279 115.782 124.173C115.782 124.067 115.821 123.965 115.89 123.889C117.233 122.207 118.866 120.82 120.7 119.804C120.788 119.754 120.89 119.743 120.986 119.773C121.081 119.803 121.162 119.872 121.21 119.965C121.253 120.061 121.261 120.171 121.231 120.273C121.201 120.374 121.137 120.46 121.05 120.512C119.304 121.48 117.748 122.802 116.47 124.403C116.437 124.463 116.39 124.512 116.334 124.546C116.278 124.579 116.214 124.597 116.15 124.596L116.13 124.543ZM156.45 119.29H156.37C154.45 118.861 152.46 118.497 150.45 118.218C150.401 118.211 150.354 118.194 150.312 118.168C150.269 118.142 150.232 118.107 150.202 118.065C150.172 118.023 150.15 117.975 150.138 117.924C150.126 117.873 150.123 117.82 150.13 117.768C150.136 117.715 150.152 117.665 150.177 117.619C150.201 117.573 150.234 117.534 150.273 117.502C150.312 117.47 150.357 117.446 150.404 117.433C150.452 117.42 150.501 117.417 150.55 117.425C152.55 117.703 154.55 118.068 156.55 118.497C156.64 118.519 156.719 118.575 156.773 118.655C156.827 118.735 156.852 118.833 156.843 118.931C156.835 119.03 156.793 119.121 156.726 119.189C156.66 119.257 156.572 119.297 156.48 119.301L156.45 119.29ZM126.45 118.379C126.401 118.384 126.352 118.38 126.305 118.365C126.259 118.35 126.215 118.326 126.177 118.293C126.139 118.26 126.107 118.219 126.084 118.173C126.06 118.127 126.045 118.077 126.04 118.025C126.035 117.973 126.039 117.92 126.053 117.87C126.067 117.82 126.09 117.773 126.12 117.732C126.151 117.691 126.189 117.657 126.232 117.632C126.274 117.607 126.321 117.591 126.37 117.585C128.345 117.11 130.351 116.799 132.37 116.653C132.469 116.647 132.567 116.683 132.641 116.753C132.716 116.823 132.762 116.922 132.77 117.028C132.774 117.081 132.768 117.134 132.753 117.185C132.737 117.235 132.712 117.282 132.68 117.322C132.647 117.362 132.607 117.394 132.563 117.417C132.518 117.441 132.47 117.454 132.42 117.457C130.434 117.594 128.461 117.899 126.52 118.368L126.45 118.379ZM144.45 117.628C142.71 117.5 140.64 117.36 138.45 117.317C138.351 117.315 138.257 117.27 138.188 117.194C138.119 117.118 138.08 117.016 138.08 116.91C138.08 116.857 138.09 116.804 138.109 116.756C138.128 116.707 138.157 116.663 138.192 116.626C138.227 116.589 138.269 116.56 138.315 116.54C138.361 116.521 138.411 116.512 138.46 116.513C140.67 116.567 142.76 116.696 144.46 116.824C144.51 116.827 144.558 116.84 144.603 116.863C144.647 116.887 144.687 116.919 144.72 116.959C144.752 116.999 144.777 117.046 144.793 117.096C144.808 117.147 144.814 117.2 144.81 117.253C144.817 117.35 144.792 117.446 144.739 117.525C144.686 117.603 144.608 117.659 144.52 117.682L144.45 117.628Z" fill="#407BFF"/>
<path d="M58.36 183.226C58.293 183.228 58.2269 183.209 58.1687 183.174C58.1106 183.138 58.0627 183.086 58.03 183.023C57.5243 182.081 57.0735 181.108 56.68 180.107C56.6604 180.058 56.65 180.006 56.6495 179.953C56.649 179.9 56.6583 179.848 56.6769 179.799C56.6955 179.75 56.7231 179.706 56.758 179.668C56.7929 179.631 56.8344 179.601 56.88 179.581C56.9717 179.542 57.0741 179.542 57.1656 179.582C57.2571 179.622 57.3304 179.699 57.37 179.796C57.7562 180.765 58.1936 181.71 58.68 182.626C58.7174 182.686 58.7385 182.755 58.7409 182.827C58.7433 182.899 58.727 182.97 58.6937 183.033C58.6604 183.095 58.6116 183.146 58.5526 183.18C58.4937 183.215 58.427 183.231 58.36 183.226Z" fill="#407BFF"/>
<path d="M179.81 267.961H141.85V276.301H179.81V267.961Z" fill="white"/>
<path opacity="0.1" d="M179.81 267.961H141.85V276.301H179.81V267.961Z" fill="black"/>
<path opacity="0.1" d="M157.84 267.961H141.85V276.301H157.84V267.961Z" fill="black"/>
<path opacity="0.1" d="M141.85 269.161H175.64L141.85 270.19V269.161Z" fill="black"/>
<path opacity="0.1" d="M179.81 270.608L150.52 271.391H179.81V270.608Z" fill="black"/>
<path opacity="0.1" d="M143.4 272.946L157.84 272.313L179.07 272.946L157.84 273.299L143.4 272.946Z" fill="black"/>
<path opacity="0.1" d="M141.85 274.714H166.87L141.85 275.347V274.714Z" fill="black"/>
<path opacity="0.1" d="M179.75 275.347L163.04 275.679H179.81L179.75 275.347Z" fill="black"/>
<path d="M174.53 259.62H136.57V267.961H174.53V259.62Z" fill="white"/>
<path opacity="0.1" d="M174.53 259.62H136.57V267.961H174.53V259.62Z" fill="black"/>
<path opacity="0.1" d="M152.56 259.62H136.57V267.961H152.56V259.62Z" fill="black"/>
<path opacity="0.1" d="M136.57 260.821H170.36L136.57 261.839V260.821Z" fill="black"/>
<path opacity="0.1" d="M174.53 262.268L145.24 263.051H174.53V262.268Z" fill="black"/>
<path opacity="0.1" d="M138.11 264.605L152.55 263.962L173.78 264.605L152.55 264.959L138.11 264.605Z" fill="black"/>
<path opacity="0.1" d="M136.57 266.363H161.59L136.57 267.006V266.363Z" fill="black"/>
<path opacity="0.1" d="M174.47 267.006L157.76 267.339H174.53L174.47 267.006Z" fill="black"/>
<path d="M178.86 251.269H140.9V259.609H178.86V251.269Z" fill="white"/>
<path opacity="0.1" d="M178.86 251.269H140.9V259.609H178.86V251.269Z" fill="black"/>
<path opacity="0.1" d="M156.89 251.269H140.9V259.609H156.89V251.269Z" fill="black"/>
<path opacity="0.1" d="M140.9 252.47H174.69L140.9 253.499V252.47Z" fill="black"/>
<path opacity="0.1" d="M178.86 253.917L149.57 254.699H178.86V253.917Z" fill="black"/>
<path opacity="0.1" d="M142.45 256.254L156.89 255.621L178.12 256.254L156.89 256.608L142.45 256.254Z" fill="black"/>
<path opacity="0.1" d="M140.9 258.023H165.92L140.9 258.655V258.023Z" fill="black"/>
<path opacity="0.1" d="M178.81 258.655L162.1 258.988H178.86L178.81 258.655Z" fill="black"/>
<path d="M204.15 276.13L205.13 272.131H245.69L264.36 274.136L265.07 276.13H204.15Z" fill="#263238"/>
<path opacity="0.4" d="M245.69 272.131V276.13H204.15L205.13 272.131H245.69Z" fill="black"/>
<path d="M237.54 252.995C237.594 253.48 237.551 253.971 237.413 254.437C237.276 254.902 237.047 255.331 236.742 255.693C236.436 256.056 236.063 256.344 235.645 256.539C235.227 256.734 234.775 256.83 234.32 256.822H172.2C171.229 256.799 170.298 256.398 169.582 255.694C168.866 254.99 168.414 254.03 168.31 252.995L164.62 210.36C164.58 209.943 164.607 209.523 164.7 209.116C164.872 208.368 165.277 207.704 165.848 207.234C166.418 206.765 167.121 206.517 167.84 206.533H230C230.971 206.555 231.902 206.956 232.618 207.66C233.334 208.365 233.786 209.324 233.89 210.36L237.54 252.995Z" fill="#263238"/>
<path opacity="0.4" d="M234.1 256.822H172.2C171.229 256.799 170.298 256.399 169.582 255.694C168.866 254.99 168.414 254.03 168.31 252.995L164.62 210.36C164.58 209.943 164.607 209.523 164.7 209.116H226.6C227.571 209.139 228.502 209.54 229.218 210.244C229.934 210.948 230.386 211.908 230.49 212.943L234.18 255.578C234.22 255.995 234.193 256.415 234.1 256.822Z" fill="black"/>
<path d="M191.42 230.675H204.27L200.85 270.115L221.17 273.385V276.129H178.37V273.385L187.14 270.115L191.42 230.675Z" fill="#263238"/>
<path opacity="0.1" d="M204.27 230.675L194.75 275.508L187.14 275.261L191.42 230.675H204.27Z" fill="white"/>
<path d="M204.21 448.096H198.09L187.08 283.805H195.21L204.21 448.096Z" fill="#263238"/>
<path opacity="0.4" d="M204.22 448.096H198.09L187.62 291.974L187.08 284.073H195.21L195.65 291.974L204.22 448.096Z" fill="white"/>
<path opacity="0.2" d="M195.65 291.578H187.62L187.08 284.073H195.21L195.65 291.578Z" fill="black"/>
<path d="M249.17 448.096H243.05L242.05 283.805H250.17L249.17 448.096Z" fill="#263238"/>
<path opacity="0.5" d="M250.18 284.073L250.02 310.585L249.18 448.096H243.05L242.21 310.585L242.05 284.073H250.18Z" fill="white"/>
<path opacity="0.2" d="M250.18 284.073L250.02 310.875H242.21L242.05 284.073H250.18Z" fill="black"/>
<path d="M314.21 448.096H308.09L297.08 283.805H305.21L314.21 448.096Z" fill="#263238"/>
<path opacity="0.5" d="M314.22 448.096H308.09L297.62 291.974L297.08 284.073H305.21L305.65 291.974L314.22 448.096Z" fill="white"/>
<path opacity="0.2" d="M305.65 291.578H297.62L297.08 284.073H305.21L305.65 291.578Z" fill="black"/>
<path d="M134.13 448.096H128.01L137.01 283.805H145.14L134.13 448.096Z" fill="#263238"/>
<path opacity="0.5" d="M145.14 284.073L144.6 291.974L134.13 448.096H128.01L136.57 291.974L137.01 284.073H145.14Z" fill="white"/>
<path opacity="0.2" d="M137.01 284.073H145.14L144.6 291.578H136.57L137.01 284.073Z" fill="black"/>
<path d="M130.57 279.71H311.65V285.617C311.65 285.921 311.594 286.222 311.485 286.503C311.377 286.784 311.218 287.04 311.017 287.255C310.817 287.47 310.578 287.64 310.316 287.757C310.054 287.873 309.773 287.933 309.49 287.933H132.73C132.157 287.933 131.608 287.689 131.203 287.255C130.798 286.82 130.57 286.231 130.57 285.617V279.71Z" fill="#407BFF"/>
<path opacity="0.6" d="M130.57 279.71H311.65V285.617C311.65 285.921 311.594 286.222 311.485 286.503C311.377 286.784 311.218 287.04 311.017 287.255C310.817 287.47 310.578 287.64 310.316 287.757C310.054 287.873 309.773 287.933 309.49 287.933H132.73C132.157 287.933 131.608 287.689 131.203 287.255C130.798 286.82 130.57 286.231 130.57 285.617V279.71Z" fill="white"/>
<path opacity="0.2" d="M311.65 279.699H130.57V283.816H311.65V279.699Z" fill="black"/>
<path d="M315.45 280.782H126.77C126.197 280.782 125.648 280.538 125.243 280.104C124.838 279.67 124.61 279.081 124.61 278.467C124.61 277.851 124.837 277.261 125.242 276.825C125.647 276.389 126.196 276.143 126.77 276.14H315.45C316.024 276.143 316.573 276.389 316.978 276.825C317.383 277.261 317.61 277.851 317.61 278.467C317.61 279.081 317.382 279.67 316.977 280.104C316.572 280.538 316.023 280.782 315.45 280.782Z" fill="#407BFF"/>
<path opacity="0.6" d="M315.45 280.782H126.77C126.197 280.782 125.648 280.538 125.243 280.104C124.838 279.67 124.61 279.081 124.61 278.467C124.61 277.851 124.837 277.261 125.242 276.825C125.647 276.389 126.196 276.143 126.77 276.14H315.45C316.024 276.143 316.573 276.389 316.978 276.825C317.383 277.261 317.61 277.851 317.61 278.467C317.61 279.081 317.382 279.67 316.977 280.104C316.572 280.538 316.023 280.782 315.45 280.782Z" fill="white"/>
<path d="M270.81 268.99L273.13 265.259C273.358 264.892 273.668 264.592 274.031 264.385C274.393 264.177 274.798 264.069 275.21 264.069H278.15C278.394 264.07 278.636 264.11 278.87 264.187L289.36 267.596C289.956 267.787 290.463 268.212 290.78 268.786L292.29 271.498L270.81 268.99Z" fill="#407BFF"/>
<path opacity="0.2" d="M292.29 271.498L277 269.719L270.79 268.99L273.11 265.259C273.339 264.892 273.648 264.592 274.011 264.385C274.374 264.177 274.779 264.069 275.19 264.069H278.13C278.377 264.071 278.623 264.11 278.86 264.187L279.09 264.262L289.34 267.596C289.939 267.785 290.45 268.21 290.77 268.786L292.29 271.498Z" fill="black"/>
<path opacity="0.2" d="M292.29 271.498L277 269.719L279.09 264.262L289.34 267.596C289.939 267.785 290.45 268.21 290.77 268.786L292.29 271.498Z" fill="black"/>
<path d="M299.55 275.776V276.129H267.13L268.33 271.102C268.553 270.178 269.056 269.36 269.76 268.778C270.465 268.195 271.33 267.881 272.22 267.885H286.6C287.078 267.883 287.553 267.974 288 268.153L289.8 268.872L296.94 271.723C297.711 272.03 298.375 272.583 298.842 273.308C299.309 274.033 299.556 274.895 299.55 275.776Z" fill="#407BFF"/>
<path opacity="0.2" d="M299.55 275.776V276.129H286.24L286.95 270.694C286.996 270.357 287.111 270.035 287.288 269.752C287.465 269.469 287.698 269.232 287.971 269.059C288.245 268.885 288.551 268.779 288.867 268.749C289.183 268.718 289.502 268.764 289.8 268.882L296.94 271.734C297.709 272.04 298.372 272.591 298.839 273.314C299.306 274.037 299.554 274.896 299.55 275.776Z" fill="black"/>
<path d="M288.31 272.442L292.55 258.816C292.591 258.677 292.661 258.55 292.753 258.443C292.845 258.335 292.958 258.251 293.084 258.196C293.21 258.141 293.346 258.116 293.481 258.123C293.617 258.13 293.75 258.169 293.87 258.237C294.055 258.35 294.201 258.524 294.287 258.732C294.373 258.94 294.395 259.172 294.35 259.395L290.78 273.932C290.78 273.932 288.41 274.961 288.31 272.442Z" fill="#263238"/>
<path opacity="0.2" d="M270.81 275.004H268.93L269.29 273.021H271.17L270.81 275.004Z" fill="black"/>
<path opacity="0.2" d="M273.61 274.929H271.73L272.09 272.945H273.97L273.61 274.929Z" fill="black"/>
</svg>
