<svg width="58" height="24" viewBox="0 0 58 24" fill="none" xmlns="http://www.w3.org/2000/svg">
<path d="M8.88651 0.310006C11.2287 0.310006 12.9853 0.964396 14.1564 2.23885C15.1897 3.37547 15.7064 5.06323 15.7064 7.12987V16.2575C15.7064 20.4252 13.2953 23.043 8.88651 23.043H0.27555C0.103331 23.043 0 22.9052 0 22.733V0.619958C0 0.447738 0.103331 0.310006 0.27555 0.310006H8.88651ZM11.1942 15.2242V8.16318C11.1942 5.99325 10.0576 4.61549 7.64654 4.61549H4.54659V18.7375H7.64654C9.71317 18.7375 11.1942 17.3942 11.1942 15.2242ZM2.10107 2.41107V20.9419C2.10107 21.0796 2.23885 21.1141 2.30774 21.1141H7.92206C11.8831 21.1141 13.6742 18.7375 13.6742 16.5331V7.71544C13.6742 4.06435 11.7454 2.20442 7.81876 2.20442H2.30774C2.23885 2.20442 2.10107 2.23885 2.10107 2.41107ZM13.2608 7.71544V16.5331C13.2608 19.2886 10.5053 20.7352 7.92206 20.7352H2.5144V2.65216H7.81876C11.4354 2.65216 13.2608 4.27105 13.2608 7.71544ZM33.1599 15.0864V14.0186C33.1599 13.8464 33.2977 13.7086 33.4699 13.7086H37.3965C37.5687 13.7086 37.7065 13.8464 37.7065 14.0186V16.1886C37.7065 21.2519 34.9854 23.3874 29.8533 23.3874C25.0656 23.3874 21.9312 21.493 21.9312 16.1886V7.12987C21.9312 2.0322 24.7212 0 29.8533 0C34.7099 0 37.7065 1.85998 37.7065 7.12987V7.85318C37.7065 8.0254 37.5687 8.16318 37.3965 8.16318H33.4355C33.2632 8.16318 33.1255 8.0254 33.1255 7.85318V7.30209C33.1255 5.40767 31.7133 4.61549 30.0255 4.61549H29.6122C28.4755 4.61549 27.7178 4.92545 27.2011 5.61432C26.7189 6.26877 26.5467 7.12987 26.5467 8.26654V15.0864C26.5467 18.083 28.2345 18.7375 29.6122 18.7375H30.0255C32.1955 18.7375 33.091 17.2908 33.1599 15.0864ZM29.7844 2.1355C26.0989 2.1355 23.9634 3.44439 23.9634 7.64652V15.9475C23.9634 19.7708 25.9267 21.183 29.7844 21.183C33.401 21.183 35.571 19.8741 35.571 15.9131C35.571 15.6375 35.1577 15.6375 35.1577 15.9131C35.1577 19.3919 33.2632 20.8041 29.7844 20.8041C26.4089 20.8041 24.3423 19.633 24.3423 15.9475V7.64652C24.3423 4.06435 26.0301 2.51437 29.7844 2.51437C34.6754 2.51437 34.8477 5.61432 34.8477 5.95876C34.8477 6.26877 35.3299 6.3032 35.3299 5.95876C35.3299 3.09995 32.4366 2.1355 29.7844 2.1355ZM51.9223 9.0932C54.5399 10.3332 57.95 12.2965 57.95 15.8442C57.95 16.8775 57.7778 18.8752 56.6413 20.563C55.3664 22.4574 53.3689 23.3874 50.6134 23.3874C47.6857 23.3874 44.2758 21.9752 43.208 18.7719C43.1736 18.6686 43.208 18.5653 43.3114 18.4964L46.4802 15.7753C46.618 15.672 46.8246 15.672 46.928 15.8442C46.9968 16.0164 47.1346 16.2919 47.3069 16.6364C47.8235 17.7042 49.0635 18.7719 50.4412 18.7719C51.509 18.7719 52.9556 18.1863 52.9556 16.5331C52.9556 14.9487 50.7857 14.0531 49.4423 13.5364C47.8924 12.9165 46.308 12.1242 44.9646 10.9531C43.5525 9.64429 42.8636 8.19762 42.8636 6.47542C42.8636 2.16993 46.8246 0 50.579 0C53.5412 0 55.7456 1.54998 57.1922 4.61549C57.2613 4.75323 57.1921 4.92545 57.0886 4.99437L54.0234 7.12987C53.8856 7.19879 53.817 7.19879 53.6791 7.02657C52.5079 5.33881 51.4745 4.54657 50.0968 4.54657C49.3735 4.54657 47.6857 4.82215 47.6857 6.09655C47.6857 7.64653 50.5446 8.43876 51.9223 9.0932ZM45.6535 18.5997C46.5146 20.3219 48.8913 21.3208 50.8201 21.3208C53.3345 21.3208 55.3664 19.5986 55.6421 16.9808C55.9865 13.7776 53.4723 12.3998 50.9923 11.1598L49.8901 10.6776C47.3413 9.54094 45.4813 8.67984 45.4813 6.3032C45.4813 3.68548 47.8924 2.47994 50.269 2.47994C52.439 2.47994 53.5756 3.7544 54.1613 4.54657C54.3678 4.82215 54.7121 4.58101 54.5056 4.30549C53.9199 3.58218 52.6801 2.06663 50.269 2.06663C47.5479 2.06663 45.068 3.40996 45.068 6.3032C45.068 8.88649 47.1346 9.88538 49.7523 11.0909L50.8201 11.6076C54.2299 13.2265 55.47 14.742 55.1943 16.9464C54.6778 20.4597 51.9912 20.9074 50.8201 20.9074C48.2368 20.9074 46.5146 19.3575 45.998 18.3931C45.8257 18.2208 45.5847 18.3931 45.6535 18.5997Z" fill="white"/>
</svg>
