<svg width="120" height="103" viewBox="0 0 120 103" fill="none" xmlns="http://www.w3.org/2000/svg">
<path d="M59.9718 102.407C92.6685 102.407 119.174 100.813 119.174 98.8463C119.174 96.8797 92.6685 95.2855 59.9718 95.2855C27.2752 95.2855 0.769287 96.8797 0.769287 98.8463C0.769287 100.813 27.2752 102.407 59.9718 102.407Z" fill="#F5F5F5"/>
<path d="M63.1504 82.8844H24.198C23.5717 82.8753 22.9718 82.6225 22.5188 82.1768C22.0657 81.7311 21.793 81.1254 21.7553 80.4812L18.2622 10.7919C18.2428 10.4819 18.2858 10.1712 18.3885 9.87912C18.4912 9.58706 18.6513 9.31999 18.8589 9.09466C19.0664 8.86934 19.3169 8.6906 19.5946 8.56967C19.8724 8.44873 20.1714 8.38821 20.4729 8.39188H59.4252C60.0513 8.40024 60.6512 8.65234 61.1043 9.09753C61.5574 9.54273 61.8302 10.1481 61.868 10.7919L65.355 80.4812C65.3743 80.7908 65.3315 81.1012 65.2292 81.393C65.1269 81.6848 64.9674 81.9518 64.7605 82.1773C64.5537 82.4027 64.304 82.5819 64.0269 82.7036C63.7499 82.8252 63.4515 82.8868 63.1504 82.8844Z" fill="#0094FF"/>
<path d="M55.5817 6.12292H51.2733V6.43748H55.5817V6.12292Z" fill="#0094FF"/>
<path d="M49.778 6.12292H48.1993V6.43748H49.778V6.12292Z" fill="#0094FF"/>
<path d="M64.8284 78.4628H27.5768C26.977 78.4568 26.4016 78.2169 25.9665 77.7915C25.5314 77.366 25.2689 76.7865 25.2318 76.1697L21.8975 9.51565C21.879 9.21899 21.9202 8.92158 22.0184 8.64208C22.1167 8.36259 22.27 8.10703 22.4687 7.89143C22.6674 7.67584 22.9071 7.50485 23.173 7.38921C23.4388 7.27357 23.725 7.21575 24.0135 7.2194H61.2651C61.8649 7.22622 62.44 7.46689 62.8745 7.89294C63.3091 8.31899 63.5708 8.89879 63.607 9.51565L66.9414 76.1697C66.9599 76.4659 66.9188 76.7629 66.8207 77.042C66.7225 77.3211 66.5695 77.5764 66.3711 77.7917C66.1727 78.007 65.9333 78.1777 65.6678 78.2932C65.4023 78.4087 65.1166 78.4664 64.8284 78.4628Z" fill="#0094FF"/>
<path d="M51.7567 29.2053C51.0423 30.6973 49.9332 31.951 48.5572 32.8219C47.1813 33.6929 45.5945 34.1456 43.9797 34.1281C42.3062 34.1125 40.6651 33.651 39.2161 32.7883C37.7672 31.9257 36.5596 30.6913 35.7111 29.2053C38.0314 27.5545 40.7873 26.6762 43.6072 26.6889C46.5025 26.7001 49.3328 27.574 51.7567 29.2053Z" fill="#0094FF"/>
<path d="M46.3382 24.5075C47.8647 22.8938 47.7648 20.2431 46.115 18.5869C44.4652 16.9307 41.8904 16.8962 40.3639 18.5099C38.8374 20.1236 38.9374 22.7744 40.5871 24.4306C42.2369 26.0868 44.8117 26.1212 46.3382 24.5075Z" fill="#0094FF"/>
<path opacity="0.3" d="M50.5561 43.7535H38.3729C38.1179 43.7515 37.873 43.6497 37.6882 43.4686C37.5033 43.2875 37.3923 43.0407 37.3775 42.7784L37.3317 41.8347C37.3237 41.7092 37.341 41.5833 37.3825 41.465C37.424 41.3467 37.4888 41.2385 37.5728 41.1472C37.6568 41.0559 37.7582 40.9835 37.8707 40.9346C37.9832 40.8856 38.1043 40.8612 38.2264 40.8627H50.4064C50.6605 40.8654 50.9041 40.9672 51.0883 41.1476C51.2724 41.3279 51.3834 41.5735 51.3988 41.8347L51.4476 42.7784C51.4552 42.9037 51.4377 43.0292 51.3962 43.1473C51.3548 43.2653 51.2903 43.3734 51.2068 43.4648C51.1232 43.5562 51.0224 43.6289 50.9104 43.6786C50.7985 43.7282 50.6779 43.7537 50.5561 43.7535Z" fill="black"/>
<path opacity="0.3" d="M55.0864 73.7039H36.8362C36.404 73.6984 35.9898 73.5248 35.6767 73.218C35.3635 72.9111 35.1746 72.4937 35.1476 72.0493L35.0408 69.8789C35.03 69.6656 35.0615 69.4523 35.1334 69.2519C35.2053 69.0515 35.316 68.8684 35.4589 68.7135C35.6017 68.5587 35.7737 68.4355 35.9643 68.3514C36.1549 68.2673 36.3601 68.2241 36.5675 68.2244H54.8116C55.2437 68.2299 55.6579 68.4034 55.971 68.7103C56.2842 69.0171 56.4732 69.4346 56.5001 69.8789L56.607 72.0493C56.6177 72.2621 56.5864 72.4749 56.5149 72.6749C56.4434 72.8748 56.3332 73.0577 56.191 73.2124C56.0488 73.3672 55.8775 73.4905 55.6876 73.575C55.4978 73.6595 55.2932 73.7033 55.0864 73.7039Z" fill="black"/>
<path d="M34.0165 49.3559C34.0249 49.4949 34.0054 49.6342 33.9592 49.7651C33.913 49.8959 33.8411 50.0156 33.748 50.1166C33.6548 50.2175 33.5425 50.2976 33.4179 50.3518C33.2934 50.406 33.1594 50.4332 33.0242 50.4316C32.7433 50.4282 32.4742 50.3153 32.2708 50.1158C32.0674 49.9162 31.945 49.6447 31.928 49.3559C31.9192 49.217 31.9383 49.0778 31.9841 48.9469C32.03 48.816 32.1016 48.6963 32.1945 48.5953C32.2874 48.4943 32.3996 48.4142 32.5239 48.3599C32.6483 48.3057 32.7822 48.2785 32.9173 48.2801C33.1985 48.2835 33.468 48.3962 33.6719 48.5957C33.8757 48.7953 33.9988 49.0668 34.0165 49.3559Z" fill="#263238"/>
<path d="M37.2348 49.3559C37.2436 49.4947 37.2245 49.6339 37.1787 49.7648C37.1328 49.8957 37.0612 50.0154 36.9683 50.1164C36.8754 50.2174 36.7632 50.2976 36.6389 50.3518C36.5145 50.4061 36.3806 50.4332 36.2455 50.4316C35.9644 50.4289 35.6949 50.3163 35.4913 50.1166C35.2878 49.9169 35.1656 49.6449 35.1493 49.3559C35.1405 49.217 35.1596 49.0778 35.2054 48.9469C35.2513 48.816 35.3229 48.6963 35.4158 48.5953C35.5087 48.4943 35.6209 48.4142 35.7453 48.3599C35.8696 48.3057 36.0036 48.2785 36.1386 48.2801C36.4197 48.2828 36.6893 48.3954 36.8928 48.5951C37.0963 48.7949 37.2185 49.0668 37.2348 49.3559Z" fill="#263238"/>
<path d="M40.4315 49.3559C40.4403 49.4947 40.4212 49.6339 40.3754 49.7648C40.3295 49.8957 40.2579 50.0154 40.165 50.1164C40.0721 50.2174 39.9599 50.2976 39.8356 50.3518C39.7112 50.4061 39.5773 50.4332 39.4422 50.4316C39.161 50.4282 38.8915 50.3155 38.6876 50.116C38.4838 49.9165 38.3607 49.645 38.343 49.3559C38.3346 49.2169 38.3541 49.0776 38.4003 48.9467C38.4465 48.8158 38.5184 48.6961 38.6115 48.5952C38.7047 48.4942 38.817 48.4141 38.9416 48.3599C39.0661 48.3057 39.2001 48.2785 39.3353 48.2801C39.6162 48.2835 39.8853 48.3964 40.0887 48.596C40.2921 48.7956 40.4145 49.067 40.4315 49.3559Z" fill="#263238"/>
<path d="M43.6524 49.3558C43.6608 49.4946 43.6414 49.6336 43.5954 49.7643C43.5493 49.8949 43.4777 50.0145 43.3849 50.1154C43.2921 50.2163 43.1801 50.2964 43.056 50.3508C42.9318 50.4052 42.7981 50.4327 42.6631 50.4316C42.382 50.4282 42.1124 50.3155 41.9086 50.116C41.7047 49.9164 41.5816 49.6449 41.5639 49.3558C41.5555 49.2171 41.5749 49.0781 41.621 48.9474C41.667 48.8167 41.7387 48.6972 41.8315 48.5963C41.9243 48.4954 42.0362 48.4152 42.1604 48.3608C42.2846 48.3064 42.4183 48.2789 42.5532 48.2801C42.8344 48.2835 43.1039 48.3962 43.3078 48.5957C43.5116 48.7952 43.6347 49.0667 43.6524 49.3558Z" fill="#263238"/>
<path d="M34.5588 60.0003C34.5677 60.1391 34.5486 60.2784 34.5027 60.4092C34.4568 60.5401 34.3852 60.6598 34.2923 60.7608C34.1994 60.8618 34.0873 60.942 33.9629 60.9962C33.8385 61.0505 33.7046 61.0777 33.5695 61.0761C33.2883 61.0727 33.0188 60.9599 32.815 60.7604C32.6111 60.5609 32.488 60.2894 32.4703 60.0003C32.4619 59.8613 32.4814 59.722 32.5276 59.5911C32.5738 59.4602 32.6457 59.3405 32.7389 59.2396C32.832 59.1386 32.9443 59.0585 33.0689 59.0043C33.1934 58.9501 33.3275 58.9229 33.4626 58.9245C33.7435 58.9279 34.0127 59.0408 34.216 59.2404C34.4194 59.44 34.5419 59.7115 34.5588 60.0003Z" fill="#263238"/>
<path d="M37.7681 60.0003C37.7765 60.139 37.7571 60.2781 37.7111 60.4087C37.665 60.5394 37.5934 60.6589 37.5006 60.7598C37.4078 60.8607 37.2958 60.9409 37.1716 60.9953C37.0475 61.0497 36.9137 61.0772 36.7788 61.0761C36.4977 61.0727 36.2281 60.9599 36.0243 60.7604C35.8204 60.5609 35.6973 60.2894 35.6796 60.0003C35.6707 59.8614 35.6899 59.7222 35.7357 59.5913C35.7816 59.4604 35.8532 59.3407 35.9461 59.2397C36.039 59.1387 36.1511 59.0586 36.2755 59.0043C36.3999 58.9501 36.5338 58.9229 36.6689 58.9245C36.9501 58.9279 37.2196 59.0407 37.4234 59.2402C37.6273 59.4397 37.7504 59.7112 37.7681 60.0003Z" fill="#263238"/>
<path d="M40.9773 60.0003C40.9858 60.1393 40.9662 60.2786 40.92 60.4095C40.8738 60.5404 40.8019 60.66 40.7088 60.761C40.6156 60.8619 40.5033 60.942 40.3788 60.9962C40.2542 61.0505 40.1202 61.0776 39.985 61.0761C39.7039 61.0734 39.4344 60.9607 39.2308 60.761C39.0273 60.5613 38.9051 60.2894 38.8888 60.0003C38.88 59.8614 38.8991 59.7222 38.9449 59.5913C38.9908 59.4604 39.0624 59.3407 39.1553 59.2397C39.2482 59.1387 39.3604 59.0586 39.4848 59.0043C39.6091 58.9501 39.7431 58.9229 39.8781 58.9245C40.1593 58.9279 40.4288 59.0407 40.6327 59.2402C40.8365 59.4397 40.9597 59.7112 40.9773 60.0003Z" fill="#263238"/>
<path d="M44.1826 60.0003C44.1914 60.1391 44.1723 60.2784 44.1265 60.4092C44.0806 60.5401 44.009 60.6598 43.9161 60.7608C43.8232 60.8618 43.711 60.942 43.5867 60.9962C43.4623 61.0505 43.3284 61.0777 43.1933 61.0761C42.9121 61.0727 42.6426 60.9599 42.4387 60.7604C42.2349 60.5609 42.1118 60.2894 42.0941 60.0003C42.0857 59.8613 42.1052 59.722 42.1514 59.5911C42.1976 59.4602 42.2695 59.3405 42.3626 59.2396C42.4558 59.1386 42.5681 59.0585 42.6927 59.0043C42.8172 58.9501 42.9512 58.9229 43.0864 58.9245C43.3675 58.9272 43.6371 59.0398 43.8406 59.2396C44.0441 59.4393 44.1663 59.7112 44.1826 60.0003Z" fill="#263238"/>
<path d="M47.3919 60.0002C47.4008 60.1391 47.3817 60.2783 47.3358 60.4092C47.29 60.5401 47.2183 60.6598 47.1254 60.7608C47.0325 60.8618 46.9204 60.942 46.796 60.9962C46.6716 61.0504 46.5377 61.0776 46.4026 61.076C46.1215 61.0726 45.8519 60.9599 45.6481 60.7604C45.4442 60.5609 45.3211 60.2893 45.3034 60.0002C45.295 59.8615 45.3145 59.7225 45.3605 59.5918C45.4065 59.4611 45.4782 59.3416 45.571 59.2407C45.6638 59.1398 45.7757 59.0596 45.8999 59.0052C46.0241 58.9508 46.1578 58.9233 46.2927 58.9245C46.5739 58.9279 46.8434 59.0406 47.0473 59.2401C47.2511 59.4396 47.3742 59.7112 47.3919 60.0002Z" fill="#263238"/>
<path d="M50.601 60.0003C50.6094 60.1393 50.5899 60.2786 50.5437 60.4095C50.4975 60.5404 50.4256 60.66 50.3324 60.761C50.2393 60.8619 50.127 60.942 50.0024 60.9962C49.8779 61.0505 49.7438 61.0776 49.6087 61.0761C49.3278 61.0726 49.0586 60.9597 48.8553 60.7602C48.6519 60.5606 48.5294 60.2891 48.5125 60.0003C48.5036 59.8614 48.5227 59.7222 48.5686 59.5913C48.6145 59.4604 48.6861 59.3407 48.779 59.2397C48.8719 59.1387 48.984 59.0586 49.1084 59.0043C49.2328 58.9501 49.3667 58.9229 49.5018 58.9245C49.7829 58.9279 50.0525 59.0407 50.2563 59.2402C50.4602 59.4397 50.5833 59.7112 50.601 60.0003Z" fill="#263238"/>
<path d="M85.3159 23.4716C85.3922 23.5911 85.4319 23.654 85.4808 23.7389L85.6182 23.9717C85.7067 24.129 85.7861 24.2863 85.8625 24.4404C86.0151 24.7549 86.1678 25.0695 86.2899 25.384C86.5459 26.0088 86.7661 26.6484 86.9495 27.2997C87.3192 28.5862 87.5626 29.9076 87.6762 31.2442L87.6976 31.4927C87.7001 31.543 87.7001 31.5934 87.6976 31.6437V31.8104C87.7026 32.0291 87.6904 32.2479 87.6609 32.4646C87.6024 32.8663 87.4999 33.2599 87.3556 33.6379C87.0873 34.3131 86.732 34.9479 86.2991 35.5253C85.4916 36.5905 84.5334 37.5246 83.4564 38.2965L82.6136 37.2805C83.3805 36.3882 84.0596 35.4199 84.6411 34.3897C84.9028 33.9224 85.1079 33.4238 85.2518 32.905C85.3101 32.6853 85.3439 32.4595 85.3526 32.2319C85.362 32.1346 85.362 32.0366 85.3526 31.9393V31.8733C85.3556 31.844 85.3556 31.8145 85.3526 31.7852L85.3159 31.565C85.1196 30.3927 84.842 29.2364 84.4854 28.1049C84.3083 27.5419 84.0915 26.9977 83.8747 26.4661C83.7678 26.1987 83.6457 25.9377 83.5236 25.686L83.3343 25.3148L83.2396 25.1418L83.1602 25.0034L85.3159 23.4716Z" fill="#803E3C"/>
<path d="M82.4753 38.3036L83.5807 40.71L84.457 38.6748C84.457 38.6748 83.6784 36.9133 82.625 37.0769L82.4753 38.3036Z" fill="#7F3E3B"/>
<path d="M84.3727 40.829L85.2521 39.3443L84.4582 38.6743L83.5819 40.7095L84.3727 40.829Z" fill="#7F3E3B"/>
<path d="M79.4022 96.3246C79.6308 96.3187 79.8581 96.287 80.08 96.2302C80.0913 96.2267 80.1014 96.2202 80.1094 96.2113C80.1175 96.2025 80.1231 96.1917 80.1258 96.1799C80.1277 96.1678 80.1261 96.1554 80.1212 96.1442C80.1163 96.133 80.1084 96.1236 80.0983 96.117C80.0098 96.0572 79.2342 95.5413 78.935 95.6797C78.9018 95.6957 78.8733 95.7204 78.8524 95.7513C78.8315 95.7822 78.8189 95.8183 78.8159 95.8559C78.8066 95.9128 78.811 95.9712 78.8285 96.026C78.8461 96.0808 78.8763 96.1304 78.9167 96.1704C79.0551 96.2806 79.2276 96.3353 79.4022 96.3246ZM79.906 96.139C79.4632 96.2334 79.1273 96.2176 78.9899 96.0949C78.9619 96.0663 78.9413 96.0308 78.9301 95.9917C78.9189 95.9527 78.9174 95.9114 78.9258 95.8716C78.9258 95.8181 78.9564 95.8024 78.9777 95.793C79.1426 95.7175 79.5915 95.9408 79.906 96.139Z" fill="#0094FF"/>
<path d="M80.062 96.2299H80.0925C80.1017 96.2237 80.1093 96.2154 80.1146 96.2055C80.1199 96.1956 80.1228 96.1846 80.123 96.1733C80.123 96.1418 80.123 95.3838 79.8421 95.129C79.8077 95.097 79.7669 95.0732 79.7226 95.0591C79.6783 95.045 79.6316 95.0409 79.5856 95.0472C79.5375 95.0476 79.4909 95.065 79.4537 95.0965C79.4165 95.1279 79.3908 95.1716 79.3811 95.2202C79.3231 95.519 79.7872 96.0852 80.0314 96.2299H80.062ZM79.6253 95.1636C79.6501 95.1628 79.6747 95.1672 79.6977 95.1764C79.7208 95.1856 79.7419 95.1994 79.7597 95.217C79.9208 95.4617 80.004 95.7519 79.9979 96.0475C79.7536 95.8461 79.4635 95.4183 79.5001 95.2391C79.5001 95.2107 79.5215 95.173 79.5979 95.1636H79.6253Z" fill="#0094FF"/>
<path d="M76.5189 95.0396C76.5261 95.0304 76.5307 95.0193 76.5324 95.0076C76.534 94.9959 76.5326 94.984 76.5282 94.9731C76.5238 94.9622 76.5167 94.9527 76.5075 94.9455C76.4984 94.9384 76.4876 94.934 76.4762 94.9326C76.351 94.9326 75.2548 94.8792 75.0044 95.156V95.1748C74.9837 95.202 74.9703 95.2344 74.9655 95.2686C74.9607 95.3028 74.9646 95.3377 74.977 95.3699C74.9933 95.4239 75.0221 95.473 75.0609 95.513C75.0997 95.553 75.1474 95.5827 75.1999 95.5995C75.554 95.7127 76.18 95.3007 76.522 95.0459L76.5189 95.0396ZM75.096 95.2377C75.2334 95.0868 75.838 95.0459 76.2899 95.0522C75.8166 95.3856 75.4228 95.5429 75.2243 95.4799C75.1897 95.4691 75.1582 95.4497 75.1326 95.4234C75.1071 95.397 75.0882 95.3646 75.0777 95.329C75.0716 95.3168 75.0684 95.3033 75.0684 95.2896C75.0684 95.2759 75.0716 95.2625 75.0777 95.2503L75.096 95.2377Z" fill="#0094FF"/>
<path d="M76.5189 95.039C76.5234 95.0292 76.5258 95.0184 76.5258 95.0075C76.5258 94.9967 76.5234 94.9859 76.5189 94.9761C76.5036 94.9509 76.1616 94.347 75.7586 94.2212C75.7007 94.2037 75.6399 94.1986 75.5801 94.2062C75.5202 94.2137 75.4625 94.2338 75.4105 94.2652C75.2639 94.3533 75.2547 94.4571 75.2731 94.5231C75.3524 94.8157 76.1311 95.0736 76.4669 95.0705C76.4775 95.0703 76.4878 95.0673 76.4969 95.0618C76.506 95.0563 76.5136 95.0484 76.5189 95.039ZM75.4227 94.4099C75.4399 94.3925 75.4594 94.3776 75.4807 94.3659C75.5184 94.3411 75.5609 94.3252 75.6052 94.3192C75.6495 94.3132 75.6946 94.3173 75.7372 94.3313C76.0028 94.4036 76.2501 94.7559 76.3631 94.9289C75.9998 94.888 75.4471 94.6584 75.4013 94.4822C75.3974 94.4689 75.3974 94.4546 75.4012 94.4412C75.405 94.4278 75.4124 94.4159 75.4227 94.4067V94.4099Z" fill="#0094FF"/>
<path d="M79.8809 14.2582C79.5756 15.8309 78.9161 19.2313 79.9756 20.2756C79.9756 20.2756 79.5603 21.8484 76.742 21.8484C73.6398 21.8484 75.2611 20.2756 75.2611 20.2756C76.9527 19.8604 76.91 18.5644 76.6138 17.3502L79.8809 14.2582Z" fill="#7F3E3B"/>
<path d="M74.7144 10.5741C74.7316 10.577 74.7492 10.577 74.7664 10.5741C74.7809 10.5668 74.7938 10.5565 74.8044 10.544C74.8151 10.5314 74.8232 10.5168 74.8283 10.501C74.8334 10.4852 74.8354 10.4685 74.8342 10.4519C74.833 10.4353 74.8286 10.4191 74.8213 10.4043C74.7392 10.2248 74.6165 10.0683 74.4635 9.94791C74.3104 9.82749 74.1316 9.74667 73.9419 9.71224C73.9101 9.7095 73.8785 9.71937 73.8536 9.73983C73.8286 9.76029 73.8121 9.78981 73.8076 9.82234C73.8041 9.85525 73.8134 9.88823 73.8334 9.91414C73.8534 9.94005 73.8826 9.95679 73.9145 9.96074C74.0642 9.99035 74.2049 10.0563 74.3249 10.1531C74.4449 10.25 74.5408 10.3749 74.6045 10.5175C74.6164 10.5361 74.6328 10.5511 74.6521 10.5611C74.6714 10.571 74.6929 10.5755 74.7144 10.5741Z" fill="#263238"/>
<path d="M73.7897 11.9534C73.5493 12.4125 73.2494 12.8358 72.8981 13.2116C72.9932 13.3012 73.1061 13.3685 73.2289 13.4087C73.3518 13.4489 73.4816 13.461 73.6095 13.4444L73.7897 11.9534Z" fill="#630F0F"/>
<path d="M74.0172 11.5997C73.9927 11.8104 73.8614 11.9677 73.7301 11.952C73.5988 11.9362 73.5072 11.7507 73.5317 11.5399C73.5561 11.3292 73.6874 11.1719 73.837 11.1876C73.9866 11.2033 74.0385 11.3889 74.0172 11.5997Z" fill="#263238"/>
<path d="M73.8767 11.2037L73.4065 11.0087C73.4065 11.0087 73.605 11.4239 73.8767 11.2037Z" fill="#263238"/>
<path d="M79.2151 94.4407L76.7235 95.0384L75.209 89.1373L77.7006 88.5397L79.2151 94.4407Z" fill="#7F3E3B"/>
<path d="M83.0373 96.166H80.4816L80.68 90.0668H83.2388L83.0373 96.166Z" fill="#7F3E3B"/>
<path d="M80.2762 95.8613H83.1494C83.1992 95.8609 83.2475 95.8792 83.2852 95.9127C83.3228 95.9463 83.3473 95.9929 83.354 96.0438L83.6807 98.3841C83.6872 98.4432 83.6814 98.5032 83.6638 98.5599C83.6461 98.6166 83.617 98.6688 83.5783 98.7131C83.5397 98.7574 83.4924 98.7927 83.4395 98.8168C83.3866 98.8409 83.3294 98.8531 83.2716 98.8527C82.27 98.837 81.7876 98.7741 80.5235 98.7741C79.7449 98.7741 78.609 98.859 77.5373 98.859C76.4655 98.859 76.4044 97.7644 76.8533 97.6669C78.8563 97.2202 79.1739 96.61 79.8487 96.0249C79.9679 95.92 80.1194 95.862 80.2762 95.8613Z" fill="#263238"/>
<path d="M76.5034 94.6475L79.1141 93.4113C79.1584 93.3895 79.2089 93.3852 79.2562 93.3991C79.3034 93.413 79.3441 93.4442 79.3705 93.4868L80.6194 95.4748C80.6485 95.526 80.667 95.5829 80.6735 95.6418C80.68 95.7008 80.6744 95.7605 80.6572 95.8171C80.6399 95.8737 80.6113 95.9259 80.5733 95.9705C80.5352 96.015 80.4885 96.0508 80.4362 96.0756C79.5202 96.4908 79.056 96.6449 77.908 97.1891C77.2026 97.5225 75.7706 98.2901 74.7996 98.7619C73.8286 99.2337 73.3278 98.2555 73.6943 97.9724C75.3339 96.7141 75.8042 95.8114 76.1797 94.9904C76.2432 94.8391 76.3584 94.7171 76.5034 94.6475Z" fill="#263238"/>
<path opacity="0.2" d="M75.209 89.1373L76.0212 92.3017L78.4822 91.5814L77.7036 88.5397L75.209 89.1373Z" fill="black"/>
<path opacity="0.2" d="M83.2378 90.0668H80.679L80.5782 93.2123H83.137L83.2378 90.0668Z" fill="black"/>
<path d="M84.4 20.8758C85.4625 21.118 86.5984 25.0531 86.5984 25.0531L83.5939 28.3465C83.5939 28.3465 81.0992 24.6473 81.6091 23.2885C82.1252 21.8698 83.1328 20.5927 84.4 20.8758Z" fill="#263238"/>
<path opacity="0.4" d="M82.7024 23.3806C82.165 22.8742 81.8017 23.0252 81.5544 23.4278C81.3101 24.5979 82.7574 27.0483 83.3406 27.9763C83.6093 26.869 83.9177 24.535 82.7024 23.3806Z" fill="black"/>
<path d="M70.9368 20.9531C70.9368 20.9531 69.7154 21.3935 72.1582 36.8538H82.5398C82.3657 32.5004 82.3596 29.8141 84.3718 20.8745C82.9171 20.5653 81.4425 20.3656 79.9596 20.2768C78.3902 20.1603 76.8146 20.1603 75.2452 20.2768C73.233 20.4687 70.9368 20.9531 70.9368 20.9531Z" fill="#263238"/>
<path opacity="0.4" d="M70.8423 26.8844C70.9095 27.6362 70.998 28.4823 71.114 29.4386C71.9659 28.6491 72.6621 26.4031 72.4056 25.0946C71.797 25.6035 71.2695 26.2074 70.8423 26.8844Z" fill="black"/>
<path d="M71.9546 24.5344C71.3945 25.9869 70.7636 27.4095 70.0646 28.7966C69.3736 30.2339 68.5559 31.6027 67.6219 32.8858L67.4265 33.1343L67.3287 33.257C67.2952 33.2979 67.2677 33.3357 67.2158 33.3923C67.032 33.5988 66.8273 33.7844 66.6051 33.9459C66.2123 34.2259 65.7825 34.4463 65.3288 34.6002C64.5375 34.8605 63.716 35.0107 62.886 35.0468C61.3318 35.1105 59.776 34.9678 58.2571 34.6222L58.425 33.3011C59.1273 33.3011 59.8632 33.3011 60.5624 33.2413C61.2647 33.2057 61.9642 33.1259 62.657 33.0022C63.3005 32.8988 63.9298 32.7172 64.5318 32.4612C64.7749 32.3542 65.0021 32.2123 65.2066 32.0397C65.2847 31.9723 65.3553 31.8964 65.4173 31.8132C65.4173 31.8132 65.454 31.7629 65.4784 31.7283L65.5486 31.6245L65.6921 31.4169C66.4583 30.1977 67.1409 28.9248 67.7348 27.6076C68.3455 26.2708 68.9562 24.8836 69.515 23.5184L71.9546 24.5344Z" fill="#803E3C"/>
<path d="M70.9382 20.9539C69.6649 21.2684 68.1016 24.8669 68.1016 24.8669L70.7397 28.8618C70.7397 28.8618 74.2542 24.3039 73.8359 22.9136C73.4084 21.4635 72.4924 20.5638 70.9382 20.9539Z" fill="#263238"/>
<path d="M59.1569 33.5032L56.9554 32.4557L56.7356 34.711C56.7356 34.711 58.5676 35.2678 59.4837 34.711L59.1569 33.5032Z" fill="#7F3E3B"/>
<path d="M55.6376 32.2283L55.4269 33.9457L56.7337 34.7101L56.9536 32.4547L55.6376 32.2283Z" fill="#7F3E3B"/>
<path d="M80.9844 11.7513C80.5172 14.3212 80.3737 15.4221 78.9447 16.5891C76.8073 18.3443 73.8303 17.193 73.5432 14.5319C73.2806 12.135 74.0867 8.33522 76.673 7.61175C77.2427 7.44983 77.8431 7.44096 78.4171 7.58598C78.9911 7.73101 79.5194 8.02508 79.9517 8.44017C80.3841 8.85526 80.706 9.37752 80.8867 9.95715C81.0675 10.5368 81.1011 11.1545 80.9844 11.7513Z" fill="#7F3E3B"/>
<path d="M75.5039 12.2927C75.3604 13.6044 75.3054 17.011 78.1024 17.118C81.5252 17.2469 82.5512 14.2335 82.2458 13.0288C84.029 11.5346 84.2855 8.96473 82.2825 6.99877C80.2794 5.03281 75.8703 6.1306 74.6489 8.04623C73.1009 10.4211 75.5039 12.2927 75.5039 12.2927Z" fill="#263238"/>
<path d="M78.9331 7.76219C78.7682 6.37815 78.8965 5.42505 80.1545 5.42505C81.4125 5.42505 83.1285 5.89373 83.7575 7.21801C84.3865 8.54228 84.4384 10.6152 82.6827 10.4044C80.927 10.1937 79.1316 9.41674 78.9331 7.76219Z" fill="#0094FF"/>
<path d="M80.8811 7.43025C80.5758 5.78199 82.0078 1.13918 85.4856 0.824622C87.0978 0.683072 87.8429 2.46974 87.0123 2.76542C88.5391 2.74654 89.5161 4.82574 88.0933 5.13715C89.2169 5.8795 88.9391 7.40194 87.336 8.15057C86.1421 8.71677 81.2933 9.71391 80.8811 7.43025Z" fill="#263238"/>
<path d="M84.5991 9.20265C83.4785 9.20265 82.3091 9.03279 81.5824 8.53265C81.3792 8.40647 81.2081 8.23222 81.0833 8.02435C80.9585 7.81649 80.8836 7.58098 80.8648 7.33734C80.8639 7.31666 80.8707 7.29639 80.8837 7.28063C80.8967 7.26487 80.9151 7.25478 80.935 7.25241C80.9452 7.2511 80.9554 7.25197 80.9652 7.25497C80.975 7.25797 80.984 7.26303 80.9918 7.26984C80.9995 7.27665 81.0058 7.28505 81.0103 7.29451C81.0147 7.30396 81.0172 7.31427 81.0175 7.32476C81.0359 7.54462 81.1044 7.75691 81.2174 7.94438C81.3304 8.13185 81.4847 8.28921 81.6679 8.40368C83.0511 9.34734 86.248 9.03279 87.2434 8.71824C88.1045 8.42885 88.6877 7.86579 88.8037 7.21781C88.8399 6.98003 88.8114 6.73657 88.7214 6.51446C88.6313 6.29236 88.4833 6.10029 88.2938 5.9596C88.2865 5.95254 88.2807 5.94401 88.2767 5.93454C88.2727 5.92507 88.2706 5.91487 88.2706 5.90455C88.2706 5.89423 88.2727 5.88403 88.2767 5.87456C88.2807 5.86509 88.2865 5.85656 88.2938 5.8495C88.308 5.83509 88.3272 5.82703 88.3472 5.82703C88.3672 5.82703 88.3864 5.83509 88.4006 5.8495C88.6138 6.00971 88.7795 6.22781 88.8792 6.47944C88.979 6.73107 89.0089 7.00632 88.9655 7.27443C88.8403 7.98218 88.2205 8.58612 87.3045 8.89439C86.4206 9.12391 85.5104 9.22763 84.5991 9.20265Z" fill="#263238"/>
<path d="M74.7244 11.9521C74.4401 12.363 74.3228 12.8721 74.3977 13.3708C74.4984 14.0313 75.1213 14.0754 75.5732 13.6539C76.0251 13.2324 76.419 12.4711 76.0862 11.9238C76.0123 11.8056 75.9101 11.7088 75.7896 11.6428C75.6691 11.5767 75.5341 11.5435 75.3976 11.5463C75.2611 11.5491 75.1276 11.5879 75.0098 11.659C74.8919 11.73 74.7937 11.8309 74.7244 11.9521Z" fill="#7F3E3B"/>
<path d="M74.8993 36.8547C74.8993 36.8547 76.3832 54.9384 77.9252 65.1299C79.1679 73.3618 80.1511 92.603 80.1511 92.603H83.6381C83.6381 92.603 84.8778 73.9374 84.2488 65.7968C82.6519 45.1936 86.2152 43.5138 82.5481 36.8579L74.8993 36.8547Z" fill="#0094FF"/>
<path opacity="0.4" d="M79.2892 43.6902C77.9073 45.1844 76.7921 46.9179 75.9946 48.8111C76.4007 52.8751 76.8832 57.3858 77.3961 61.3366C79.501 55.7229 80.1534 49.6419 79.2892 43.6902Z" fill="black"/>
<path d="M72.4606 36.7386C72.4606 36.7386 69.2393 56.4895 68.7324 65.3914C69.9965 73.6232 75.169 91.0243 75.169 91.0243L78.3415 89.8385C78.3415 89.8385 76.5858 70.8646 74.6774 65.6713C78.9735 50.7709 82.1308 47.0025 81.2117 36.8519C79.0102 36.8519 72.4606 36.7386 72.4606 36.7386Z" fill="#0094FF"/>
<path d="M74.7454 91.8942L79.0324 90.6957L78.7881 88.9342L74.1989 90.2144L74.7454 91.8942Z" fill="#263238"/>
<path d="M79.674 92.6759H84.1167L84.3487 91.0716L79.6495 90.9081L79.674 92.6759Z" fill="#263238"/>
<path d="M82.7002 36.2254L83.1674 37.1847C83.204 37.2602 83.1185 37.3357 82.9994 37.3357H72.1049C72.0133 37.3357 71.9339 37.2885 71.9278 37.2256L71.8331 36.282C71.8331 36.2159 71.9095 36.1593 72.0102 36.1593H82.5292C82.5608 36.1548 82.593 36.1586 82.6228 36.1701C82.6527 36.1816 82.6793 36.2006 82.7002 36.2254Z" fill="#0094FF"/>
<path opacity="0.5" d="M82.7002 36.2254L83.1674 37.1847C83.204 37.2602 83.1185 37.3357 82.9994 37.3357H72.1049C72.0133 37.3357 71.9339 37.2885 71.9278 37.2256L71.8331 36.282C71.8331 36.2159 71.9095 36.1593 72.0102 36.1593H82.5292C82.5608 36.1548 82.593 36.1586 82.6228 36.1701C82.6527 36.1816 82.6793 36.2006 82.7002 36.2254Z" fill="black"/>
<path d="M81.288 37.4313H81.5689C81.6269 37.4313 81.6697 37.3999 81.6666 37.3653L81.5323 36.1071C81.5323 36.0693 81.4804 36.041 81.4254 36.041H81.1414C81.0865 36.041 81.0437 36.0693 81.0468 36.1071L81.1781 37.3653C81.1842 37.4062 81.233 37.4313 81.288 37.4313Z" fill="#0094FF"/>
<path d="M77.508 28.2738C77.4743 28.2732 77.4416 28.2617 77.4147 28.2407C77.3878 28.2198 77.3681 28.1906 77.3584 28.1574C76.363 24.3639 74.305 21.2372 73.3065 20.7654C73.2289 20.7163 73.1357 20.7005 73.047 20.7213C73.0285 20.7313 73.0083 20.7374 72.9875 20.739C72.9667 20.7407 72.9459 20.7379 72.9261 20.7309C72.9064 20.7239 72.8883 20.7129 72.8729 20.6984C72.8575 20.6839 72.8452 20.6664 72.8366 20.6468C72.828 20.6272 72.8235 20.6061 72.8231 20.5846C72.8228 20.5631 72.8268 20.5418 72.8348 20.522C72.8427 20.5021 72.8546 20.4842 72.8695 20.4693C72.8845 20.4543 72.9023 20.4427 72.9218 20.4351C73.0052 20.4035 73.0944 20.3911 73.183 20.3987C73.2716 20.4063 73.3575 20.4338 73.4348 20.4791C74.4912 20.995 76.5798 24.0776 77.624 27.9561C78.3721 27.9561 79.5263 27.8523 79.8072 27.8271C80.1553 27.3993 82.714 24.1028 81.7583 20.4949C81.7528 20.475 81.7512 20.4543 81.7536 20.4338C81.756 20.4133 81.7624 20.3935 81.7724 20.3756C81.7823 20.3577 81.7957 20.3421 81.8116 20.3296C81.8276 20.3171 81.8458 20.3081 81.8652 20.303C81.9041 20.2924 81.9454 20.298 81.9803 20.3186C82.0152 20.3392 82.0407 20.3732 82.0515 20.4131C83.1171 24.4268 80.0271 28.0473 79.9935 28.0819C79.9815 28.0972 79.9667 28.1098 79.9499 28.119C79.9331 28.1281 79.9147 28.1337 79.8958 28.1354C79.8805 28.1354 78.3568 28.2738 77.508 28.2738Z" fill="#0094FF"/>
<path d="M82.5666 30.4946C80.9025 27.2831 80.2216 27.0566 79.9254 26.0248C80.1498 25.4479 80.4701 24.9157 80.872 24.4521C80.6705 24.3923 80.2369 24.3042 79.956 24.2508C79.9865 24.1092 80.0201 23.9708 80.0506 23.8355C79.7449 23.8003 79.4358 23.8152 79.1346 23.8796V23.565C78.7467 23.4781 78.3484 23.4516 77.9529 23.4864C77.9875 23.6353 78.0211 23.7863 78.0537 23.9394C77.7483 23.9991 77.2842 24.0966 77.0613 24.1627C77.4944 24.668 77.8126 25.2666 77.9926 25.9147C77.0949 27.5032 73.6079 37.7137 79.2811 38.4969C84.9544 39.2801 84.2277 33.7094 82.5666 30.4946Z" fill="#0094FF"/>
<path d="M77.7604 25.6084C77.7251 25.7704 77.7097 25.9363 77.7146 26.1023C77.7146 26.2187 78.02 26.2973 78.3589 26.3319C78.6978 26.3665 80.1207 26.4231 80.0749 26.2596C80.0291 26.096 80.1451 25.8727 80.1513 25.7343C80.1574 25.5959 79.5864 25.5896 79.107 25.6084C78.6276 25.6273 77.8551 25.4323 77.7604 25.6084Z" fill="#0094FF"/>
<path d="M74.4617 37.4313H74.7426C74.7976 37.4313 74.8403 37.3999 74.8373 37.3653L74.706 36.1071C74.706 36.0693 74.6541 36.041 74.5961 36.041H74.3243C74.2693 36.041 74.2266 36.0693 74.2296 36.1071L74.3609 37.3653C74.3548 37.4062 74.4037 37.4313 74.4617 37.4313Z" fill="#0094FF"/>
</svg>
