<svg width="125" height="116" viewBox="0 0 125 116" fill="none" xmlns="http://www.w3.org/2000/svg">
<path d="M62.5074 115.678C96.6 115.678 124.238 114.016 124.238 111.965C124.238 109.915 96.6 108.252 62.5074 108.252C28.4148 108.252 0.777222 109.915 0.777222 111.965C0.777222 114.016 28.4148 115.678 62.5074 115.678Z" fill="#F5F5F5"/>
<path d="M61.7402 3.53013L25.7095 11.9167L19.2337 11.2607C18.6176 11.1957 18.0205 11.0037 17.4779 10.696C16.9353 10.3884 16.4583 9.9714 16.0754 9.46991L53.8445 0.679955C55.8853 0.205048 58.0024 0.197211 60.0465 0.656997L60.6036 0.781629C61.2446 0.92784 61.8274 1.27093 62.2751 1.76558C62.3959 1.90434 62.4796 2.07304 62.518 2.25515C62.5565 2.43726 62.5483 2.62654 62.4944 2.80444C62.4405 2.98234 62.3426 3.14276 62.2104 3.26997C62.0782 3.39719 61.9162 3.48683 61.7402 3.53013Z" fill="#0094FF"/>
<path opacity="0.3" d="M30.0182 12.5927L11.84 16.8301L11.9102 17.15L30.0885 12.9126L30.0182 12.5927Z" fill="#0094FF"/>
<path opacity="0.3" d="M16.0068 14.6111L7.66919 16.5547L7.73945 16.8746L16.0771 14.931L16.0068 14.6111Z" fill="#0094FF"/>
<path opacity="0.3" d="M12.4643 7.55936L8.29395 8.53149L8.36421 8.85139L12.5346 7.87926L12.4643 7.55936Z" fill="#0094FF"/>
<path d="M17.0869 3.52991L15.2244 3.97924L16.7749 9.30569L23.9829 7.61002C21.5346 8.18071 17.0869 3.52991 17.0869 3.52991Z" fill="#0094FF"/>
<path d="M28.8236 10.3161C28.4476 9.99208 27.9735 9.81343 27.4833 9.81104L22.4593 9.78809L20.132 10.3293L24.1149 11.4116L28.8236 10.3161Z" fill="#263238"/>
<path d="M49.9884 5.89519L34.0282 3.76986C33.1448 3.65142 32.248 3.69472 31.3793 3.89777L29.3035 4.37991L38.9694 8.46002L49.9884 5.89519Z" fill="#263238"/>
<path d="M49.3267 6.23645L40.0938 11.1792C39.573 11.4563 39.0198 11.6635 38.4478 11.7958L37.0692 12.1238L39.8486 8.44706L49.3267 6.23645Z" fill="#263238"/>
<path d="M23.1077 11.6483L25.7088 11.9205L61.7396 3.53067C61.9742 3.47711 62.1837 3.34182 62.3327 3.14764C62.4818 2.95346 62.5613 2.71226 62.5578 2.46472L23.1077 11.6483Z" fill="#263238"/>
<path d="M69.7249 26.3507C70.7183 28.0529 71.6193 29.7519 72.463 31.523C72.8832 32.4053 73.2907 33.2974 73.6664 34.2158C74.0421 35.1341 74.4083 36.059 74.7203 37.0364L74.8381 37.4037L74.8954 37.5907L74.959 37.8203C75.0386 38.1188 75.0896 38.391 75.1373 38.6566C75.2297 39.188 75.287 39.6964 75.3347 40.1982C75.4366 41.1821 75.4812 42.1661 75.5162 43.15C75.5735 45.1179 75.5417 47.0465 75.4207 49.0012L73.6091 49.0832L72.7368 43.4222C72.5967 42.4842 72.4343 41.556 72.2656 40.6541C72.1796 40.2047 72.0809 39.762 71.9727 39.3421C71.8735 38.9525 71.7436 38.5719 71.5843 38.204C70.9125 36.5444 70.0815 34.8652 69.2251 33.2056C68.3686 31.546 67.4644 29.8765 66.5762 28.2563L69.7249 26.3507Z" fill="#B65B52"/>
<path d="M73.6194 49.0669L74.2561 50.7855L76.4147 48.447C76.4147 48.447 75.969 47.9485 74.8229 47.7451L73.6194 49.0669Z" fill="#B55B52"/>
<path d="M75.4789 51.6158L77.1536 49.8283L76.4118 48.4475L74.2532 50.786L75.4789 51.6158Z" fill="#B55B52"/>
<path d="M58.861 15.0713C58.8164 15.2681 58.6795 15.3993 58.5426 15.3697C58.4057 15.3402 58.3548 15.1565 58.4025 14.9598C58.4503 14.763 58.584 14.6318 58.7209 14.6646C58.8578 14.6974 58.9087 14.8778 58.861 15.0713Z" fill="#263238"/>
<path d="M58.6877 15.4061C58.3207 15.9451 57.8836 16.4296 57.3887 16.846C57.4953 16.9739 57.6278 17.0763 57.7768 17.1459C57.9258 17.2156 58.0878 17.2509 58.2515 17.2494L58.6877 15.4061Z" fill="#A02724"/>
<path d="M59.8118 14.1627C59.8263 14.1636 59.8408 14.1614 59.8545 14.1563C59.8681 14.1512 59.8807 14.1434 59.8914 14.1332C59.9019 14.1225 59.9104 14.1098 59.9161 14.0957C59.9218 14.0816 59.9248 14.0665 59.9248 14.0512C59.9248 14.0359 59.9218 14.0208 59.9161 14.0067C59.9104 13.9927 59.9019 13.9799 59.8914 13.9692C59.777 13.8243 59.6306 13.7097 59.4644 13.635C59.2983 13.5602 59.1171 13.5275 58.9362 13.5395C58.9061 13.5444 58.8789 13.5612 58.8605 13.5862C58.8421 13.6113 58.8339 13.6428 58.8375 13.674C58.8422 13.7045 58.858 13.7319 58.8817 13.7508C58.9053 13.7697 58.9351 13.7786 58.9649 13.7757C59.1089 13.7672 59.2529 13.7943 59.3847 13.8547C59.5165 13.9152 59.6324 14.0073 59.7226 14.1234C59.7336 14.1364 59.7474 14.1467 59.7628 14.1536C59.7782 14.1604 59.795 14.1635 59.8118 14.1627Z" fill="#263238"/>
<path d="M63.1606 17.5311C62.8136 19.3514 62.4697 22.687 63.705 23.9006C63.705 23.9006 63.2211 25.7504 59.9386 25.7504C56.325 25.7504 58.2098 23.9006 58.2098 23.9006C60.1838 23.4184 60.1201 21.9097 59.8017 20.4961L63.1606 17.5311Z" fill="#B55B52"/>
<path d="M64.0975 24.4492C64.2822 23.7637 64.4827 22.9831 63.9001 22.8093C63.2634 22.6092 59.8663 22.6748 58.7488 23.2783C57.6313 23.8818 58.0834 25.1872 58.0834 25.1872L64.0975 24.4492Z" fill="#0094FF"/>
<path d="M75.8376 108.331C75.7403 108.367 75.6369 108.383 75.5335 108.377C75.4302 108.372 75.329 108.345 75.2359 108.298C75.1993 108.264 75.174 108.219 75.1637 108.17C75.1534 108.12 75.1586 108.069 75.1786 108.023C75.1899 107.984 75.2092 107.949 75.235 107.919C75.2608 107.889 75.2926 107.865 75.3282 107.849C75.6466 107.688 76.4011 108.003 76.4362 108.019C76.446 108.024 76.4545 108.031 76.4607 108.041C76.4668 108.05 76.4705 108.061 76.4712 108.072C76.4712 108.083 76.4679 108.094 76.4617 108.104C76.4554 108.113 76.4465 108.12 76.4362 108.124C76.2448 108.216 76.044 108.285 75.8376 108.331ZM75.4428 107.95L75.376 107.973C75.3554 107.983 75.337 107.997 75.3221 108.015C75.3073 108.032 75.2963 108.053 75.29 108.075C75.2582 108.18 75.29 108.213 75.3091 108.223C75.4396 108.337 75.9204 108.223 76.2642 108.091C76.0041 107.982 75.7234 107.934 75.4428 107.95Z" fill="#0094FF"/>
<path d="M76.4243 108.13H76.3989C76.1251 108.048 75.5392 107.622 75.5329 107.34C75.532 107.296 75.5461 107.252 75.5728 107.218C75.5996 107.183 75.6372 107.159 75.6793 107.15C75.7208 107.135 75.7648 107.129 75.8087 107.132C75.8525 107.135 75.8952 107.148 75.934 107.169C76.2524 107.34 76.4594 108.029 76.4689 108.058C76.4718 108.069 76.4718 108.08 76.469 108.09C76.4662 108.1 76.4606 108.11 76.453 108.117C76.4447 108.124 76.4348 108.129 76.4243 108.13ZM75.743 107.248H75.7175C75.6475 107.271 75.6475 107.307 75.6475 107.323C75.6475 107.491 76.0359 107.825 76.3193 107.963C76.2448 107.689 76.0916 107.444 75.8799 107.261C75.8369 107.241 75.7888 107.237 75.743 107.248Z" fill="#0094FF"/>
<path d="M58.0206 109.551C57.7022 109.551 57.4125 109.505 57.3106 109.364C57.2853 109.326 57.2717 109.281 57.2717 109.234C57.2717 109.188 57.2853 109.143 57.3106 109.105C57.3301 109.07 57.3563 109.04 57.3875 109.017C57.4187 108.993 57.4543 108.976 57.4921 108.967C57.8932 108.856 58.7369 109.351 58.7656 109.37C58.7752 109.377 58.7827 109.387 58.7872 109.398C58.7918 109.409 58.7931 109.421 58.7911 109.433C58.789 109.444 58.7837 109.455 58.7758 109.464C58.7679 109.473 58.7577 109.479 58.7465 109.482C58.5067 109.525 58.264 109.548 58.0206 109.551ZM57.6385 109.069C57.6016 109.063 57.5641 109.063 57.5271 109.069C57.5041 109.074 57.4824 109.084 57.4633 109.098C57.4441 109.112 57.4279 109.13 57.4157 109.151C57.3743 109.223 57.3902 109.259 57.4157 109.282C57.5303 109.443 58.1416 109.446 58.5905 109.38C58.2957 109.214 57.9724 109.108 57.6385 109.069Z" fill="#0094FF"/>
<path d="M58.7546 109.482H58.7291C58.4394 109.348 57.86 108.826 57.9045 108.528C57.9045 108.462 57.9618 108.38 58.1178 108.364C58.1748 108.357 58.2325 108.363 58.2872 108.381C58.342 108.398 58.3927 108.427 58.4362 108.465C58.7546 108.724 58.8087 109.397 58.8087 109.423C58.8102 109.434 58.8089 109.444 58.805 109.454C58.8011 109.464 58.7947 109.472 58.7864 109.479C58.7763 109.483 58.7653 109.484 58.7546 109.482ZM58.1624 108.472H58.1306C58.0255 108.472 58.0191 108.524 58.016 108.538C57.9905 108.708 58.3821 109.128 58.6814 109.315C58.6538 109.032 58.5427 108.764 58.363 108.547C58.3066 108.499 58.2357 108.473 58.1624 108.472Z" fill="#0094FF"/>
<path d="M61.4088 109.423H58.9923L58.7535 103.657H61.1668L61.4088 109.423Z" fill="#B55B52"/>
<path d="M79.1177 107.467L76.7585 107.995L74.3866 102.626L76.749 102.098L79.1177 107.467Z" fill="#B55B52"/>
<path d="M76.5164 107.751L79.1717 107.161C79.2185 107.15 79.2674 107.157 79.3102 107.179C79.3531 107.201 79.3873 107.237 79.4073 107.282L80.3274 109.339C80.3495 109.389 80.3603 109.444 80.359 109.499C80.3577 109.554 80.3443 109.608 80.3198 109.658C80.2954 109.707 80.2604 109.75 80.2176 109.783C80.1749 109.816 80.1253 109.839 80.0727 109.85C79.143 110.04 78.6814 110.083 77.5257 110.345C76.8062 110.506 75.1856 110.913 74.1955 111.133C73.2053 111.352 72.8615 110.372 73.2403 110.191C74.9723 109.375 75.6982 108.656 76.1662 107.987C76.2507 107.867 76.3754 107.783 76.5164 107.751Z" fill="#263238"/>
<path d="M59.0059 109.134H61.6452C61.6933 109.134 61.74 109.151 61.7775 109.182C61.8151 109.213 61.8414 109.256 61.8522 109.304L62.3266 111.515C62.3387 111.569 62.3388 111.624 62.3269 111.678C62.315 111.731 62.2915 111.781 62.258 111.824C62.2245 111.866 62.1821 111.901 62.1338 111.924C62.0855 111.947 62.0328 111.959 61.9795 111.958C61.0244 111.941 59.6522 111.886 58.4583 111.886C57.0574 111.886 55.8508 111.964 54.2079 111.964C53.2178 111.964 52.9344 110.931 53.3579 110.836C55.249 110.41 56.79 110.364 58.4232 109.327C58.5966 109.209 58.7981 109.142 59.0059 109.134Z" fill="#263238"/>
<path d="M56.8834 28.7186C56.2307 29.3745 55.5908 29.9124 54.9254 30.4798C54.26 31.0472 53.5755 31.572 52.8782 32.0968C51.4545 33.1683 49.9354 34.0985 48.3413 34.8748C48.1376 34.9765 47.9275 35.0683 47.7046 35.1536L47.3862 35.2881L47.2238 35.3537L47.1825 35.3701L47.1156 35.3963L46.9055 35.4652C46.5935 35.5465 46.2692 35.5654 45.9503 35.5209C45.6527 35.4757 45.3656 35.3745 45.1034 35.2225C44.7422 35.0064 44.4279 34.7162 44.1802 34.3697C43.8546 33.9093 43.5922 33.405 43.4001 32.8708C43.2369 32.4201 43.0987 31.9602 42.9862 31.4933C42.5844 29.7518 42.3709 27.9699 42.3495 26.18L44.1451 25.9143C44.6163 27.4985 45.1003 29.1253 45.6988 30.5749C45.8381 30.9223 45.9954 31.2617 46.17 31.5917C46.292 31.8497 46.4508 32.0874 46.6412 32.2969C46.6985 32.3526 46.7463 32.3526 46.6412 32.2805C46.5622 32.2308 46.4746 32.1974 46.3833 32.1821C46.2666 32.1588 46.1466 32.1588 46.0299 32.1821L45.9663 32.2017H45.9949L46.1191 32.1394L46.3642 32.0148C46.5266 31.9361 46.6826 31.8508 46.8545 31.7524C48.2085 30.9607 49.5027 30.0649 50.726 29.0728C51.3627 28.5775 51.9772 28.0593 52.5981 27.5411C53.2189 27.0229 53.8365 26.4653 54.4064 25.9537L56.8834 28.7186Z" fill="#B65B52"/>
<path d="M68.7758 24.4659C71.0395 25.0005 73.7011 33.3772 73.7011 33.3772L69.8296 36.0011C69.8296 36.0011 67.3654 32.1047 66.0823 29.3266C64.7356 26.401 66.458 23.9182 68.7758 24.4659Z" fill="#263238"/>
<path opacity="0.3" d="M67.4899 28.7579C67.2925 28.4923 66.7544 29.0859 66.3501 29.8698C66.9104 31.0145 67.6236 32.2805 68.2604 33.3628C68.6392 31.2703 67.9993 29.4303 67.4899 28.7579Z" fill="black"/>
<path d="M55.2386 24.5916C55.2386 24.5916 52.6661 27.5861 55.0954 46.1073H68.0183C68.1074 44.064 66.8626 34.0933 68.776 24.4604C67.3471 24.1761 65.9018 23.9877 64.4493 23.8963C62.6191 23.788 60.7843 23.788 58.9541 23.8963C57.6999 24.0281 56.4577 24.2606 55.2386 24.5916Z" fill="#263238"/>
<path opacity="0.3" d="M54.1433 29.6889C54.0116 31.9018 54.0116 34.121 54.1433 36.3339C55.1207 34.648 56.5725 31.5289 56.7954 29.033L54.1433 29.6889Z" fill="black"/>
<path d="M60.3335 27.0212C60.4513 30.4487 50.4829 34.7813 50.4829 34.7813L47.8021 30.4454C47.8021 30.4454 51.8678 27.874 53.8927 25.6109C56.3951 22.8165 60.2443 24.4105 60.3335 27.0212Z" fill="#263238"/>
<path d="M49.3766 29.82C49.8765 30.9122 51.0035 33.2967 51.6307 34.0838C51.6753 34.1414 51.6966 34.2145 51.6901 34.2879C51.6836 34.3612 51.6497 34.4291 51.5957 34.4774C51.1436 34.8907 50.2681 35.4122 49.8446 35.3203C49.3448 35.2088 46.5908 31.3222 46.7086 30.7909C46.7914 30.4301 47.8834 29.843 48.5679 29.5085C48.6409 29.4739 48.7197 29.4545 48.7999 29.4515C48.8801 29.4484 48.9601 29.4618 49.0353 29.4907C49.1105 29.5197 49.1793 29.5637 49.2379 29.6202C49.2965 29.6768 49.3436 29.7447 49.3766 29.82Z" fill="#0094FF"/>
<path d="M69.0717 34.2583C70.1224 33.7172 72.4083 32.4971 73.1692 31.8345C73.2239 31.7874 73.2942 31.7638 73.3654 31.7687C73.4365 31.7736 73.5031 31.8066 73.5513 31.8608C73.962 32.3167 74.4905 33.2055 74.4109 33.6417C74.3186 34.1599 70.6127 37.0921 70.0937 36.9806C69.7403 36.9052 69.1386 35.7966 68.8043 35.098C68.7681 35.0248 68.7463 34.945 68.7402 34.8631C68.7341 34.7812 68.7437 34.6989 68.7685 34.6209C68.7934 34.5429 68.833 34.4707 68.885 34.4084C68.937 34.3462 69.0005 34.2952 69.0717 34.2583Z" fill="#0094FF"/>
<path d="M44.0944 26.3574L45.0782 23.9336L42.5312 23.2153C42.5312 23.2153 41.385 25.0684 42.4261 26.5312L44.0944 26.3574Z" fill="#B55B52"/>
<path d="M44.857 21.3944L43.3224 20.3547L42.5265 23.2148L45.0767 23.933L44.857 21.3944Z" fill="#B55B52"/>
<path opacity="0.2" d="M58.7535 103.661L58.8745 106.632H61.2942L61.17 103.661H58.7535Z" fill="black"/>
<path opacity="0.2" d="M76.749 102.102L74.3866 102.627L75.6092 105.395L77.9715 104.867L76.749 102.102Z" fill="black"/>
<path d="M65.2769 16.2432C64.5669 18.6047 64.2677 20.0216 62.8031 20.9563C60.5999 22.3634 57.9893 20.5464 57.9988 18.0045C57.9988 15.7086 59.1641 12.2484 61.6665 11.8646C62.2192 11.7768 62.7846 11.8363 63.3087 12.0375C63.8327 12.2387 64.298 12.5749 64.66 13.014C65.0221 13.4532 65.2689 13.9805 65.3769 14.5458C65.4849 15.1111 65.4505 15.6955 65.2769 16.2432Z" fill="#B55B52"/>
<path d="M60.1417 15.5546C60.1417 15.4202 59.5973 14.0656 59.8711 13.5375C60.5078 12.3273 63.889 13.7835 64.7868 14.2853C65.9425 14.9413 67.1205 16.0663 66.0603 16.9092C65.0606 17.7128 64.2424 20.0546 63.4942 20.3858C62.746 20.7171 61.2847 20.4219 60.8994 19.8479C60.5142 19.274 59.3457 16.7715 60.1417 15.5546Z" fill="#263238"/>
<path d="M60.2969 13.1304C59.4628 13.0911 58.705 12.4056 59.2112 11.4052C59.3522 11.1195 59.5666 10.8792 59.831 10.7103C60.0954 10.5414 60.3997 10.4505 60.7108 10.4475C60.7108 10.4475 59.9308 11.1035 61.5609 11.2445C63.191 11.3855 62.9012 10.0572 62.4237 9.65051C63.2451 9.86698 64.248 10.2901 64.2957 11.1888C64.3435 12.0874 66.2697 12.7664 66.1519 11.7102C66.1519 11.7102 67.6769 13.1304 66.4702 13.5666C65.2636 14.0029 68.5492 14.4489 68.4442 15.4197C68.1767 15.3049 67.1293 15.059 67.3553 15.9281C67.5814 16.7973 66.8109 17.24 65.6297 16.958C64.4485 16.6759 61.5959 14.9573 60.2969 13.1304Z" fill="#263238"/>
<path d="M61.3669 15.9482C61.3008 16.2627 61.1703 16.5591 60.9842 16.8176C60.7981 17.076 60.5606 17.2906 60.2876 17.4471C59.584 17.798 59.1924 17.4897 59.2146 16.755C59.2337 16.0991 59.5776 15.0364 60.2653 14.8199C60.953 14.6035 61.491 15.2201 61.3669 15.9482Z" fill="#B55B52"/>
<path d="M59.6813 46.1083C59.6813 46.1083 62.4225 65.1314 63.9284 72.2552C65.5776 80.0612 74.3903 105.076 74.3903 105.076L78.717 104.112C78.717 104.112 72.1171 80.6909 71.1779 72.9538C70.1559 64.5672 68.0196 46.0985 68.0196 46.0985L59.6813 46.1083Z" fill="#0094FF"/>
<path d="M73.2327 103.079C73.2168 103.079 74.1592 105.201 74.1592 105.201L79.0272 104.115L78.4955 102.098L73.2327 103.079Z" fill="#263238"/>
<path opacity="0.3" d="M61.4121 52.8852C64.5958 53.5248 64.2488 65.7061 63.8668 71.9706C62.953 67.5428 61.6126 59.0218 60.683 52.9738C60.9089 52.8587 61.1664 52.8275 61.4121 52.8852Z" fill="black"/>
<path d="M55.0963 46.1096C55.0963 46.1096 54.7779 64.7194 55.0263 72.3089C55.3001 80.2035 57.9776 106.055 57.9776 106.055H62.0688C62.0688 106.055 62.2216 80.666 62.3871 72.9124C62.5845 64.4603 63.5747 46.1096 63.5747 46.1096H55.0963Z" fill="#0094FF"/>
<path d="M57.1872 103.865C57.1681 103.865 57.4196 106.128 57.4196 106.128H62.399L62.5327 104.051L57.1872 103.865Z" fill="#263238"/>
<path d="M102.008 69.4137L88.8285 73.8618C86.8234 74.5385 85.7304 76.7617 86.3874 78.8273L94.573 104.566C95.2299 106.632 97.388 107.758 99.3931 107.081L112.572 102.633C114.577 101.956 115.67 99.7329 115.013 97.6673L106.828 71.9285C106.171 69.8629 104.013 68.7369 102.008 69.4137Z" fill="#263238"/>
<path d="M98.2136 107.599C97.3419 107.598 96.4925 107.315 95.7857 106.789C95.0789 106.263 94.5505 105.522 94.2753 104.67L86.0898 78.9331C85.9201 78.4009 85.8539 77.8396 85.8948 77.281C85.9358 76.7225 86.0832 76.1778 86.3286 75.678C86.574 75.1781 86.9126 74.733 87.325 74.368C87.7375 74.0031 88.2157 73.7254 88.7323 73.5509L101.91 69.1034C102.427 68.9287 102.972 68.8606 103.514 68.903C104.056 68.9454 104.585 69.0975 105.071 69.3507C105.556 69.6038 105.988 69.953 106.342 70.3782C106.696 70.8034 106.965 71.2964 107.135 71.8289L115.32 97.5658C115.489 98.098 115.555 98.6592 115.513 99.2175C115.472 99.7758 115.324 100.32 115.079 100.82C114.833 101.319 114.494 101.764 114.082 102.129C113.669 102.493 113.191 102.771 112.674 102.945L99.4967 107.392C99.0825 107.532 98.6493 107.601 98.2136 107.599ZM103.196 69.5527C102.827 69.5539 102.461 69.6148 102.111 69.7331L88.9329 74.1675C88.0518 74.4673 87.3221 75.1151 86.9043 75.9687C86.4864 76.8222 86.4145 77.8117 86.7043 78.7199L94.8897 104.46C95.1808 105.368 95.8096 106.119 96.6382 106.55C97.4667 106.98 98.4273 107.054 99.3088 106.756L112.493 102.315C113.374 102.015 114.104 101.367 114.521 100.514C114.939 99.6603 115.011 98.6708 114.721 97.7626L106.536 72.0257C106.246 71.1171 105.617 70.3644 104.788 69.9332C104.295 69.6758 103.749 69.541 103.196 69.5396V69.5527Z" fill="#263238"/>
<path d="M82.5647 76.4111C82.4975 76.411 82.4321 76.3891 82.3778 76.3485C82.3235 76.3078 82.283 76.2505 82.2622 76.1848L74.8281 52.8127C74.5411 51.9155 74.5514 50.9456 74.8574 50.0552C75.1634 49.1648 75.7477 48.4042 76.5187 47.8929C76.6589 47.8 76.818 47.7417 76.9836 47.7223C77.1492 47.703 77.317 47.7232 77.4738 47.7814C77.634 47.8396 77.779 47.9349 77.8977 48.06C78.0163 48.1851 78.1055 48.3367 78.1583 48.503L86.4743 74.6498C86.4891 74.6912 86.4957 74.7352 86.4936 74.7793C86.4915 74.8233 86.4808 74.8665 86.4621 74.9062C86.4434 74.9459 86.4172 74.9813 86.3849 75.0103C86.3526 75.0393 86.315 75.0613 86.2743 75.075C86.2336 75.0886 86.1907 75.0937 86.148 75.0899C86.1054 75.0861 86.0639 75.0735 86.0261 75.0527C85.9883 75.032 85.9549 75.0037 85.928 74.9694C85.9011 74.9351 85.8812 74.8956 85.8694 74.8532L77.5343 48.7194C77.5128 48.6478 77.475 48.5824 77.424 48.5288C77.3731 48.4752 77.3105 48.4349 77.2414 48.4111C77.1778 48.3869 77.1097 48.3781 77.0423 48.3855C76.9749 48.3929 76.9101 48.4163 76.853 48.4538C76.2017 48.8857 75.7078 49.5279 75.4486 50.2798C75.1893 51.0317 75.1794 51.851 75.4203 52.6093L82.8544 75.9781C82.8678 76.0193 82.8732 76.0627 82.8702 76.106C82.8672 76.1493 82.8559 76.1915 82.8369 76.2302C82.818 76.269 82.7917 76.3035 82.7598 76.3317C82.7278 76.3599 82.6907 76.3813 82.6506 76.3947C82.6228 76.404 82.5939 76.4095 82.5647 76.4111Z" fill="#263238"/>
<path d="M94.269 109.842C94.269 109.422 94.1481 109.012 93.9216 108.663C93.6951 108.314 93.3732 108.042 92.9966 107.881C92.62 107.721 92.2057 107.679 91.806 107.761C91.4064 107.843 91.0393 108.046 90.7514 108.343C90.4634 108.64 90.2675 109.018 90.1884 109.43C90.1092 109.842 90.1505 110.269 90.3069 110.657C90.4633 111.044 90.7278 111.376 91.067 111.608C91.4061 111.841 91.8047 111.965 92.2122 111.964C92.4826 111.964 92.7503 111.909 93.0001 111.803C93.2498 111.696 93.4767 111.54 93.6677 111.343C93.8587 111.145 94.0102 110.912 94.1133 110.654C94.2165 110.397 94.2694 110.121 94.269 109.842Z" fill="#263238"/>
<path d="M100.18 108.895C100.18 108.476 100.06 108.066 99.8338 107.718C99.6078 107.369 99.2866 107.098 98.9108 106.937C98.535 106.777 98.1215 106.735 97.7225 106.817C97.3235 106.899 96.9571 107.1 96.6694 107.397C96.3818 107.693 96.1859 108.071 96.1065 108.482C96.0272 108.893 96.0679 109.319 96.2236 109.706C96.3792 110.093 96.6429 110.424 96.9811 110.657C97.3193 110.889 97.717 111.014 98.1237 111.014C98.6692 111.014 99.1923 110.79 99.578 110.393C99.9638 109.996 100.18 109.457 100.18 108.895Z" fill="#263238"/>
<path d="M96.7948 71.178L83.6156 75.6261C81.6105 76.3028 80.5175 78.526 81.1745 80.5916L89.3601 106.33C90.017 108.396 92.1751 109.522 94.1802 108.845L107.359 104.397C109.365 103.72 110.458 101.497 109.801 99.4315L101.615 73.6928C100.958 71.6271 98.8 70.5012 96.7948 71.178Z" fill="#0094FF"/>
<path d="M92.9987 109.36C92.1267 109.357 91.2776 109.072 90.5711 108.545C89.8646 108.019 89.3362 107.277 89.0604 106.425L80.8749 80.6846C80.7058 80.1525 80.64 79.5912 80.6815 79.0329C80.7229 78.4746 80.8707 77.9301 81.1163 77.4307C81.362 76.9312 81.7008 76.4864 82.1133 76.1218C82.5259 75.7572 83.0041 75.4799 83.5206 75.3057L96.6983 70.8582C97.7411 70.5062 98.8769 70.5952 99.8561 71.1057C100.835 71.6162 101.577 72.5064 101.92 73.5805L110.105 99.3207C110.447 100.395 110.36 101.565 109.865 102.574C109.369 103.582 108.505 104.347 107.463 104.7L94.285 109.147C93.8701 109.289 93.4358 109.361 92.9987 109.36ZM83.718 75.9289C82.8369 76.2287 82.1073 76.8765 81.6894 77.7301C81.2715 78.5836 81.1996 79.5731 81.4894 80.4813L89.6749 106.218C89.9659 107.126 90.5947 107.878 91.4233 108.308C92.2518 108.738 93.2124 108.813 94.0939 108.514L107.272 104.067C108.153 103.767 108.882 103.119 109.3 102.265C109.718 101.412 109.79 100.422 109.5 99.5142L101.315 73.7773C101.024 72.8696 100.395 72.1179 99.5663 71.6875C98.7377 71.257 97.7772 71.1829 96.8957 71.4814L83.718 75.9289Z" fill="#263238"/>
</svg>
